<svg xmlns="http://www.w3.org/2000/svg" xmlns:xlink="http://www.w3.org/1999/xlink" width="500" zoomAndPan="magnify" viewBox="0 0 375 131.249995" height="175" preserveAspectRatio="xMidYMid meet" version="1.2"><defs><clipPath id="648ab0ceb2"><path d="M 3.847656 35 L 102 35 L 102 117.160156 L 3.847656 117.160156 Z M 3.847656 35 "/></clipPath></defs><g id="b2b5da4a84"><g clip-rule="nonzero" clip-path="url(#648ab0ceb2)"><path style=" stroke:none;fill-rule:nonzero;fill:#ffffff;fill-opacity:1;" d="M 65.210938 115.628906 C 65.828125 115.726562 65.964844 115.714844 66.71875 115.734375 C 66.929688 115.300781 66.621094 114.867188 66.71875 114.226562 C 65.933594 114.589844 65.445312 114.921875 65.210938 115.628906 Z M 45.261719 114.980469 C 45.867188 114.851562 46.300781 115.035156 47.09375 114.980469 C 47.09375 114.621094 47.09375 114.261719 47.09375 113.902344 C 46.429688 113.929688 46.003906 114.71875 45.261719 114.980469 Z M 25.957031 114.765625 C 26.351562 114.839844 26.742188 114.914062 27.25 114.875 C 27.164062 114.53125 27.179688 114.082031 27.035156 113.792969 C 26.570312 114.015625 26.175781 114.304688 25.957031 114.765625 Z M 63.59375 114.65625 C 63.304688 114.53125 62.703125 114.875 62.839844 115.519531 C 63.210938 115.699219 63.554688 115.433594 64.132812 115.519531 C 64.808594 114.035156 67.675781 113.742188 66.503906 111.640625 C 65.394531 112.503906 64.332031 113.417969 63.59375 114.65625 Z M 26.710938 111.316406 C 25.910156 112.632812 24.511719 113.355469 23.582031 114.550781 C 25.375 115.382812 25.921875 113.042969 27.140625 112.933594 C 26.664062 112.902344 27.355469 111.847656 27.140625 111.316406 C 27 111.316406 26.855469 111.316406 26.710938 111.316406 Z M 41.378906 114.550781 C 42.3125 115.265625 43.558594 114.710938 44.613281 114.980469 C 45.023438 113.832031 47.351562 113.496094 46.769531 112.070312 C 45.953125 113.265625 45 113.730469 43.859375 114.65625 C 43.792969 114.4375 43.3125 114.628906 43.425781 114.226562 C 44.714844 113.175781 45.863281 111.992188 46.984375 110.777344 C 46.875 110.191406 47.109375 109.804688 46.769531 109.589844 C 45.027344 111.296875 43.007812 112.726562 41.378906 114.550781 Z M 80.417969 114.441406 C 80.359375 114.996094 79.835938 115.082031 79.769531 115.628906 C 82.210938 115.628906 83.429688 115.570312 85.808594 115.519531 C 85.875 115 86.191406 113.882812 85.703125 113.257812 C 85.257812 113.695312 84.492188 115.636719 83.4375 115.089844 C 84.367188 114.152344 84.914062 113.308594 85.917969 112.609375 C 85.917969 112.285156 85.917969 111.960938 85.917969 111.640625 C 84.625 113.078125 83.230469 114.414062 81.496094 115.414062 C 81.339844 115.351562 81.230469 115.242188 81.171875 115.089844 C 82.851562 113.964844 84.234375 112.542969 85.488281 110.992188 C 85.761719 111 85.640625 111.410156 85.917969 111.421875 C 85.929688 110.972656 86.195312 109.773438 85.59375 109.480469 C 84.054688 111.285156 82.28125 113.628906 80.417969 114.441406 Z M 65.425781 109.910156 C 64.128906 111.722656 61.84375 113.335938 60.464844 115.414062 C 60.867188 115.558594 61.285156 115.355469 61.761719 115.519531 C 63.351562 113.730469 65.09375 112.097656 66.71875 110.34375 C 66.652344 109.816406 66.703125 109.835938 66.71875 109.265625 C 66.066406 109.3125 65.972656 110.054688 65.425781 109.910156 Z M 21.101562 114.65625 C 21.425781 114.875 22.121094 114.71875 22.613281 114.765625 C 23.878906 112.976562 25.59375 111.636719 27.140625 110.128906 C 26.820312 109.761719 27.429688 109.128906 26.925781 108.941406 C 25.007812 110.871094 22.972656 112.679688 21.101562 114.65625 Z M 80.203125 114.226562 C 82.582031 112.796875 83.777344 110.183594 85.917969 108.511719 C 85.847656 108.113281 86.058594 107.4375 85.808594 107.21875 C 83.089844 109.886719 80.285156 112.476562 78.042969 115.628906 C 78.394531 115.566406 78.546875 115.699219 78.800781 115.734375 C 79.195312 115.195312 80.269531 114.558594 80.203125 114.226562 Z M 26.710938 106.679688 C 24.296875 109.582031 21.96875 111.917969 19.484375 114.765625 C 21.390625 114.222656 22.566406 111.449219 24.339844 110.777344 C 24.945312 109.460938 26.195312 108.386719 27.140625 107.753906 C 27.054688 107.527344 27.101562 107.164062 27.035156 106.679688 C 26.925781 106.679688 26.820312 106.679688 26.710938 106.679688 Z M 64.347656 108.511719 C 64.382812 108.761719 64.332031 108.925781 64.242188 109.050781 C 63.128906 109.484375 62.972656 110.871094 61.761719 111.207031 C 60.960938 112.660156 59.1875 113.339844 58.632812 115.304688 C 58.8125 115.484375 59.265625 115.390625 59.601562 115.414062 C 61.367188 113.050781 64.160156 110.8125 66.179688 108.511719 C 66.480469 108.171875 66.578125 107.402344 66.613281 106.894531 C 66.355469 106.9375 66.671875 106.402344 66.289062 106.570312 C 65.601562 107.175781 65.320312 108.1875 64.347656 108.511719 Z M 84.949219 105.382812 C 81.617188 108.636719 78.5625 112.121094 75.78125 115.628906 C 76.335938 115.871094 76.753906 115.726562 77.398438 115.734375 C 77.523438 115.609375 77.519531 115.355469 77.503906 115.089844 C 79.839844 112.761719 82.191406 109.785156 84.625 107.648438 C 84.773438 107.042969 85.222656 106.738281 85.917969 106.679688 C 85.894531 105.671875 86.105469 105.511719 86.023438 104.738281 C 85.304688 104.699219 85.371094 105.449219 84.839844 105.597656 C 84.839844 105.492188 84.925781 105.46875 84.949219 105.382812 Z M 43.859375 107 C 43.628906 107.292969 44.101562 107.269531 43.859375 107.648438 C 42.863281 107.898438 42.761719 109.488281 41.808594 109.15625 C 41.734375 109.488281 41.734375 109.363281 41.808594 109.695312 C 40.113281 111.320312 38.820312 112.679688 37.496094 114.65625 C 37.507812 114.894531 37.953125 114.703125 38.140625 114.765625 C 40.027344 113.203125 41.425781 111.34375 42.996094 109.480469 C 43.316406 109.101562 43.855469 108.882812 44.183594 108.511719 C 44.777344 107.835938 44.988281 106.652344 45.90625 106.460938 C 45.855469 106.058594 46.289062 105.855469 46.769531 105.707031 C 46.691406 106.039062 46.957031 106.023438 46.878906 106.355469 C 46.046875 107.066406 45.632812 108.199219 44.613281 108.726562 C 44.734375 109.34375 43.414062 110.097656 43.101562 110.453125 C 42.242188 111.433594 41.398438 113.105469 40.515625 113.148438 C 40.429688 113.964844 39.5 113.929688 39.328125 114.65625 C 39.472656 115.066406 40.160156 114.535156 40.515625 114.875 C 42.3125 112.394531 45.164062 110.703125 46.984375 107.972656 C 46.871094 106.742188 47.492188 105.574219 46.984375 104.304688 C 45.769531 104.960938 45.148438 106.773438 43.859375 107 Z M 63.917969 106.460938 C 63.75 107.503906 62.574219 108.410156 61.761719 109.15625 C 61.761719 109.300781 61.761719 109.445312 61.761719 109.589844 C 60.941406 110.5 59.925781 111.039062 59.0625 112.070312 C 58.457031 112.800781 58.269531 113.894531 57.339844 113.902344 C 57.769531 114.382812 56.902344 114.8125 56.691406 115.304688 C 56.945312 115.304688 57.195312 115.304688 57.445312 115.304688 C 58.425781 113.699219 59.652344 112.332031 61.222656 111.316406 C 62.894531 109.214844 64.703125 107.25 66.503906 105.273438 C 66.367188 104.699219 66.6875 104.253906 66.289062 103.875 C 65.46875 104.707031 64.957031 105.847656 63.917969 106.460938 Z M 24.660156 105.921875 C 22.957031 108.347656 20.824219 110.386719 18.945312 112.503906 C 18.316406 113.210938 17.402344 113.910156 17.328125 114.980469 C 18.601562 114.71875 19.53125 113.53125 20.457031 112.609375 C 21.425781 111.644531 22.40625 110.566406 23.152344 109.480469 C 24.386719 108.632812 25.085938 107.246094 26.0625 106.136719 C 26.488281 106.023438 26.765625 105.761719 27.035156 105.492188 C 26.902344 104.742188 27.03125 104.082031 26.925781 103.765625 C 26.238281 104.550781 25.507812 105.292969 24.660156 105.921875 Z M 40.300781 108.402344 C 40.433594 109.066406 39.492188 109.984375 39.113281 110.128906 C 38.699219 111.007812 38.429688 112.03125 37.386719 112.285156 C 37.386719 112.609375 37.386719 112.933594 37.386719 113.257812 C 40.207031 110.394531 42.800781 107.675781 45.476562 104.519531 C 46.296875 104.261719 46.296875 103.183594 47.203125 103.011719 C 47.136719 102.316406 47.398438 101.957031 47.09375 101.5 C 45.679688 102.207031 45.324219 103.972656 43.75 104.519531 C 43.921875 105.070312 43.660156 105.589844 42.996094 105.597656 C 43.011719 106.082031 42.488281 106.941406 41.917969 106.785156 C 42.179688 107.261719 41.453125 107.617188 41.054688 107.433594 C 41.007812 108.359375 40.792969 107.925781 40.300781 108.402344 Z M 17.976562 109.910156 C 18.042969 110.273438 18.292969 110.28125 18.082031 110.667969 C 17.9375 110.917969 17.460938 110.835938 17.222656 110.992188 C 17.320312 111.847656 17.398438 112.464844 17.222656 113.257812 C 20.796875 109.765625 23.484375 106.003906 27.035156 102.578125 C 26.804688 102.160156 27.066406 101.253906 26.605469 101.070312 C 23.75 104.039062 21.03125 107.148438 17.976562 109.910156 Z M 58.632812 111.746094 C 58.625 111.8125 58.617188 111.875 58.523438 111.855469 C 61.539062 109.007812 63.90625 105.515625 66.613281 102.363281 C 66.535156 101.859375 66.480469 101.367188 66.503906 100.53125 C 64.101562 102.597656 62.65625 105.773438 60.25 107.539062 C 59.90625 109.050781 57.800781 109.675781 57.445312 111.53125 C 56.707031 111.652344 56.445312 113.285156 56.800781 113.792969 C 57.289062 113.0625 58.257812 112.234375 58.632812 111.746094 Z M 78.90625 108.941406 C 79.953125 107.21875 81.363281 105.859375 82.683594 104.414062 C 82.679688 104.472656 82.769531 104.535156 82.789062 104.414062 C 83.261719 103.230469 84.59375 101.972656 85.378906 100.746094 C 85.605469 100.554688 85.699219 100.503906 86.023438 100.636719 C 86.273438 99.753906 85.992188 98.921875 86.023438 97.941406 C 84.121094 99.691406 82.726562 101.816406 81.066406 103.65625 C 80.921875 103.65625 80.964844 103.46875 80.847656 103.441406 C 80.757812 103.789062 80.757812 103.667969 80.957031 103.875 C 79.269531 105.914062 77.898438 107.984375 76.320312 109.910156 C 75.914062 110.027344 76.011719 109.644531 75.671875 109.695312 C 75.871094 110.519531 75.667969 111.121094 75.78125 112.070312 C 76.972656 111.601562 77.566406 109.617188 78.90625 108.941406 Z M 80.09375 108.078125 C 79.140625 108.625 78.96875 109.601562 78.261719 109.804688 C 77.835938 111.378906 75.765625 112.035156 75.78125 114.441406 C 77.882812 112.53125 80.242188 109.601562 82.144531 107.433594 C 82.453125 107.078125 83.277344 106.242188 83.4375 106.460938 C 84.113281 104.550781 86.582031 104.433594 86.023438 101.285156 C 84.003906 102.96875 82.496094 105.730469 80.527344 107.109375 C 80.652344 107.128906 80.640625 107.277344 80.632812 107.433594 C 80.507812 107.523438 80.34375 107.574219 80.09375 107.539062 C 79.890625 107.746094 80.15625 107.734375 80.09375 108.078125 Z M 26.710938 97.726562 C 25.605469 98.742188 24.632812 100.023438 23.367188 101.394531 C 22.238281 102.617188 21.140625 103.882812 20.242188 105.058594 C 19.21875 106.394531 17.050781 107.589844 17.222656 109.589844 C 19.089844 108.335938 20.5625 106.316406 22.183594 104.519531 C 23.707031 102.828125 25.78125 101.515625 26.820312 99.453125 C 26.824219 99.386719 26.835938 99.324219 26.925781 99.34375 C 26.910156 98.753906 26.914062 98.183594 27.035156 97.726562 C 26.925781 97.726562 26.820312 97.726562 26.710938 97.726562 Z M 41.703125 103.875 C 40.816406 106.4375 36.765625 107.566406 37.28125 111.207031 C 38.886719 109.722656 40.203125 107.949219 41.59375 106.246094 C 43.785156 104.664062 44.871094 101.972656 47.09375 100.421875 C 47.367188 99.347656 47.511719 98.59375 47.203125 97.617188 C 45.4375 99.839844 43.734375 102.21875 41.703125 103.875 Z M 44.398438 97.617188 C 43.816406 99.378906 42.289062 99.984375 41.59375 101.394531 C 41.449219 101.394531 41.304688 101.394531 41.160156 101.394531 C 40.835938 102.535156 40.0625 102.769531 39.652344 103.65625 C 39.652344 103.597656 39.566406 103.535156 39.542969 103.65625 C 39.84375 104.035156 39.246094 104.023438 39.003906 104.304688 C 38.410156 104.996094 38.171875 106.480469 37.28125 106.570312 C 37.507812 107.332031 36.953125 107.746094 37.496094 107.972656 C 40.359375 104.328125 43.84375 101.304688 46.445312 97.402344 C 46.785156 97.273438 46.914062 96.9375 47.308594 96.863281 C 47.230469 96.222656 47.503906 95.234375 47.09375 94.921875 C 46.070312 95.695312 45.574219 97 44.398438 97.617188 Z M 78.261719 102.6875 C 78.167969 102.828125 78.265625 103.089844 78.152344 103.226562 C 77.8125 103.644531 76.816406 104.101562 77.074219 104.628906 C 76.171875 104.921875 76.09375 106.082031 75.671875 106.570312 C 75.652344 107.316406 75.753906 108.277344 75.78125 109.265625 C 77.046875 109.09375 76.976562 107.585938 78.152344 107.324219 C 77.890625 106.871094 79.007812 105.488281 79.445312 105.382812 C 79.636719 104.636719 80.101562 104.167969 80.632812 103.765625 C 80.449219 103.722656 80.65625 103.625 80.632812 103.441406 C 81.996094 101.945312 83.285156 100.496094 84.191406 98.804688 C 85.308594 97.855469 86.46875 96.917969 85.917969 94.816406 C 84.183594 96.457031 82.59375 98.25 80.957031 99.992188 C 80.972656 99.863281 81.148438 99.746094 80.957031 99.667969 C 80.769531 99.804688 80.953125 100.3125 80.632812 100.3125 C 80.648438 100.1875 80.824219 100.070312 80.632812 99.992188 C 80.5 100.289062 79.992188 100.210938 79.984375 100.636719 C 80.296875 100.960938 80.171875 100.367188 80.527344 100.421875 C 80.167969 101.398438 78.859375 101.777344 78.261719 102.6875 Z M 23.800781 97.726562 C 23.636719 97.898438 23.636719 98.179688 23.476562 98.371094 C 21.988281 100.1875 19.757812 102.179688 18.621094 103.765625 C 18.550781 103.863281 18.617188 104.140625 18.515625 104.304688 C 18.277344 104.6875 17.6875 104.992188 17.4375 105.382812 C 17.410156 105.429688 16.996094 106.476562 17.003906 106.355469 C 17.003906 106.398438 17.472656 106.984375 17.222656 107.109375 C 17.808594 106.371094 18.46875 105.953125 19.164062 105.273438 C 19.789062 104.664062 20.21875 103.722656 20.78125 103.117188 C 20.90625 102.984375 21.257812 102.960938 21.425781 102.796875 C 21.773438 102.453125 22 101.824219 22.398438 101.394531 C 23.164062 100.5625 23.742188 100.140625 24.554688 99.128906 C 25.574219 97.859375 27.464844 95.757812 26.605469 94.816406 C 25.738281 95.925781 24.734375 96.722656 23.800781 97.726562 Z M 65.75 94.816406 C 63.875 96.40625 62.980469 98.15625 61.113281 100.097656 C 61.238281 100.117188 61.230469 100.269531 61.222656 100.421875 C 60.714844 100.527344 60.566406 100.988281 60.464844 101.5 C 59.113281 101.964844 59.589844 103.222656 58.199219 103.765625 C 58.523438 104.875 57.210938 105.597656 56.691406 105.058594 C 56.707031 106.828125 56.753906 108.523438 56.90625 110.234375 C 60.230469 107.089844 63.148438 103.535156 65.75 99.667969 C 66.089844 99.71875 65.996094 99.335938 66.398438 99.453125 C 66.453125 98.609375 66.777344 97.683594 66.289062 97.078125 C 66.117188 97.496094 65.992188 97.402344 65.644531 97.511719 C 64.820312 99.464844 63.042969 100.613281 61.976562 102.578125 C 60.449219 103.550781 59.890625 105.433594 58.308594 106.570312 C 58.292969 107.152344 58.234375 107.023438 58.199219 107.539062 C 57.796875 107.566406 57.746094 107.945312 57.339844 107.972656 C 57.28125 107.8125 57.179688 107.699219 57.121094 107.539062 C 59.710938 103.476562 63.136719 100.253906 65.964844 96.433594 C 66.097656 96.683594 66.800781 95.039062 66.398438 94.273438 C 66.21875 94.273438 66.039062 94.273438 65.859375 94.273438 C 65.902344 94.535156 65.664062 94.507812 65.75 94.816406 Z M 22.613281 96.324219 C 21.210938 98.828125 19.164062 100.058594 17.757812 102.472656 C 17.570312 102.496094 17.21875 102.363281 17.328125 102.6875 C 17.027344 103.117188 17.429688 103.96875 17.222656 104.414062 C 19.171875 101.976562 21.640625 99.492188 23.90625 96.972656 C 24.917969 95.847656 25.960938 94.519531 26.710938 93.304688 C 26.871094 93.046875 26.8125 92.441406 26.820312 92.117188 C 26.792969 92.035156 26.726562 91.992188 26.605469 92.011719 C 25.125 93.300781 24.203125 95.144531 22.613281 96.324219 Z M 47.09375 91.6875 C 45.207031 93.199219 43.730469 95.714844 41.917969 97.617188 C 41.585938 98.367188 40.765625 99.558594 39.761719 99.992188 C 39.414062 101.164062 38.1875 102.25 37.605469 103.765625 C 37.460938 103.765625 37.316406 103.765625 37.171875 103.765625 C 37.289062 104.320312 37.175781 104.703125 37.28125 105.273438 C 40.863281 101.34375 43.976562 97.472656 47.308594 93.199219 C 47.335938 92.722656 47.480469 92.363281 47.417969 91.796875 C 47.277344 91.789062 47.269531 91.65625 47.09375 91.6875 Z M 75.457031 103.441406 C 75.609375 103.953125 75.382812 104.566406 75.5625 105.382812 C 77.421875 103.132812 79.441406 100.902344 81.386719 98.914062 C 81.851562 98.441406 82.195312 97.773438 82.683594 97.292969 C 84.121094 95.878906 86.4375 93.777344 85.703125 91.253906 C 82.125 95.367188 78.371094 98.652344 75.457031 103.441406 Z M 56.800781 102.363281 C 56.914062 102.609375 56.867188 103.011719 57.015625 103.226562 C 56.488281 103.347656 56.574219 104.078125 56.582031 104.738281 C 58.042969 103.535156 59.132812 101.964844 60.144531 100.3125 C 61.554688 98.601562 63.25 96.792969 64.5625 95.03125 C 65.484375 93.796875 67.195312 92.382812 66.179688 90.714844 C 64.320312 91.898438 63.292969 94.320312 61.761719 95.675781 C 60.558594 97.925781 58.40625 100.160156 56.800781 102.363281 Z M 39.761719 97.292969 C 39.550781 97.707031 38.457031 98.976562 38.25 100.097656 C 37.394531 100.449219 36.988281 101.175781 37.386719 102.253906 C 40.746094 98.207031 44.207031 94.265625 47.308594 89.960938 C 47.238281 89.675781 47.265625 89.289062 47.09375 89.097656 C 43.957031 91.421875 42.425781 94.480469 39.761719 97.292969 Z M 25.742188 89.421875 C 25.546875 89.613281 25.128906 89.691406 24.984375 89.851562 C 24.859375 89.992188 24.984375 90.21875 24.878906 90.394531 C 24.53125 90.949219 23.753906 91.554688 23.152344 92.226562 C 21.996094 93.515625 21.019531 94.953125 19.917969 96.214844 C 19.335938 96.882812 18.585938 97.488281 18.191406 98.050781 C 18 98.324219 18.054688 98.671875 17.867188 98.914062 C 17.628906 99.21875 17.234375 99.269531 17.113281 99.558594 C 16.878906 100.125 17.148438 100.90625 17.113281 101.5 C 20.726562 98.210938 23.566406 94.152344 26.820312 90.5 C 26.722656 89.96875 26.832031 89.101562 26.496094 88.558594 C 26.140625 88.796875 26.050781 89.121094 25.742188 89.421875 Z M 81.171875 92.335938 C 81.003906 92.574219 80.695312 92.644531 80.527344 92.875 C 80.339844 93.121094 80.375 93.484375 80.203125 93.738281 C 79.539062 94.703125 78.476562 95.316406 77.722656 96.214844 C 77.589844 96.375 77.621094 96.707031 77.503906 96.863281 C 77.027344 97.523438 76.1875 97.953125 75.996094 98.804688 C 75.671875 98.875 76.097656 99.035156 75.996094 99.234375 C 75.703125 99.414062 75.484375 99.660156 75.347656 99.992188 C 75.527344 100.574219 75.628906 101.609375 75.457031 101.933594 C 77.761719 100.140625 79.050781 97.332031 81.386719 95.570312 C 82.511719 93.742188 84.015625 92.300781 85.269531 90.609375 C 85.644531 90.460938 85.777344 91.09375 86.023438 90.714844 C 85.503906 89.78125 86.105469 87.984375 85.59375 87.265625 C 83.941406 88.832031 82.46875 90.5 81.171875 92.335938 Z M 62.839844 90.714844 C 62.917969 91.046875 62.730469 91.109375 62.730469 91.363281 C 62.042969 91.46875 62.25 92.089844 61.976562 92.441406 C 61.777344 92.699219 61.292969 92.800781 61.113281 93.089844 C 61.015625 93.246094 61.113281 93.496094 61.007812 93.628906 C 60.746094 93.957031 60.246094 94.105469 60.035156 94.492188 C 60.011719 94.535156 60.066406 94.878906 60.035156 94.921875 C 59.902344 95.105469 59.523438 95.183594 59.386719 95.355469 C 59.300781 95.460938 59.453125 95.683594 59.386719 95.785156 C 59.300781 95.917969 58.984375 95.945312 58.847656 96.109375 C 58.644531 96.347656 58.601562 96.828125 58.417969 97.078125 C 57.261719 98.660156 55.847656 99.566406 56.582031 101.609375 C 58.542969 99.792969 59.933594 97.019531 61.652344 95.03125 C 61.855469 94.792969 62.226562 94.722656 62.40625 94.492188 C 62.476562 94.398438 62.347656 94.160156 62.40625 94.0625 C 63.632812 92.050781 66.730469 90.511719 66.289062 87.371094 C 66.269531 87.253906 66.167969 87.207031 66.074219 87.15625 C 64.808594 88.15625 64.125 89.738281 62.839844 90.714844 Z M 46.660156 86.402344 C 45.96875 87.183594 45.398438 88.089844 44.398438 88.558594 C 44.425781 89.128906 44.222656 89.460938 43.75 89.53125 C 43.515625 90.371094 42.726562 90.660156 42.347656 91.363281 C 41.644531 93.429688 39.25 94.734375 38.464844 97.078125 C 37.820312 97.433594 37.316406 98.28125 37.386719 99.019531 C 38.125 98.714844 38.46875 98.015625 38.789062 97.292969 C 41.785156 94.359375 44.019531 90.664062 47.09375 87.804688 C 46.9375 87.167969 47.296875 86.617188 46.660156 86.402344 Z M 17.976562 95.675781 C 17.898438 95.847656 17.449219 95.652344 17.542969 96 C 17.25 96.210938 17.277344 96.738281 16.898438 96.863281 C 17.027344 97.515625 16.761719 97.914062 17.222656 98.265625 C 20.230469 94.445312 23.582031 90.96875 26.605469 87.15625 C 26.617188 86.496094 26.597656 85.871094 26.386719 85.433594 C 23.546875 88.808594 20.140625 91.625 17.976562 95.675781 Z M 82.46875 86.941406 C 82.03125 87.773438 81.242188 88.332031 80.742188 88.882812 C 79.675781 90.046875 79.027344 91.492188 78.042969 92.65625 C 77.246094 93.605469 76.058594 94.398438 75.996094 96 C 75.773438 96.175781 75.554688 96.351562 75.242188 96.433594 C 75.4375 96.917969 75.273438 97.765625 75.457031 98.265625 C 79.128906 94.425781 82.175781 89.957031 85.703125 85.972656 C 85.617188 85.335938 85.777344 84.460938 85.378906 84.136719 C 84.523438 85.1875 83.703125 86.273438 82.46875 86.941406 Z M 62.839844 87.695312 C 62.433594 87.867188 62.0625 88.074219 62.085938 88.667969 C 61.816406 88.652344 61.75 88.835938 61.542969 88.882812 C 60.421875 90.816406 59.070312 92.519531 57.878906 94.382812 C 57.734375 94.382812 57.589844 94.382812 57.445312 94.382812 C 57.09375 95.46875 56.132812 96.042969 56.367188 98.050781 C 57.261719 97.9375 57.1875 96.859375 57.988281 96.648438 C 60.359375 93.125 63.089844 89.960938 65.425781 86.402344 C 65.566406 86.253906 65.894531 86.296875 66.179688 86.296875 C 66.09375 85.261719 66.476562 84.410156 65.964844 83.707031 C 64.742188 84.855469 63.558594 86.042969 62.839844 87.695312 Z M 44.71875 85.109375 C 44.195312 86.664062 42.683594 87.242188 42.132812 88.773438 C 40.613281 90.167969 40.019531 92.484375 38.25 93.628906 C 38.132812 94.59375 37.792969 95.289062 36.957031 95.460938 C 37.203125 95.992188 37.042969 96.292969 37.28125 96.863281 C 38.132812 96.636719 38.347656 95.777344 38.679688 95.03125 C 40.089844 93.847656 40.886719 92.339844 42.242188 90.933594 C 42.921875 89.753906 43.761719 88.691406 44.828125 87.480469 C 45.917969 86.246094 47.316406 85.042969 46.878906 83.167969 C 46.738281 83.164062 46.726562 83.027344 46.554688 83.058594 C 46.007812 83.804688 45.554688 84.648438 44.71875 85.109375 Z M 16.898438 93.953125 C 16.996094 94.441406 16.992188 94.671875 16.898438 95.246094 C 17.574219 95.207031 17.359375 94.269531 18.082031 94.273438 C 20.121094 90.667969 23.292969 88.195312 25.847656 85.109375 C 25.902344 84.445312 26.296875 84.117188 26.605469 83.707031 C 26.371094 83.507812 26.714844 82.730469 26.28125 82.734375 C 23.195312 86.515625 19.796875 89.984375 16.898438 93.953125 Z M 75.132812 92.65625 C 75.207031 93.804688 75.183594 94.246094 75.132812 95.03125 C 75.539062 95.210938 75.792969 94.429688 75.996094 94.0625 C 77.242188 93.214844 77.933594 91.453125 78.90625 90.933594 C 78.777344 90.261719 79.328125 90.207031 79.554688 89.960938 C 80.523438 88.910156 81.6875 87.066406 82.683594 85.972656 C 83.746094 84.800781 86.128906 83.230469 85.269531 81.117188 C 81.289062 84.363281 78.367188 88.667969 75.132812 92.65625 Z M 63.269531 84.355469 C 61.738281 85.695312 60.511719 87.347656 59.386719 89.097656 C 58.328125 89.65625 57.679688 90.628906 57.230469 91.796875 C 57.042969 91.789062 56.894531 91.816406 56.800781 91.902344 C 56.410156 92.96875 56.472656 93.53125 56.367188 94.597656 C 58.730469 92.71875 60.191406 89.9375 61.976562 87.480469 C 63.546875 85.960938 64.648438 83.96875 66.074219 82.304688 C 65.933594 82.121094 66.167969 81.394531 66.074219 80.902344 C 66.050781 80.820312 65.984375 80.777344 65.859375 80.796875 C 64.847656 81.832031 63.851562 82.886719 63.269531 84.355469 Z M 38.464844 92.765625 C 39.042969 91.414062 40.171875 90.476562 40.945312 89.316406 C 42.066406 87.632812 43.738281 85.75 45.042969 84.03125 C 45.425781 83.527344 45.566406 82.949219 45.90625 82.519531 C 46.492188 81.789062 47.53125 80.859375 46.660156 80.039062 C 46.46875 80.457031 45.890625 80.488281 45.582031 80.796875 C 44.113281 83.960938 41.347656 85.832031 39.867188 88.992188 C 38.691406 89.609375 38.257812 90.976562 37.171875 91.6875 C 37.050781 92.40625 36.921875 93.507812 37.0625 94.167969 C 37.46875 93.636719 37.800781 93.035156 38.464844 92.765625 Z M 26.0625 79.5 C 24.953125 80.832031 23.941406 82.269531 22.613281 83.382812 C 21.207031 85.898438 18.816406 87.421875 17.652344 90.175781 C 17.433594 90.351562 17.210938 90.527344 16.898438 90.609375 C 16.9375 91.421875 16.738281 91.828125 17.003906 92.441406 C 17.703125 91.632812 18.585938 91.003906 19.054688 89.960938 C 20.757812 88.859375 21.523438 86.824219 23.152344 85.648438 C 23.703125 84.152344 25.199219 83.59375 25.632812 81.980469 C 25.992188 81.910156 26.160156 81.644531 26.496094 81.550781 C 26.699219 80.898438 26.589844 80.054688 26.386719 79.5 C 26.28125 79.5 26.171875 79.5 26.0625 79.5 Z M 16.140625 78.207031 C 16.089844 78.785156 16.363281 79.910156 16.679688 80.472656 C 17.195312 79.753906 18.148438 79.054688 18.300781 78.3125 C 17.570312 77.992188 16.816406 78.15625 16.140625 78.207031 Z M 24.660156 78.097656 C 23.394531 79.226562 22.710938 80.328125 21.535156 81.765625 C 20.925781 82.507812 20.058594 83.183594 19.484375 83.921875 C 19.105469 84.414062 18.746094 85.234375 18.191406 85.972656 C 17.367188 87.070312 16.550781 87.695312 16.898438 89.097656 C 18.859375 87.429688 20.152344 85.089844 22.074219 83.382812 C 22.90625 82.023438 24.007812 80.933594 25.09375 79.824219 C 25.199219 78.941406 26.113281 78.851562 25.957031 77.988281 C 25.402344 77.90625 25.171875 78.144531 24.660156 78.097656 Z M 16.574219 81.550781 C 16.65625 82.007812 16.707031 82.492188 16.789062 82.953125 C 18.242188 81.457031 19.546875 79.816406 20.78125 78.097656 C 20.265625 78.25 19.804688 77.789062 19.484375 78.097656 C 18.769531 79.074219 17.539062 80.464844 16.574219 81.550781 Z M 22.289062 77.988281 C 20.078125 79.664062 18.640625 82.109375 16.789062 84.136719 C 16.945312 85.015625 16.488281 85.847656 16.789062 86.507812 C 19.039062 83.621094 21.296875 80.734375 23.691406 77.988281 C 23.433594 77.863281 22.789062 78.28125 22.289062 77.988281 Z M 61.542969 83.597656 C 60.628906 83.796875 60.726562 85.007812 59.710938 85.109375 C 59.078125 86.734375 57.984375 87.445312 56.90625 88.882812 C 57.195312 89.777344 56.390625 90.234375 56.476562 91.253906 C 57.5 90.148438 58.789062 88.730469 59.820312 87.589844 C 61.351562 85.890625 62.953125 83.464844 64.457031 81.550781 C 65.460938 80.269531 66.667969 79.5 65.75 77.777344 C 64.183594 79.550781 62.550781 81.261719 61.542969 83.597656 Z M 78.691406 84.355469 C 78.691406 84.535156 78.691406 84.714844 78.691406 84.890625 C 78.375 85.042969 78.285156 85.417969 77.828125 85.433594 C 77.136719 87.140625 75.488281 87.851562 74.917969 89.746094 C 75.414062 89.789062 74.851562 90.890625 75.347656 90.933594 C 78.523438 86.847656 82.3125 83.375 85.378906 79.175781 C 85.371094 78.570312 85.4375 77.894531 85.164062 77.558594 C 82.875 79.691406 81.078125 82.320312 78.691406 84.355469 Z M 46.445312 76.589844 C 43.796875 79.976562 41.191406 83.414062 38.25 86.507812 C 38.375 87.039062 37.289062 87.589844 37.605469 88.34375 C 37.261719 88.574219 36.804688 88.695312 36.632812 89.097656 C 36.757812 89.335938 36.640625 90.164062 36.957031 90.5 C 37.570312 90.324219 38.027344 89.988281 38.140625 89.316406 C 39.144531 88.992188 39.351562 88 39.867188 87.265625 C 40.484375 86.390625 41.359375 85.660156 42.023438 84.785156 C 43.699219 82.578125 45.261719 80.390625 46.878906 78.207031 C 46.878906 77.667969 46.878906 77.128906 46.878906 76.589844 C 46.734375 76.589844 46.589844 76.589844 46.445312 76.589844 Z M 84.949219 75.078125 C 83.476562 76.015625 82.910156 77.863281 81.28125 78.640625 C 81.101562 79.574219 80.101562 79.6875 79.878906 80.578125 C 79.519531 80.652344 79.351562 80.914062 79.015625 81.011719 C 79.058594 81.269531 78.820312 81.246094 78.90625 81.550781 C 77.300781 82.855469 76.371094 84.835938 74.917969 86.296875 C 74.996094 87.03125 74.71875 87.492188 75.023438 87.914062 C 78.484375 84.253906 81.71875 80.371094 85.054688 76.589844 C 85.234375 75.867188 85.222656 75.609375 85.269531 74.757812 C 85.164062 74.757812 85.054688 74.757812 84.949219 74.757812 C 84.949219 74.863281 84.949219 74.972656 84.949219 75.078125 Z M 46.445312 73.894531 C 43.921875 76.042969 42.496094 79.289062 39.976562 81.441406 C 39.339844 82.964844 37.707031 83.488281 37.386719 85.324219 C 37.222656 85.554688 36.757812 85.488281 36.632812 85.753906 C 36.480469 86.261719 36.621094 86.796875 36.632812 87.589844 C 37.828125 86.664062 38.28125 84.992188 39.652344 84.246094 C 41.066406 81.863281 42.84375 80.261719 44.503906 78.097656 C 45.492188 76.8125 46.535156 75.457031 46.660156 74 C 46.636719 73.917969 46.574219 73.875 46.445312 73.894531 Z M 64.78125 74.433594 C 64.851562 74.824219 64.546875 74.847656 64.5625 75.1875 C 62.199219 77.675781 60.496094 80.824219 58.308594 83.488281 C 58.238281 84.136719 58.003906 84.621094 57.445312 84.785156 C 57.230469 85.921875 56.269531 86.800781 56.476562 88.453125 C 60.023438 84.699219 62.90625 80.285156 65.964844 76.050781 C 65.847656 75.234375 66.21875 73.925781 65.75 73.460938 C 65.398438 73.757812 65.292969 74.300781 64.78125 74.433594 Z M 76.320312 83.382812 C 78.003906 81.367188 80.1875 79.574219 81.925781 77.558594 C 83.429688 75.820312 85.183594 74.03125 85.054688 72.058594 C 85.03125 71.976562 84.964844 71.933594 84.839844 71.949219 C 83.601562 72.941406 82.964844 74.535156 81.496094 75.296875 C 81.683594 75.675781 81.425781 75.558594 81.386719 75.941406 C 80.191406 76.625 79.773438 78.164062 78.800781 78.53125 C 78.695312 79.324219 78.238281 79.765625 77.613281 80.039062 C 76.804688 81.882812 74.261719 82.746094 74.917969 85.109375 C 75.730469 84.75 75.777344 84.03125 76.320312 83.382812 Z M 56.476562 83.707031 C 56.421875 84.109375 56.347656 84.503906 56.367188 85.21875 C 57.464844 84.804688 57.632812 83.460938 58.523438 82.84375 C 59.914062 79.703125 62.441406 77.703125 63.917969 74.648438 C 64.507812 74.125 64.953125 73.453125 65.210938 72.597656 C 65.375 72.296875 65.9375 72.390625 65.964844 71.949219 C 65.726562 71.472656 66.105469 70.375 65.644531 70.117188 C 62.292969 74.257812 58.652344 79.027344 56.476562 83.707031 Z M 41.378906 74 C 40.738281 74.789062 39.882812 75.402344 39.222656 76.15625 C 38.667969 76.789062 38.339844 77.632812 37.820312 78.207031 C 37.347656 78.726562 36.511719 79.359375 36.957031 80.039062 C 35.980469 81.019531 36.304688 83.371094 36.847656 84.355469 C 37.246094 83.40625 38.183594 82.839844 38.789062 82.195312 C 39.992188 80.917969 41.320312 79.078125 42.347656 77.667969 C 42.726562 77.152344 43.046875 76.429688 43.425781 76.050781 C 43.578125 75.894531 43.847656 75.984375 43.964844 75.832031 C 44.042969 75.738281 43.972656 75.453125 44.074219 75.296875 C 44.824219 74.109375 47.140625 72.582031 46.339844 71.519531 C 43.558594 74.925781 40.761719 78.308594 38.035156 81.765625 C 38.109375 82.199219 37.933594 82.382812 37.925781 82.734375 C 37.5 82.742188 37.300781 82.972656 36.957031 83.058594 C 36.480469 82.398438 37.507812 81.039062 38.035156 80.363281 C 38.824219 79.355469 40.207031 78.132812 40.945312 77.453125 C 41.507812 76.066406 42.746094 75.085938 43.859375 73.675781 C 44.265625 73.160156 44.679688 72.453125 45.152344 71.84375 C 46.191406 70.503906 46.851562 69.636719 46.121094 68.175781 C 44.359375 69.859375 42.921875 72.101562 41.378906 74 Z M 65.320312 66.667969 C 65.078125 66.929688 64.859375 67.214844 64.78125 67.636719 C 63.175781 68.910156 62.347656 70.957031 60.898438 72.382812 C 60.976562 72.824219 60.550781 72.753906 60.683594 73.246094 C 59.414062 74.496094 58.253906 75.851562 57.554688 77.667969 C 56.546875 78.386719 55.691406 80.394531 56.582031 81.765625 C 58.886719 78.238281 61.425781 74.84375 63.917969 71.304688 C 64.964844 69.816406 66.203125 68.605469 65.644531 66.667969 C 65.597656 66.851562 65.503906 66.644531 65.320312 66.667969 Z M 84.515625 64.835938 C 82.738281 66.148438 81.753906 68.257812 80.09375 69.6875 C 80.09375 69.828125 80.09375 69.972656 80.09375 70.117188 C 79.824219 70.101562 79.761719 70.289062 79.554688 70.332031 C 79.003906 71.535156 77.914062 72.511719 76.964844 73.675781 C 76.304688 74.488281 74.6875 76.269531 74.488281 77.234375 C 74.183594 78.703125 74.984375 80.644531 74.808594 82.304688 C 78.0625 79.480469 80.292969 75.636719 83.4375 72.707031 C 83.917969 71.503906 85.355469 70.777344 84.839844 68.929688 C 83.019531 70.046875 82.300781 72.265625 80.847656 73.246094 C 80.984375 73.90625 80.21875 74.265625 79.878906 74.757812 C 79.320312 75.558594 78.96875 76.625 78.152344 77.128906 C 78.070312 77.691406 77.324219 78.527344 76.75 78.960938 C 76.328125 79.617188 76.289062 80.65625 75.347656 80.796875 C 75.035156 79.988281 75.957031 79.089844 76.640625 78.207031 C 79.375 74.695312 82.453125 70.773438 84.730469 67.3125 C 84.792969 66.339844 84.835938 65.652344 84.839844 64.835938 C 84.730469 64.835938 84.625 64.835938 84.515625 64.835938 Z M 37.28125 76.050781 C 37.070312 76.238281 36.734375 76.292969 36.523438 76.480469 C 36.410156 77.058594 36.375 77.640625 36.632812 78.097656 C 37.464844 77.609375 37.945312 76.738281 38.574219 76.050781 C 41.359375 72.988281 43.914062 69.71875 46.339844 66.34375 C 46.105469 65.292969 46.585938 64.644531 46.121094 63.972656 C 43.226562 68.050781 39.59375 71.390625 37.28125 76.050781 Z M 62.839844 66.558594 C 62.742188 66.714844 62.835938 66.96875 62.730469 67.101562 C 62.582031 67.28125 62.222656 67.304688 62.085938 67.53125 C 61.953125 67.738281 62.035156 68.078125 61.867188 68.285156 C 61.820312 68.34375 61.5 68.339844 61.4375 68.394531 C 60.90625 68.859375 60.878906 69.679688 60.464844 70.226562 C 60.359375 70.367188 60.050781 70.3125 59.925781 70.441406 C 59.734375 70.640625 59.75 71.109375 59.601562 71.304688 C 59.324219 71.683594 58.890625 71.757812 58.742188 72.058594 C 58.65625 72.226562 58.742188 72.523438 58.632812 72.707031 C 58.605469 72.75 58.332031 72.660156 58.308594 72.707031 C 58.148438 73.015625 58.296875 73.359375 58.09375 73.570312 C 58.003906 73.664062 57.542969 73.261719 57.769531 73.675781 C 57.566406 75.109375 55.648438 76.253906 56.152344 78.097656 C 56.683594 77.804688 56.972656 77.265625 57.339844 76.804688 C 57.945312 75.714844 58.589844 74.855469 59.386719 73.785156 C 60.796875 71.90625 62.085938 70.148438 63.484375 68.285156 C 64.644531 66.738281 66.109375 65.355469 65.535156 63.21875 C 65.425781 63.21875 65.320312 63.21875 65.210938 63.21875 C 64.703125 64.585938 63.519531 65.46875 62.839844 66.558594 Z M 45.582031 61.597656 C 42.171875 65.054688 39.25 69 36.308594 72.921875 C 36.609375 73.773438 36.21875 74.199219 36.523438 74.972656 C 38.371094 73.367188 39.296875 70.839844 41.269531 69.363281 C 41.457031 68.742188 41.976562 67.9375 42.457031 67.960938 C 42.265625 67.582031 42.527344 67.695312 42.566406 67.3125 C 43.914062 65.570312 45.570312 64.136719 46.230469 61.707031 C 46.105469 61.582031 45.847656 61.585938 45.582031 61.597656 Z M 36.308594 61.816406 C 36.242188 62.773438 36.054688 63.570312 36.417969 64.292969 C 36.953125 63.320312 37.835938 62.695312 38.359375 61.707031 C 37.917969 61.648438 36.886719 61.503906 36.308594 61.816406 Z M 41.917969 62.03125 C 40.972656 63.265625 39.867188 64.820312 38.898438 66.019531 C 38.648438 66.328125 38.132812 66.519531 37.925781 66.882812 C 37.867188 66.984375 37.996094 67.21875 37.925781 67.3125 C 36.996094 68.605469 35.941406 69.570312 36.523438 71.195312 C 37.757812 70.308594 38.429688 68.863281 39.328125 67.636719 C 41.097656 65.703125 43.140625 63.46875 44.398438 61.382812 C 43.285156 61.019531 42.59375 61.640625 41.917969 62.03125 Z M 36.308594 65.371094 C 36.074219 66.292969 36.46875 66.785156 36.417969 67.746094 C 38.171875 65.691406 39.910156 63.617188 41.484375 61.382812 C 38.425781 60.960938 38.105469 64.175781 36.308594 65.371094 Z M 75.023438 72.921875 C 75.007812 73.945312 74.191406 74.175781 74.488281 75.511719 C 76.4375 73.832031 77.648438 71.410156 79.664062 69.792969 C 80.878906 67.5625 82.644531 65.875 83.976562 63.753906 C 84.316406 63.808594 84.355469 63.5625 84.730469 63.648438 C 84.726562 62.644531 84.6875 61.675781 84.515625 60.84375 C 81.3125 64.828125 77.960938 68.667969 75.023438 72.921875 Z M 65.210938 59.335938 C 64.367188 60.160156 63.777344 61.191406 63.054688 62.246094 C 62.804688 62.609375 62.484375 62.925781 62.191406 63.324219 C 61.910156 63.707031 61.804688 64.28125 61.542969 64.617188 C 61.449219 64.742188 61.113281 64.710938 61.007812 64.835938 C 60.785156 65.082031 60.863281 65.414062 60.683594 65.695312 C 60.023438 66.722656 58.84375 67.679688 58.632812 68.929688 C 57.21875 69.601562 57.503906 71.972656 55.828125 72.382812 C 56.003906 73.273438 55.992188 73.921875 56.046875 74.757812 C 57.28125 74.066406 57.726562 72.605469 58.523438 71.519531 C 59.324219 70.4375 60.390625 69.480469 60.898438 68.175781 C 61.492188 67.691406 61.96875 67.089844 62.300781 66.34375 C 62.769531 65.933594 63.371094 65.386719 63.808594 64.726562 C 64.804688 63.21875 65.957031 61.613281 65.535156 59.335938 C 65.425781 59.335938 65.320312 59.335938 65.210938 59.335938 Z M 77.289062 66.34375 C 76.582031 67.976562 75.398438 69.125 74.488281 70.550781 C 74.667969 70.9375 74.332031 71.933594 74.488281 72.277344 C 77.359375 69.035156 79.675781 65.246094 82.789062 62.246094 C 83.226562 60.640625 85.199219 59.441406 84.515625 57.714844 C 82.023438 60.507812 80.117188 63.886719 77.289062 66.34375 Z M 62.191406 59.980469 C 61.589844 60.605469 60.90625 61.339844 60.789062 62.246094 C 60.125 62.636719 59.460938 63.558594 59.496094 64.292969 C 57.910156 65.296875 57.261719 67.316406 56.152344 68.5 C 56.179688 69.105469 56.140625 69.359375 56.261719 69.6875 C 55.808594 69.992188 55.65625 70.59375 55.722656 71.414062 C 57.332031 70.4375 57.761719 68.277344 59.171875 67.101562 C 61.121094 63.871094 63.417969 60.992188 65.535156 57.933594 C 65.457031 57.191406 65.53125 56.589844 65.425781 55.992188 C 65.40625 55.867188 65.308594 55.824219 65.210938 55.773438 C 64.242188 57.214844 62.648438 58.03125 62.191406 59.980469 Z M 79.664062 60.304688 C 78.488281 62.292969 76.859375 64.765625 75.132812 66.558594 C 74.984375 66.886719 75.183594 66.945312 75.132812 67.421875 C 74.730469 67.414062 74.449219 67.53125 74.164062 67.636719 C 74.1875 68.222656 74.335938 68.6875 74.269531 69.363281 C 75.121094 69.121094 75.050781 68.429688 75.457031 67.855469 C 76.449219 66.445312 77.960938 65.183594 79.230469 63.539062 C 80.167969 62.324219 81.0625 61.101562 82.035156 59.875 C 83.195312 58.40625 85.289062 56.027344 84.300781 54.480469 C 82.785156 56.453125 81.484375 58.640625 79.664062 60.304688 Z M 58.308594 61.597656 C 58.234375 61.929688 58.234375 61.808594 58.308594 62.136719 C 57.789062 62.445312 57.515625 63 57.445312 63.753906 C 57.183594 63.484375 57.207031 63.972656 57.121094 64.183594 C 57 64.277344 56.832031 64.328125 56.582031 64.292969 C 56.605469 65.882812 55.191406 66.617188 55.722656 68.070312 C 59.25 63.761719 62.085938 58.757812 65.320312 54.15625 C 64.941406 53.601562 65.289062 52.367188 64.886719 52.109375 C 62.523438 55.101562 60.75 58.679688 58.308594 61.597656 Z M 82.789062 52.648438 C 82.445312 53.46875 81.742188 54.09375 81.28125 54.695312 C 81.167969 54.84375 81.027344 55.269531 80.957031 55.34375 C 80.910156 55.390625 80.671875 55.289062 80.632812 55.34375 C 80.429688 55.625 80.386719 56.054688 80.203125 56.316406 C 79.34375 57.519531 78.320312 58.589844 77.503906 59.765625 C 76.496094 61.21875 75.273438 62.425781 74.59375 64.078125 C 74.34375 64.191406 74.097656 64.300781 73.945312 64.511719 C 74.179688 65.03125 73.832031 66.136719 74.269531 66.453125 C 75.726562 65.230469 76.605469 63.546875 77.722656 62.03125 C 79.929688 59.027344 82.457031 56.273438 84.40625 53.078125 C 84.40625 52.503906 84.40625 51.929688 84.40625 51.351562 C 84.21875 51.414062 83.773438 51.222656 83.757812 51.460938 C 83.945312 51.9375 83.226562 52.4375 82.789062 52.648438 Z M 55.722656 62.246094 C 55.695312 63.257812 55.472656 63.765625 55.613281 64.726562 C 56.894531 63.492188 57.820312 61.898438 58.632812 60.199219 C 59.476562 59.714844 59.628906 58.777344 60.25 57.933594 C 60.59375 57.464844 61.011719 57.09375 61.328125 56.636719 C 61.6875 56.125 61.84375 55.617188 62.191406 55.019531 C 63.085938 53.484375 65.359375 51.265625 64.671875 49.519531 C 61.144531 53.203125 58.4375 58.089844 55.722656 62.246094 Z M 62.730469 48.871094 C 60.425781 52.101562 57.519531 54.734375 56.152344 58.902344 C 55.8125 59.101562 55.585938 59.414062 55.398438 59.765625 C 55.398438 60.234375 55.398438 60.699219 55.398438 61.167969 C 56.214844 61.144531 56.566406 59.757812 57.230469 59.226562 C 59.105469 55.3125 62.136719 52.554688 64.023438 48.65625 C 63.445312 48.582031 63.140625 48.78125 62.730469 48.871094 Z M 60.359375 48.441406 C 59.140625 49.707031 57.605469 50.648438 57.230469 52.753906 C 56.195312 53.066406 56.636719 54.621094 55.398438 54.914062 C 55.738281 55.648438 55.195312 56.867188 55.398438 57.933594 C 56.28125 57.71875 56.367188 56.613281 56.800781 55.992188 C 57.359375 55.179688 57.902344 54.546875 58.523438 53.617188 C 58.90625 53.046875 59.210938 52.3125 59.601562 51.890625 C 59.652344 51.84375 59.796875 52.03125 59.820312 52 C 60.585938 50.929688 61.152344 49.738281 61.976562 48.65625 C 61.457031 48.226562 60.738281 48.636719 60.359375 48.441406 Z M 57.988281 48.226562 C 57.242188 50.183594 54.65625 51.429688 55.398438 54.15625 C 56.609375 52.277344 58.085938 50.089844 59.0625 48.332031 C 58.585938 48.417969 58.417969 48.191406 57.988281 48.226562 Z M 55.398438 48.226562 C 55.269531 49.195312 55.019531 50.464844 55.398438 51.136719 C 55.941406 50.0625 56.859375 49.363281 57.339844 48.226562 C 56.847656 48.214844 56.230469 48.34375 55.398438 48.226562 Z M 79.015625 54.371094 C 77.484375 56.59375 75.71875 58.691406 74.488281 60.84375 C 74.410156 60.980469 74.546875 61.238281 74.488281 61.382812 C 74.300781 61.8125 73.996094 61.855469 73.945312 62.136719 C 73.894531 62.433594 74.152344 62.871094 73.945312 63.109375 C 77.59375 58.882812 80.738281 54.152344 84.40625 49.953125 C 84.199219 49.304688 84.539062 48.460938 84.082031 47.902344 C 82.542969 49.9375 80.6875 51.953125 79.015625 54.371094 Z M 76.859375 56.53125 C 76.925781 56.433594 76.796875 56.203125 76.859375 56.097656 C 77.003906 55.859375 77.335938 55.796875 77.503906 55.558594 C 78.332031 54.417969 79.125 52.949219 79.984375 51.785156 C 80.9375 50.496094 82.175781 49.457031 83.003906 48.332031 C 83.742188 47.335938 84.8125 45.988281 84.082031 44.882812 C 82.855469 45.84375 82.265625 47.449219 80.957031 48.332031 C 80.492188 49.632812 79.675781 50.574219 78.800781 51.460938 C 78.160156 53.050781 76.878906 54 76.320312 55.667969 C 75.972656 55.707031 75.949219 56.429688 75.5625 56.097656 C 75.121094 57.613281 73.296875 58.914062 73.839844 60.410156 C 74.726562 59.128906 75.867188 57.894531 76.859375 56.53125 Z M 83.652344 41.863281 C 80.453125 45.347656 77.921875 49.503906 74.917969 53.1875 C 75.046875 53.785156 74.609375 53.8125 74.59375 54.265625 C 74.363281 54.429688 74.113281 54.578125 73.839844 54.695312 C 73.914062 55.519531 73.648438 56.683594 74.054688 57.175781 C 76.863281 54.195312 78.605469 50.152344 81.496094 47.253906 C 81.980469 45.300781 84.957031 44.007812 83.867188 41.863281 C 83.796875 41.863281 83.722656 41.863281 83.652344 41.863281 Z M 83.652344 38.304688 C 83.636719 38.429688 83.480469 38.421875 83.328125 38.410156 C 82.195312 40.046875 80.753906 41.945312 79.664062 43.804688 C 78.707031 45.429688 77.136719 46.429688 76.210938 47.796875 C 75.875 48.292969 75.632812 49.128906 75.132812 49.84375 C 74.308594 51.015625 73.285156 51.640625 73.839844 53.292969 C 74.796875 52.960938 74.835938 51.703125 75.78125 51.351562 C 76.636719 48.972656 78.746094 47.851562 79.664062 45.53125 C 81.242188 43.875 82.566406 41.960938 83.976562 40.136719 C 84.007812 39.671875 83.824219 38.832031 83.976562 38.304688 C 83.867188 38.304688 83.757812 38.304688 83.652344 38.304688 Z M 77.074219 36.6875 C 75.824219 38.527344 74.371094 40.164062 73.40625 42.292969 C 73.8125 42.539062 73.367188 43.628906 73.839844 43.804688 C 75.269531 41.785156 76.472656 39.535156 78.261719 37.875 C 78.191406 37.335938 78.589844 37.265625 78.585938 36.792969 C 78.210938 36.628906 77.601562 36.699219 77.074219 36.6875 Z M 73.839844 36.902344 C 73.601562 38.027344 73.371094 38.835938 73.625 40.136719 C 74.644531 39.109375 75.453125 37.871094 76.425781 36.792969 C 75.460938 36.769531 74.695312 36.511719 73.839844 36.902344 Z M 81.710938 37.011719 C 81.804688 37.605469 81.316406 37.621094 81.28125 38.085938 C 78.570312 40.589844 76.980469 44.214844 74.703125 47.148438 C 74.742188 47.535156 74.992188 47.542969 74.808594 47.902344 C 74.546875 48.070312 74.347656 48.304688 73.839844 48.226562 C 73.582031 48.757812 73.621094 49.535156 73.730469 50.058594 C 74.117188 49.941406 74.15625 49.480469 74.59375 49.414062 C 77.46875 44.988281 81.011719 41.234375 83.652344 36.578125 C 82.921875 35.921875 82.445312 36.992188 81.710938 37.011719 Z M 80.308594 36.257812 C 78.015625 38.859375 75.78125 41.488281 74.269531 45.097656 C 73.695312 45.28125 73.550781 45.890625 73.40625 46.5 C 73.550781 46.570312 73.609375 46.730469 73.625 46.933594 C 76.488281 43.71875 78.679688 39.835938 81.386719 36.472656 C 80.863281 36.566406 80.671875 36.324219 80.308594 36.257812 Z M 16.679688 116.167969 C 16.351562 116.066406 16.34375 115.644531 15.925781 115.628906 C 14.867188 115.695312 13.871094 115.546875 12.90625 115.519531 C 9.753906 115.4375 6.652344 115.789062 3.847656 115.195312 C 4.171875 115.015625 4.835938 114.917969 5.25 114.550781 C 9.148438 114.78125 12 114.886719 16.035156 114.765625 C 16.730469 113.152344 16.222656 111.460938 16.464844 109.589844 C 16.347656 109.3125 16.265625 109 16.035156 108.832031 C 16.472656 108.144531 16.632812 106.882812 16.035156 106.246094 C 15.933594 105.679688 16.398438 105.675781 16.464844 105.273438 C 16.535156 102.34375 16.039062 99.039062 16.035156 96.324219 C 16.027344 93.523438 16.328125 90.328125 15.710938 87.480469 C 16.027344 85.011719 16.167969 82.613281 15.820312 80.363281 C 15.664062 79.371094 14.902344 78.128906 16.035156 77.234375 C 17.917969 76.917969 20.992188 77.203125 23.476562 77.019531 C 24.59375 76.9375 25.929688 76.457031 26.820312 76.914062 C 27.351562 80.019531 27.367188 83.617188 27.25 86.1875 C 27.539062 86.4375 27.589844 86.929688 28.003906 87.050781 C 27.894531 87.40625 27.707031 87.683594 27.25 87.695312 C 27.664062 89.871094 27.644531 92.046875 27.574219 94.707031 C 27.53125 96.363281 27.949219 98.054688 27.898438 99.453125 C 27.878906 99.898438 27.589844 100.300781 27.574219 100.746094 C 27.558594 101.234375 27.765625 102.207031 27.789062 102.6875 C 27.808594 103.058594 27.625 104.214844 27.679688 104.84375 C 27.707031 105.144531 27.886719 105.414062 27.898438 105.707031 C 28.03125 108.882812 27.539062 112.511719 28.328125 115.089844 C 30.9375 115.3125 33.84375 114.972656 36.308594 114.875 C 36.613281 113.234375 36.644531 110.71875 36.203125 109.480469 C 36.726562 108.300781 36.523438 107.09375 36.523438 105.707031 C 36.53125 101.683594 36.324219 97.34375 36.308594 93.199219 C 36.394531 92.753906 35.792969 92.996094 35.878906 92.550781 C 36.414062 90.652344 35.691406 88.039062 35.878906 85.542969 C 35.925781 84.917969 35.722656 84.21875 35.664062 83.488281 C 35.539062 81.980469 36.082031 81.011719 35.339844 80.148438 C 35.5 79.804688 35.683594 79.488281 35.878906 79.175781 C 35.605469 76.484375 35.789062 73.253906 35.769531 70.117188 C 35.679688 69.742188 35.277344 69.675781 35.230469 69.253906 C 35.40625 69.070312 35.445312 68.75 35.664062 68.609375 C 35.566406 65.53125 35.421875 63.53125 35.445312 60.84375 C 38.074219 60.597656 40.953125 60.292969 43.640625 60.304688 C 44.824219 60.308594 46.230469 60.457031 47.203125 60.734375 C 47.410156 61.183594 46.9375 61.898438 47.523438 62.246094 C 46.773438 63.996094 47.152344 66.753906 47.09375 68.929688 C 47.144531 69.386719 47.757812 69.273438 47.847656 69.6875 C 47.773438 70.152344 47.34375 70.257812 47.203125 70.65625 C 47.128906 71.984375 47.660156 73.359375 47.308594 74.648438 C 47.492188 74.75 47.527344 75.003906 47.742188 75.078125 C 47.796875 78.730469 47.234375 81.539062 48.0625 84.679688 C 48.105469 85.078125 47.628906 84.960938 47.742188 85.433594 C 48.039062 88.820312 48.074219 90.359375 48.386719 93.199219 C 47.746094 95.765625 48.148438 99.671875 48.0625 102.578125 C 47.9375 107 47.515625 110.925781 48.0625 115.089844 C 51.089844 115.410156 52.425781 115.136719 55.613281 115.304688 C 56.113281 111.46875 56.085938 108.328125 55.828125 104.304688 C 55.945312 103.902344 55.425781 104.136719 55.503906 103.765625 C 55.671875 102.664062 55.808594 100.664062 55.398438 99.777344 C 55.820312 98.796875 55.898438 97.101562 55.289062 96.433594 C 55.535156 95.699219 55.789062 95.363281 55.722656 94.492188 C 55.683594 93.996094 55.273438 93.339844 55.289062 93.089844 C 55.300781 92.902344 55.664062 92.636719 55.722656 92.441406 C 55.875 91.917969 55.667969 90.945312 55.613281 89.960938 C 55.546875 88.765625 55.882812 87.914062 55.398438 87.15625 C 56.144531 81.597656 54.761719 74.570312 55.074219 69.148438 C 55.007812 63.476562 54.046875 57.15625 54.425781 49.953125 C 54.464844 49.242188 54.714844 48.460938 54.320312 47.796875 C 55.191406 47.25 56.394531 47.230469 57.445312 47.253906 C 59.769531 47.304688 61.773438 47.496094 63.917969 47.796875 C 64.429688 47.628906 64.957031 47.382812 65.535156 47.578125 C 66.25 48.109375 65.65625 49 65.644531 49.84375 C 65.636719 50.089844 65.925781 50.234375 65.964844 50.492188 C 66.164062 51.792969 65.570312 53.398438 66.289062 54.371094 C 66.332031 54.738281 66.101562 54.832031 65.964844 55.019531 C 66.484375 56.214844 66.167969 58.828125 66.289062 60.628906 C 66.339844 60.902344 66.5 61.066406 66.71875 61.167969 C 66.65625 61.496094 66.492188 61.730469 66.398438 62.03125 C 66.570312 63.316406 66.121094 64.40625 66.613281 65.265625 C 66.664062 70.785156 66.773438 76.265625 66.828125 81.980469 C 66.835938 82.589844 67.113281 83.164062 67.152344 83.816406 C 67.222656 84.914062 67.132812 86.28125 67.152344 87.15625 C 67.183594 88.410156 66.984375 89.703125 67.046875 90.933594 C 67.066406 91.394531 67.359375 91.789062 67.367188 92.226562 C 67.382812 92.902344 67.144531 93.566406 67.152344 94.273438 C 67.191406 97.835938 67.15625 101.328125 67.261719 104.738281 C 67.28125 105.417969 67.457031 106.167969 67.367188 106.785156 C 67.335938 107.023438 67.15625 107.21875 67.152344 107 C 67.167969 107.730469 67.53125 108.453125 67.582031 109.15625 C 67.746094 111.371094 67.195312 113.519531 67.691406 115.734375 C 70.0625 115.707031 73.082031 116.054688 74.808594 115.734375 C 75.382812 107.464844 74.398438 100.074219 74.269531 92.226562 C 74.257812 91.527344 74.621094 91.042969 74.378906 90.394531 C 74.265625 90.183594 73.757812 90.367188 73.730469 90.070312 C 74.019531 89.257812 74.339844 89.128906 74.164062 87.914062 C 74.171875 87.542969 73.507812 87.851562 73.515625 87.480469 C 73.722656 86.429688 74.640625 85.34375 73.839844 84.136719 C 74.300781 82.078125 73.753906 80.128906 73.839844 77.882812 C 73.953125 77.410156 73.472656 77.527344 73.515625 77.128906 C 74.058594 75.40625 73.351562 73.375 73.625 71.84375 C 73.707031 71.4375 73.339844 71.476562 73.191406 71.304688 C 73.347656 70.996094 73.335938 70.515625 73.625 70.332031 C 73.203125 67.089844 73.261719 63.933594 73.082031 60.734375 C 72.90625 57.53125 73.507812 54.199219 72.761719 51.679688 C 73.210938 48.875 72.621094 45.960938 72.867188 43.050781 C 72.816406 42.632812 72.382812 42.597656 72.113281 42.402344 C 72.105469 41.675781 72.667969 41.515625 72.867188 41 C 72.726562 39.542969 73.023438 37.96875 72.761719 36.472656 C 73.75 35.777344 75.023438 35.988281 76.320312 35.933594 C 79.148438 35.804688 82.292969 35.1875 84.839844 35.609375 C 84.226562 40.597656 85.597656 47.691406 84.949219 52.324219 C 85.855469 57.117188 85.027344 62.835938 85.703125 67.421875 C 85.210938 67.972656 85.929688 69.136719 85.378906 69.6875 C 85.796875 70.53125 85.890625 71.78125 85.808594 73.03125 C 85.835938 73.21875 85.996094 73.277344 86.242188 73.246094 C 85.535156 75.847656 86.382812 78.3125 86.023438 81.660156 C 86.234375 81.878906 86.289062 82.257812 86.457031 82.519531 C 86.269531 84.941406 86.625 87.492188 86.671875 90.609375 C 86.683594 91.398438 86.425781 92.214844 86.457031 92.980469 C 86.488281 93.820312 86.78125 94.632812 86.78125 95.460938 C 86.78125 96.199219 86.625 97.109375 86.671875 97.941406 C 86.703125 98.472656 86.949219 99.011719 86.890625 99.453125 C 86.882812 99.496094 86.566406 99.808594 86.5625 99.882812 C 86.5625 100.085938 86.867188 100.371094 86.890625 100.53125 C 86.925781 100.839844 86.675781 101.273438 86.671875 101.609375 C 86.667969 102.320312 86.914062 102.988281 86.890625 103.550781 C 86.707031 107.652344 86.621094 111.3125 86.671875 115.414062 C 91.089844 116.070312 96.035156 115.710938 100.046875 115.628906 C 100.789062 115.613281 101.140625 115.277344 101.664062 115.734375 C 101.363281 116.800781 100.359375 116.382812 99.074219 116.382812 C 97.863281 116.382812 96.402344 116.753906 95.40625 116.707031 C 94.433594 116.660156 93.59375 116.390625 92.605469 116.277344 C 90.761719 116.574219 88.75 116.222656 86.890625 116.277344 C 86.394531 116.488281 86.832031 116.984375 86.347656 117.136719 C 85.898438 117.085938 85.664062 116.820312 85.703125 116.277344 C 82.539062 116.214844 79.363281 116.328125 75.886719 116.382812 C 75.570312 116.425781 75.675781 116.890625 75.457031 117.03125 C 75.058594 117.03125 75.042969 116.652344 74.808594 116.492188 C 71.839844 116.609375 67.417969 116.636719 64.242188 116.277344 C 63.929688 116.289062 64.054688 116.734375 63.703125 116.707031 C 63.5 115.992188 62.019531 116.414062 61.652344 116.167969 C 61.230469 116.214844 61.445312 116.894531 60.898438 116.8125 C 60.304688 116.703125 61.109375 116.472656 61.113281 116.277344 C 59.613281 116.191406 57.5625 115.578125 56.152344 116.382812 C 54.421875 115.671875 53.003906 115.980469 51.191406 115.953125 C 49.914062 115.933594 48.460938 115.75 47.632812 116.167969 C 46.449219 115.351562 44.785156 115.953125 43.535156 115.734375 C 43.40625 115.714844 43.152344 115.425781 42.996094 115.414062 C 42.351562 115.351562 41.546875 115.726562 40.730469 115.628906 C 40.386719 115.585938 39.832031 115.359375 38.898438 115.519531 C 38.457031 115.621094 38.328125 116.027344 37.820312 116.058594 C 37.628906 115.839844 37.898438 115.847656 37.710938 115.628906 C 36.589844 115.648438 35.445312 115.75 34.261719 115.84375 C 32.285156 116 29.519531 116.199219 27.574219 115.953125 C 26.351562 115.796875 25.351562 115.140625 24.125 115.953125 C 24.125 115.734375 24.125 115.519531 24.125 115.304688 C 23.863281 115.628906 23.523438 115.144531 23.152344 115.195312 C 22.90625 115.234375 22.769531 115.496094 22.503906 115.519531 C 21.339844 115.640625 19.253906 115.863281 18.191406 115.628906 C 17.90625 115.566406 16.910156 115.710938 16.679688 116.167969 "/></g><path style=" stroke:none;fill-rule:nonzero;fill:#ffffff;fill-opacity:1;" d="M 79.339844 15.011719 C 77.722656 17.601562 76.109375 20.191406 74.808594 23.097656 C 74.550781 23.308594 74.390625 23.617188 74.054688 23.746094 C 73.289062 25.960938 71.542969 27.199219 70.710938 29.355469 C 70.441406 29.335938 70.375 29.523438 70.171875 29.570312 C 70.164062 30.207031 69.769531 30.460938 69.742188 31.082031 C 69.300781 31.03125 69.304688 31.433594 68.769531 31.292969 C 68.652344 29.929688 68.46875 28.890625 68.445312 27.199219 C 66.605469 28.71875 65.117188 30.648438 63.378906 32.375 C 62.292969 33.449219 61.109375 34.417969 60.035156 35.5 C 55.726562 39.832031 51.121094 44.394531 46.230469 48.011719 C 45.019531 49.566406 43.394531 50.710938 42.132812 52.214844 C 41.90625 52.277344 41.785156 52.523438 41.59375 52.324219 C 40.621094 53.609375 39.25 54.519531 38.035156 55.558594 C 36.808594 56.609375 35.761719 57.820312 34.582031 58.902344 C 33.585938 59.820312 32.261719 60.429688 31.132812 61.273438 C 30.058594 62.078125 29.226562 63.238281 28.21875 64.082031 C 26.304688 65.679688 24.199219 67.09375 22.289062 68.71875 C 22.175781 68.472656 22.042969 68.242188 21.859375 68.070312 C 24.429688 66.109375 26.839844 64.21875 29.191406 62.03125 C 32.121094 59.308594 35.574219 57.484375 38.140625 54.371094 C 41.707031 51.832031 44.777344 48.667969 48.0625 45.746094 C 48.605469 45.265625 49.25 44.925781 49.789062 44.453125 C 50.648438 43.695312 51.28125 42.691406 52.160156 41.972656 C 53.222656 41.101562 54.367188 40.347656 55.398438 39.382812 C 58.261719 36.707031 61.109375 33.660156 64.023438 30.863281 C 65.480469 29.46875 66.859375 27.976562 68.015625 26.335938 C 66.828125 25.664062 65.75 26.878906 64.886719 26.117188 C 64.695312 25.089844 65.734375 25 66.289062 24.714844 C 66.953125 24.378906 67.519531 23.773438 68.230469 23.636719 C 68.308594 23.214844 68.867188 23.265625 68.878906 22.777344 C 71.347656 21.703125 73.953125 18.972656 75.996094 16.84375 C 76.8125 15.996094 78.328125 13.523438 79.339844 15.011719 "/><path style=" stroke:none;fill-rule:nonzero;fill:#ffffff;fill-opacity:1;" d="M 21.644531 68.175781 C 21.953125 68.222656 21.898438 68.640625 22.183594 68.71875 C 20.609375 70.449219 18.015625 71.164062 16.464844 72.921875 C 13.417969 74.261719 11.144531 76.371094 7.515625 77.128906 C 7.621094 76.261719 8.472656 76.144531 9.238281 75.941406 C 12.953125 73.832031 16.8125 71.867188 20.023438 69.253906 C 20.820312 69.152344 21.199219 68.632812 21.644531 68.175781 "/><g style="fill:#ffffff;fill-opacity:1;"><g transform="translate(90.715483, 87.27027)"><path style="stroke:none" d="M 37.671875 0 L 7.046875 0 L 7.046875 -39.84375 L 22.5625 -39.84375 C 25.875 -39.84375 28.582031 -39.253906 30.6875 -38.078125 C 32.75 -36.929688 34.351562 -35.363281 35.5 -33.375 C 36.644531 -31.394531 37.21875 -29.203125 37.21875 -26.796875 C 37.21875 -23.816406 36.300781 -21.148438 34.46875 -18.796875 C 32.632812 -16.453125 30.320312 -14.898438 27.53125 -14.140625 Z M 10.65625 -37.734375 L 26.21875 -15.96875 C 28.78125 -16.507812 30.898438 -17.789062 32.578125 -19.8125 C 34.253906 -21.832031 35.09375 -24.160156 35.09375 -26.796875 C 35.09375 -28.890625 34.578125 -30.796875 33.546875 -32.515625 C 32.515625 -34.234375 31.066406 -35.550781 29.203125 -36.46875 C 27.515625 -37.3125 25.316406 -37.734375 22.609375 -37.734375 Z M 9.15625 -36.359375 L 9.15625 -15.796875 L 23.875 -15.796875 Z M 9.15625 -2.125 L 33.65625 -2.125 L 25.296875 -13.734375 L 23.53125 -13.6875 L 9.15625 -13.6875 Z M 9.15625 -2.125 "/></g></g><g style="fill:#ffffff;fill-opacity:1;"><g transform="translate(130.669075, 87.27027)"><path style="stroke:none" d="M 6.875 -39.84375 L 35.890625 -39.84375 L 35.890625 -29.765625 L 17.296875 -29.765625 L 17.296875 -24.734375 L 32.75 -24.734375 L 32.75 -15.171875 L 17.296875 -15.171875 L 17.296875 -10.078125 L 35.890625 -10.078125 L 35.890625 0 L 6.875 0 Z M 6.875 -39.84375 "/></g></g><g style="fill:#ffffff;fill-opacity:1;"><g transform="translate(170.622666, 87.27027)"><path style="stroke:none" d="M 20.890625 -38.59375 C 18.335938 -38.59375 15.960938 -37.953125 13.765625 -36.671875 C 11.578125 -35.390625 9.832031 -33.648438 8.53125 -31.453125 C 7.226562 -29.265625 6.578125 -26.875 6.578125 -24.28125 L 6.578125 -16.71875 C 6.578125 -14.007812 6.960938 -11.773438 7.734375 -10.015625 C 8.796875 -7.535156 10.414062 -5.515625 12.59375 -3.953125 C 14.769531 -2.390625 17.210938 -1.507812 19.921875 -1.3125 L 19.921875 -19.921875 L 37.390625 -19.921875 L 37.390625 -16.140625 C 37.390625 -13.703125 37.023438 -11.53125 36.296875 -9.625 C 35.109375 -6.445312 33.117188 -3.90625 30.328125 -2 C 27.546875 -0.09375 24.398438 0.859375 20.890625 0.859375 C 17.578125 0.859375 14.554688 -0.046875 11.828125 -1.859375 C 9.097656 -3.671875 7.101562 -6.085938 5.84375 -9.109375 C 4.925781 -11.242188 4.46875 -13.78125 4.46875 -16.71875 L 4.46875 -24.28125 C 4.46875 -27.25 5.203125 -29.992188 6.671875 -32.515625 C 8.140625 -35.035156 10.132812 -37.03125 12.65625 -38.5 C 15.175781 -39.96875 17.921875 -40.703125 20.890625 -40.703125 C 23.378906 -40.703125 25.648438 -40.289062 27.703125 -39.46875 C 29.765625 -38.65625 31.519531 -37.460938 32.96875 -35.890625 C 34.15625 -34.597656 35.117188 -33.148438 35.859375 -31.546875 C 36.609375 -29.941406 36.984375 -28.316406 36.984375 -26.671875 L 34.921875 -26.671875 C 34.878906 -28.085938 34.523438 -29.484375 33.859375 -30.859375 C 33.191406 -32.234375 32.34375 -33.472656 31.3125 -34.578125 C 28.757812 -37.253906 25.285156 -38.59375 20.890625 -38.59375 Z M 35.265625 -17.859375 L 21.984375 -17.859375 L 21.984375 -1.3125 C 24.734375 -1.507812 27.203125 -2.378906 29.390625 -3.921875 C 31.585938 -5.460938 33.203125 -7.515625 34.234375 -10.078125 C 34.921875 -11.867188 35.265625 -13.890625 35.265625 -16.140625 Z M 35.265625 -17.859375 "/></g></g><g style="fill:#ffffff;fill-opacity:1;"><g transform="translate(210.576258, 87.27027)"><path style="stroke:none" d="M 37.671875 0 L 7.046875 0 L 7.046875 -39.84375 L 22.5625 -39.84375 C 25.875 -39.84375 28.582031 -39.253906 30.6875 -38.078125 C 32.75 -36.929688 34.351562 -35.363281 35.5 -33.375 C 36.644531 -31.394531 37.21875 -29.203125 37.21875 -26.796875 C 37.21875 -23.816406 36.300781 -21.148438 34.46875 -18.796875 C 32.632812 -16.453125 30.320312 -14.898438 27.53125 -14.140625 Z M 10.65625 -37.734375 L 26.21875 -15.96875 C 28.78125 -16.507812 30.898438 -17.789062 32.578125 -19.8125 C 34.253906 -21.832031 35.09375 -24.160156 35.09375 -26.796875 C 35.09375 -28.890625 34.578125 -30.796875 33.546875 -32.515625 C 32.515625 -34.234375 31.066406 -35.550781 29.203125 -36.46875 C 27.515625 -37.3125 25.316406 -37.734375 22.609375 -37.734375 Z M 9.15625 -36.359375 L 9.15625 -15.796875 L 23.875 -15.796875 Z M 9.15625 -2.125 L 33.65625 -2.125 L 25.296875 -13.734375 L 23.53125 -13.6875 L 9.15625 -13.6875 Z M 9.15625 -2.125 "/></g></g><g style="fill:#ffffff;fill-opacity:1;"><g transform="translate(250.52985, 87.27027)"><path style="stroke:none" d="M 39.953125 0 L 2.40625 0 L 21.1875 -40.703125 Z M 5.71875 -2.125 L 36.640625 -2.125 L 21.1875 -35.671875 Z M 5.71875 -2.125 "/></g></g><g style="fill:#ffffff;fill-opacity:1;"><g transform="translate(290.483442, 87.27027)"><path style="stroke:none" d="M 7.953125 0 L 7.953125 -39.84375 L 24.625 -39.84375 C 27.40625 -39.84375 29.804688 -39.328125 31.828125 -38.296875 C 34.160156 -37.117188 36.007812 -35.429688 37.375 -33.234375 C 38.75 -31.035156 39.4375 -28.617188 39.4375 -25.984375 C 39.4375 -23.359375 38.757812 -20.9375 37.40625 -18.71875 C 36.050781 -16.507812 34.210938 -14.8125 31.890625 -13.625 C 29.898438 -12.59375 27.476562 -12.078125 24.625 -12.078125 L 18.375 -12.078125 L 18.375 0 Z M 7.953125 0 "/></g></g><g style="fill:#ffffff;fill-opacity:1;"><g transform="translate(330.437033, 87.27027)"><path style="stroke:none" d="M 5.84375 0 L 5.84375 -39.84375 L 7.953125 -39.84375 L 7.953125 -28.5625 C 11.890625 -28.5625 15.613281 -27.804688 19.125 -26.296875 C 22.632812 -24.796875 25.703125 -22.695312 28.328125 -20 C 30.960938 -17.3125 32.988281 -14.234375 34.40625 -10.765625 L 34.40625 -39.84375 L 36.53125 -39.84375 L 36.53125 0 L 34.40625 0 C 34.40625 -4.769531 33.222656 -9.1875 30.859375 -13.25 C 28.492188 -17.3125 25.273438 -20.523438 21.203125 -22.890625 C 17.140625 -25.265625 12.722656 -26.453125 7.953125 -26.453125 L 7.953125 0 Z M 5.84375 0 "/></g></g></g></svg>