<svg xmlns="http://www.w3.org/2000/svg" xmlns:xlink="http://www.w3.org/1999/xlink" width="400" zoomAndPan="magnify" viewBox="0 0 300 131.249995" height="175" preserveAspectRatio="xMidYMid meet" version="1.2"><defs><clipPath id="1cb27e5486"><path d="M 0.851562 38 L 85.390625 38 L 85.390625 111.425781 L 0.851562 111.425781 Z M 0.851562 38 "/></clipPath></defs><g id="c6cc0c720a"><g clip-rule="nonzero" clip-path="url(#1cb27e5486)"><path style=" stroke:none;fill-rule:nonzero;fill:#ffffff;fill-opacity:1;" d="M 52.878906 110.054688 C 53.425781 110.144531 53.550781 110.128906 54.222656 110.148438 C 54.410156 109.761719 54.132812 109.375 54.222656 108.804688 C 53.523438 109.125 53.085938 109.425781 52.878906 110.054688 Z M 35.078125 109.476562 C 35.621094 109.363281 36.011719 109.527344 36.714844 109.476562 C 36.714844 109.15625 36.714844 108.835938 36.714844 108.515625 C 36.125 108.539062 35.742188 109.242188 35.078125 109.476562 Z M 17.859375 109.285156 C 18.210938 109.351562 18.558594 109.417969 19.015625 109.378906 C 18.9375 109.074219 18.953125 108.671875 18.820312 108.417969 C 18.410156 108.613281 18.058594 108.871094 17.859375 109.285156 Z M 51.433594 109.1875 C 51.175781 109.074219 50.636719 109.382812 50.761719 109.957031 C 51.09375 110.117188 51.398438 109.878906 51.914062 109.957031 C 52.519531 108.632812 55.074219 108.371094 54.03125 106.496094 C 53.042969 107.265625 52.09375 108.082031 51.433594 109.1875 Z M 18.535156 106.207031 C 17.820312 107.382812 16.570312 108.027344 15.742188 109.09375 C 17.339844 109.832031 17.828125 107.75 18.917969 107.648438 C 18.492188 107.621094 19.109375 106.683594 18.917969 106.207031 C 18.789062 106.207031 18.660156 106.207031 18.535156 106.207031 Z M 31.617188 109.09375 C 32.449219 109.730469 33.5625 109.234375 34.503906 109.476562 C 34.867188 108.453125 36.945312 108.152344 36.425781 106.878906 C 35.699219 107.945312 34.847656 108.359375 33.828125 109.1875 C 33.769531 108.992188 33.34375 109.160156 33.445312 108.804688 C 34.59375 107.867188 35.617188 106.808594 36.621094 105.726562 C 36.519531 105.203125 36.726562 104.859375 36.425781 104.667969 C 34.871094 106.1875 33.070312 107.464844 31.617188 109.09375 Z M 66.441406 108.996094 C 66.386719 109.488281 65.921875 109.566406 65.863281 110.054688 C 68.042969 110.054688 69.128906 110.003906 71.25 109.957031 C 71.308594 109.492188 71.59375 108.496094 71.152344 107.9375 C 70.757812 108.328125 70.078125 110.0625 69.132812 109.574219 C 69.964844 108.734375 70.449219 107.984375 71.347656 107.359375 C 71.347656 107.070312 71.347656 106.785156 71.347656 106.496094 C 70.195312 107.78125 68.949219 108.972656 67.402344 109.863281 C 67.265625 109.808594 67.167969 109.710938 67.113281 109.574219 C 68.613281 108.570312 69.847656 107.300781 70.964844 105.917969 C 71.210938 105.925781 71.101562 106.292969 71.347656 106.300781 C 71.359375 105.898438 71.59375 104.832031 71.058594 104.570312 C 69.683594 106.179688 68.105469 108.273438 66.441406 108.996094 Z M 53.070312 104.953125 C 51.910156 106.570312 49.871094 108.007812 48.644531 109.863281 C 49 109.992188 49.375 109.808594 49.796875 109.957031 C 51.214844 108.363281 52.773438 106.902344 54.222656 105.339844 C 54.160156 104.871094 54.207031 104.886719 54.222656 104.378906 C 53.636719 104.421875 53.554688 105.082031 53.070312 104.953125 Z M 13.53125 109.1875 C 13.820312 109.382812 14.4375 109.242188 14.878906 109.285156 C 16.007812 107.6875 17.535156 106.492188 18.917969 105.148438 C 18.632812 104.820312 19.171875 104.257812 18.726562 104.089844 C 17.015625 105.808594 15.199219 107.425781 13.53125 109.1875 Z M 66.25 108.804688 C 68.371094 107.527344 69.4375 105.195312 71.347656 103.703125 C 71.285156 103.347656 71.472656 102.746094 71.25 102.550781 C 68.824219 104.933594 66.320312 107.242188 64.324219 110.054688 C 64.636719 109.996094 64.773438 110.117188 65 110.148438 C 65.351562 109.667969 66.3125 109.097656 66.25 108.804688 Z M 18.535156 102.070312 C 16.378906 104.660156 14.300781 106.742188 12.089844 109.285156 C 13.785156 108.796875 14.835938 106.328125 16.417969 105.726562 C 16.957031 104.554688 18.074219 103.59375 18.917969 103.03125 C 18.839844 102.824219 18.882812 102.5 18.820312 102.070312 C 18.726562 102.070312 18.628906 102.070312 18.535156 102.070312 Z M 52.109375 103.703125 C 52.136719 103.929688 52.09375 104.074219 52.011719 104.183594 C 51.019531 104.574219 50.878906 105.8125 49.796875 106.109375 C 49.085938 107.40625 47.503906 108.011719 47.007812 109.765625 C 47.167969 109.925781 47.574219 109.84375 47.875 109.863281 C 49.449219 107.753906 51.9375 105.757812 53.742188 103.703125 C 54.007812 103.402344 54.097656 102.714844 54.128906 102.261719 C 53.898438 102.300781 54.179688 101.824219 53.839844 101.972656 C 53.226562 102.515625 52.972656 103.414062 52.109375 103.703125 Z M 70.480469 100.914062 C 67.507812 103.816406 64.785156 106.921875 62.304688 110.054688 C 62.800781 110.273438 63.171875 110.144531 63.746094 110.148438 C 63.859375 110.035156 63.855469 109.808594 63.84375 109.574219 C 65.925781 107.496094 68.023438 104.84375 70.191406 102.933594 C 70.324219 102.394531 70.726562 102.125 71.347656 102.070312 C 71.324219 101.171875 71.511719 101.027344 71.441406 100.339844 C 70.800781 100.304688 70.859375 100.972656 70.382812 101.109375 C 70.382812 101.011719 70.460938 100.992188 70.480469 100.914062 Z M 33.828125 102.359375 C 33.625 102.617188 34.046875 102.597656 33.828125 102.933594 C 32.941406 103.160156 32.851562 104.574219 32 104.28125 C 31.933594 104.578125 31.933594 104.464844 32 104.761719 C 30.488281 106.210938 29.332031 107.421875 28.152344 109.1875 C 28.167969 109.398438 28.5625 109.230469 28.730469 109.285156 C 30.414062 107.890625 31.660156 106.230469 33.058594 104.570312 C 33.347656 104.230469 33.824219 104.035156 34.117188 103.703125 C 34.652344 103.101562 34.839844 102.046875 35.65625 101.878906 C 35.609375 101.519531 35.996094 101.335938 36.425781 101.203125 C 36.355469 101.5 36.59375 101.488281 36.523438 101.78125 C 35.78125 102.417969 35.414062 103.429688 34.503906 103.898438 C 34.613281 104.445312 33.433594 105.117188 33.15625 105.4375 C 32.386719 106.3125 31.632812 107.804688 30.847656 107.839844 C 30.773438 108.570312 29.941406 108.539062 29.789062 109.1875 C 29.917969 109.554688 30.53125 109.078125 30.847656 109.378906 C 32.449219 107.167969 34.992188 105.660156 36.621094 103.222656 C 36.515625 102.128906 37.070312 101.085938 36.621094 99.953125 C 35.535156 100.539062 34.980469 102.15625 33.828125 102.359375 Z M 51.722656 101.878906 C 51.574219 102.804688 50.523438 103.613281 49.796875 104.28125 C 49.796875 104.410156 49.796875 104.539062 49.796875 104.667969 C 49.070312 105.480469 48.160156 105.957031 47.394531 106.878906 C 46.851562 107.53125 46.683594 108.507812 45.855469 108.515625 C 46.238281 108.941406 45.464844 109.324219 45.277344 109.765625 C 45.503906 109.765625 45.726562 109.765625 45.949219 109.765625 C 46.824219 108.332031 47.917969 107.113281 49.316406 106.207031 C 50.808594 104.332031 52.425781 102.578125 54.03125 100.820312 C 53.90625 100.304688 54.195312 99.90625 53.839844 99.566406 C 53.105469 100.3125 52.652344 101.328125 51.722656 101.878906 Z M 16.707031 101.394531 C 15.183594 103.558594 13.28125 105.378906 11.609375 107.265625 C 11.046875 107.898438 10.230469 108.519531 10.164062 109.476562 C 11.300781 109.242188 12.128906 108.183594 12.953125 107.359375 C 13.816406 106.5 14.695312 105.539062 15.359375 104.570312 C 16.460938 103.8125 17.085938 102.578125 17.957031 101.589844 C 18.332031 101.484375 18.582031 101.25 18.820312 101.011719 C 18.703125 100.34375 18.820312 99.753906 18.726562 99.472656 C 18.109375 100.171875 17.457031 100.835938 16.707031 101.394531 Z M 30.65625 103.609375 C 30.777344 104.199219 29.933594 105.019531 29.597656 105.148438 C 29.226562 105.929688 28.988281 106.847656 28.058594 107.070312 C 28.058594 107.359375 28.058594 107.648438 28.058594 107.9375 C 30.570312 105.382812 32.886719 102.957031 35.273438 100.144531 C 36.003906 99.914062 36.003906 98.953125 36.8125 98.800781 C 36.753906 98.175781 36.988281 97.859375 36.714844 97.449219 C 35.453125 98.082031 35.136719 99.65625 33.734375 100.144531 C 33.882812 100.636719 33.652344 101.097656 33.058594 101.109375 C 33.074219 101.539062 32.605469 102.304688 32.097656 102.164062 C 32.332031 102.589844 31.683594 102.90625 31.328125 102.742188 C 31.285156 103.570312 31.097656 103.179688 30.65625 103.609375 Z M 10.742188 104.953125 C 10.800781 105.277344 11.023438 105.285156 10.839844 105.628906 C 10.707031 105.851562 10.28125 105.777344 10.066406 105.917969 C 10.15625 106.679688 10.226562 107.230469 10.066406 107.9375 C 13.261719 104.824219 15.65625 101.46875 18.820312 98.414062 C 18.617188 98.039062 18.851562 97.230469 18.4375 97.066406 C 15.890625 99.714844 13.46875 102.488281 10.742188 104.953125 Z M 47.007812 106.589844 C 47.003906 106.648438 46.996094 106.703125 46.914062 106.6875 C 49.601562 104.148438 51.710938 101.03125 54.128906 98.222656 C 54.058594 97.769531 54.007812 97.332031 54.03125 96.585938 C 51.886719 98.429688 50.597656 101.261719 48.453125 102.839844 C 48.144531 104.1875 46.265625 104.742188 45.949219 106.398438 C 45.289062 106.507812 45.058594 107.964844 45.375 108.417969 C 45.8125 107.765625 46.675781 107.027344 47.007812 106.589844 Z M 65.09375 104.089844 C 66.027344 102.550781 67.285156 101.339844 68.460938 100.046875 C 68.460938 100.101562 68.539062 100.160156 68.558594 100.046875 C 68.980469 98.996094 70.164062 97.871094 70.867188 96.777344 C 71.070312 96.609375 71.152344 96.5625 71.441406 96.679688 C 71.664062 95.890625 71.414062 95.152344 71.441406 94.277344 C 69.746094 95.835938 68.503906 97.734375 67.019531 99.375 C 66.890625 99.375 66.929688 99.207031 66.824219 99.183594 C 66.746094 99.492188 66.742188 99.382812 66.921875 99.566406 C 65.417969 101.390625 64.195312 103.238281 62.785156 104.953125 C 62.425781 105.058594 62.511719 104.714844 62.207031 104.761719 C 62.382812 105.496094 62.203125 106.03125 62.304688 106.878906 C 63.367188 106.460938 63.898438 104.691406 65.09375 104.089844 Z M 66.152344 103.320312 C 65.300781 103.808594 65.148438 104.675781 64.515625 104.859375 C 64.136719 106.265625 62.292969 106.847656 62.304688 108.996094 C 64.179688 107.292969 66.285156 104.679688 67.980469 102.742188 C 68.253906 102.429688 68.992188 101.679688 69.132812 101.878906 C 69.738281 100.171875 71.941406 100.066406 71.441406 97.257812 C 69.640625 98.761719 68.292969 101.226562 66.539062 102.453125 C 66.648438 102.46875 66.640625 102.605469 66.632812 102.742188 C 66.523438 102.824219 66.375 102.871094 66.152344 102.839844 C 65.972656 103.023438 66.210938 103.011719 66.152344 103.320312 Z M 18.535156 94.085938 C 17.546875 94.988281 16.679688 96.132812 15.550781 97.355469 C 14.542969 98.445312 13.5625 99.578125 12.761719 100.625 C 11.851562 101.816406 9.914062 102.882812 10.066406 104.667969 C 11.734375 103.550781 13.050781 101.746094 14.492188 100.144531 C 15.855469 98.636719 17.703125 97.464844 18.628906 95.625 C 18.636719 95.566406 18.644531 95.511719 18.726562 95.527344 C 18.710938 95 18.714844 94.492188 18.820312 94.085938 C 18.726562 94.085938 18.628906 94.085938 18.535156 94.085938 Z M 31.90625 99.566406 C 31.113281 101.855469 27.503906 102.859375 27.960938 106.109375 C 29.394531 104.785156 30.570312 103.203125 31.808594 101.683594 C 33.761719 100.273438 34.730469 97.875 36.714844 96.492188 C 36.960938 95.53125 37.085938 94.855469 36.8125 93.988281 C 35.238281 95.96875 33.71875 98.089844 31.90625 99.566406 Z M 34.3125 93.988281 C 33.792969 95.558594 32.429688 96.097656 31.808594 97.355469 C 31.679688 97.355469 31.550781 97.355469 31.425781 97.355469 C 31.132812 98.375 30.445312 98.582031 30.078125 99.375 C 30.078125 99.320312 30 99.265625 29.980469 99.375 C 30.25 99.710938 29.714844 99.703125 29.5 99.953125 C 28.96875 100.570312 28.757812 101.890625 27.960938 101.972656 C 28.164062 102.652344 27.667969 103.019531 28.152344 103.222656 C 30.707031 99.976562 33.816406 97.277344 36.136719 93.796875 C 36.4375 93.679688 36.554688 93.378906 36.90625 93.316406 C 36.835938 92.746094 37.078125 91.859375 36.714844 91.582031 C 35.804688 92.273438 35.363281 93.433594 34.3125 93.988281 Z M 64.515625 98.507812 C 64.433594 98.636719 64.519531 98.867188 64.421875 98.992188 C 64.117188 99.363281 63.230469 99.769531 63.457031 100.242188 C 62.652344 100.503906 62.585938 101.539062 62.207031 101.972656 C 62.191406 102.640625 62.28125 103.496094 62.304688 104.378906 C 63.433594 104.226562 63.371094 102.878906 64.421875 102.644531 C 64.183594 102.242188 65.183594 101.011719 65.574219 100.914062 C 65.746094 100.25 66.160156 99.832031 66.632812 99.472656 C 66.46875 99.433594 66.652344 99.347656 66.632812 99.183594 C 67.847656 97.847656 69 96.558594 69.808594 95.046875 C 70.804688 94.199219 71.839844 93.363281 71.347656 91.488281 C 69.800781 92.953125 68.382812 94.550781 66.921875 96.105469 C 66.9375 95.992188 67.09375 95.886719 66.921875 95.816406 C 66.757812 95.9375 66.921875 96.390625 66.632812 96.394531 C 66.648438 96.28125 66.804688 96.175781 66.632812 96.105469 C 66.515625 96.371094 66.0625 96.300781 66.054688 96.679688 C 66.332031 96.96875 66.222656 96.441406 66.539062 96.492188 C 66.21875 97.359375 65.050781 97.699219 64.515625 98.507812 Z M 15.9375 94.085938 C 15.792969 94.238281 15.789062 94.488281 15.648438 94.660156 C 14.320312 96.28125 12.332031 98.054688 11.320312 99.472656 C 11.253906 99.5625 11.3125 99.804688 11.222656 99.953125 C 11.011719 100.296875 10.484375 100.566406 10.261719 100.914062 C 10.234375 100.953125 9.867188 101.890625 9.875 101.78125 C 9.875 101.820312 10.292969 102.34375 10.066406 102.453125 C 10.59375 101.796875 11.179688 101.421875 11.800781 100.820312 C 12.359375 100.273438 12.742188 99.433594 13.242188 98.894531 C 13.355469 98.773438 13.671875 98.753906 13.820312 98.605469 C 14.128906 98.300781 14.332031 97.738281 14.683594 97.355469 C 15.371094 96.613281 15.882812 96.238281 16.609375 95.335938 C 17.519531 94.203125 19.207031 92.328125 18.4375 91.488281 C 17.664062 92.476562 16.769531 93.1875 15.9375 94.085938 Z M 53.359375 91.488281 C 51.683594 92.90625 50.886719 94.46875 49.222656 96.199219 C 49.332031 96.21875 49.324219 96.351562 49.316406 96.492188 C 48.867188 96.585938 48.730469 96.996094 48.644531 97.449219 C 47.4375 97.867188 47.863281 98.988281 46.625 99.472656 C 46.914062 100.460938 45.738281 101.109375 45.277344 100.625 C 45.292969 102.203125 45.332031 103.714844 45.46875 105.242188 C 48.433594 102.4375 51.035156 99.265625 53.359375 95.816406 C 53.660156 95.863281 53.574219 95.519531 53.933594 95.625 C 53.984375 94.871094 54.273438 94.046875 53.839844 93.507812 C 53.683594 93.878906 53.574219 93.796875 53.261719 93.890625 C 52.53125 95.636719 50.945312 96.660156 49.992188 98.414062 C 48.628906 99.277344 48.132812 100.960938 46.71875 101.972656 C 46.703125 102.492188 46.65625 102.375 46.625 102.839844 C 46.261719 102.859375 46.214844 103.199219 45.855469 103.222656 C 45.804688 103.082031 45.710938 102.980469 45.660156 102.839844 C 47.96875 99.214844 51.027344 96.339844 53.550781 92.929688 C 53.667969 93.15625 54.292969 91.6875 53.933594 91.003906 C 53.773438 91.003906 53.613281 91.003906 53.453125 91.003906 C 53.492188 91.238281 53.277344 91.214844 53.359375 91.488281 Z M 14.878906 92.835938 C 13.625 95.066406 11.800781 96.164062 10.546875 98.316406 C 10.378906 98.339844 10.066406 98.21875 10.164062 98.507812 C 9.894531 98.894531 10.253906 99.652344 10.066406 100.046875 C 11.808594 97.875 14.007812 95.660156 16.03125 93.410156 C 16.933594 92.410156 17.863281 91.222656 18.535156 90.140625 C 18.675781 89.910156 18.625 89.371094 18.628906 89.082031 C 18.609375 89.007812 18.550781 88.972656 18.4375 88.984375 C 17.121094 90.136719 16.296875 91.78125 14.878906 92.835938 Z M 36.714844 88.695312 C 35.035156 90.046875 33.71875 92.289062 32.097656 93.988281 C 31.800781 94.65625 31.070312 95.71875 30.175781 96.105469 C 29.863281 97.152344 28.769531 98.121094 28.25 99.472656 C 28.121094 99.472656 27.992188 99.472656 27.867188 99.472656 C 27.96875 99.96875 27.867188 100.308594 27.960938 100.820312 C 31.15625 97.3125 33.933594 93.855469 36.90625 90.046875 C 36.933594 89.621094 37.0625 89.300781 37.003906 88.792969 C 36.878906 88.789062 36.871094 88.671875 36.714844 88.695312 Z M 62.015625 99.183594 C 62.152344 99.640625 61.949219 100.1875 62.113281 100.914062 C 63.769531 98.90625 65.570312 96.917969 67.304688 95.144531 C 67.71875 94.722656 68.027344 94.128906 68.460938 93.699219 C 69.746094 92.4375 71.808594 90.5625 71.152344 88.3125 C 67.964844 91.980469 64.617188 94.910156 62.015625 99.183594 Z M 45.375 98.222656 C 45.472656 98.441406 45.433594 98.800781 45.566406 98.992188 C 45.097656 99.097656 45.171875 99.75 45.179688 100.339844 C 46.484375 99.265625 47.453125 97.863281 48.355469 96.394531 C 49.617188 94.867188 51.125 93.25 52.300781 91.679688 C 53.121094 90.582031 54.644531 89.316406 53.742188 87.832031 C 52.082031 88.886719 51.164062 91.046875 49.796875 92.257812 C 48.726562 94.261719 46.804688 96.253906 45.375 98.222656 Z M 30.175781 93.699219 C 29.984375 94.066406 29.011719 95.199219 28.828125 96.199219 C 28.0625 96.511719 27.699219 97.160156 28.058594 98.125 C 31.054688 94.515625 34.140625 90.996094 36.90625 87.15625 C 36.84375 86.902344 36.867188 86.558594 36.714844 86.386719 C 33.917969 88.460938 32.554688 91.191406 30.175781 93.699219 Z M 17.667969 86.675781 C 17.496094 86.847656 17.125 86.917969 16.996094 87.0625 C 16.882812 87.1875 16.996094 87.386719 16.898438 87.542969 C 16.589844 88.039062 15.894531 88.578125 15.359375 89.179688 C 14.328125 90.328125 13.457031 91.613281 12.472656 92.738281 C 11.953125 93.332031 11.289062 93.871094 10.933594 94.375 C 10.761719 94.617188 10.8125 94.925781 10.644531 95.144531 C 10.433594 95.417969 10.078125 95.460938 9.972656 95.71875 C 9.761719 96.226562 10.003906 96.921875 9.972656 97.449219 C 13.195312 94.519531 15.730469 90.894531 18.628906 87.640625 C 18.546875 87.164062 18.644531 86.394531 18.339844 85.910156 C 18.023438 86.121094 17.945312 86.410156 17.667969 86.675781 Z M 67.113281 89.273438 C 66.964844 89.488281 66.6875 89.550781 66.539062 89.753906 C 66.371094 89.976562 66.402344 90.300781 66.25 90.527344 C 65.65625 91.390625 64.710938 91.933594 64.035156 92.738281 C 63.917969 92.878906 63.945312 93.175781 63.84375 93.316406 C 63.417969 93.902344 62.667969 94.289062 62.496094 95.046875 C 62.207031 95.109375 62.589844 95.253906 62.496094 95.429688 C 62.238281 95.589844 62.039062 95.808594 61.921875 96.105469 C 62.078125 96.625 62.167969 97.546875 62.015625 97.835938 C 64.070312 96.238281 65.222656 93.730469 67.304688 92.160156 C 68.308594 90.53125 69.648438 89.246094 70.769531 87.734375 C 71.101562 87.605469 71.222656 88.167969 71.441406 87.832031 C 70.976562 87 71.515625 85.394531 71.058594 84.753906 C 69.582031 86.152344 68.269531 87.640625 67.113281 89.273438 Z M 50.761719 87.832031 C 50.828125 88.125 50.664062 88.179688 50.664062 88.410156 C 50.050781 88.5 50.234375 89.054688 49.992188 89.371094 C 49.8125 89.601562 49.378906 89.691406 49.222656 89.949219 C 49.132812 90.089844 49.21875 90.308594 49.125 90.429688 C 48.890625 90.722656 48.449219 90.851562 48.257812 91.199219 C 48.238281 91.238281 48.285156 91.546875 48.257812 91.582031 C 48.140625 91.746094 47.804688 91.816406 47.683594 91.96875 C 47.605469 92.066406 47.742188 92.265625 47.683594 92.355469 C 47.605469 92.472656 47.324219 92.496094 47.199219 92.640625 C 47.019531 92.855469 46.980469 93.28125 46.816406 93.507812 C 45.785156 94.917969 44.523438 95.726562 45.179688 97.546875 C 46.929688 95.929688 48.171875 93.453125 49.703125 91.679688 C 49.882812 91.46875 50.214844 91.40625 50.375 91.199219 C 50.4375 91.117188 50.320312 90.902344 50.375 90.816406 C 51.46875 89.019531 54.230469 87.648438 53.839844 84.847656 C 53.820312 84.742188 53.730469 84.699219 53.644531 84.65625 C 52.519531 85.550781 51.90625 86.960938 50.761719 87.832031 Z M 36.332031 83.984375 C 35.710938 84.679688 35.203125 85.488281 34.3125 85.910156 C 34.335938 86.414062 34.152344 86.710938 33.734375 86.773438 C 33.523438 87.523438 32.816406 87.78125 32.484375 88.410156 C 31.855469 90.25 29.71875 91.414062 29.019531 93.507812 C 28.445312 93.824219 27.996094 94.578125 28.058594 95.238281 C 28.714844 94.964844 29.019531 94.34375 29.308594 93.699219 C 31.980469 91.082031 33.972656 87.785156 36.714844 85.234375 C 36.574219 84.667969 36.898438 84.175781 36.332031 83.984375 Z M 10.742188 92.257812 C 10.671875 92.410156 10.269531 92.234375 10.355469 92.542969 C 10.09375 92.734375 10.117188 93.203125 9.78125 93.316406 C 9.894531 93.894531 9.660156 94.253906 10.066406 94.566406 C 12.753906 91.160156 15.746094 88.054688 18.4375 84.65625 C 18.449219 84.066406 18.433594 83.507812 18.246094 83.117188 C 15.710938 86.128906 12.675781 88.644531 10.742188 92.257812 Z M 68.269531 84.464844 C 67.878906 85.203125 67.175781 85.707031 66.730469 86.195312 C 65.78125 87.234375 65.203125 88.523438 64.324219 89.5625 C 63.609375 90.410156 62.554688 91.117188 62.496094 92.542969 C 62.300781 92.703125 62.105469 92.859375 61.824219 92.929688 C 62 93.363281 61.855469 94.117188 62.015625 94.566406 C 65.292969 91.140625 68.007812 87.152344 71.152344 83.597656 C 71.082031 83.03125 71.222656 82.25 70.867188 81.964844 C 70.101562 82.898438 69.371094 83.867188 68.269531 84.464844 Z M 50.761719 85.136719 C 50.402344 85.292969 50.070312 85.472656 50.085938 86.003906 C 49.847656 85.988281 49.789062 86.15625 49.605469 86.195312 C 48.605469 87.921875 47.398438 89.441406 46.335938 91.101562 C 46.207031 91.101562 46.078125 91.101562 45.949219 91.101562 C 45.636719 92.070312 44.777344 92.582031 44.988281 94.375 C 45.785156 94.273438 45.722656 93.308594 46.433594 93.125 C 48.546875 89.980469 50.984375 87.15625 53.070312 83.984375 C 53.191406 83.851562 53.488281 83.886719 53.742188 83.886719 C 53.664062 82.96875 54.007812 82.207031 53.550781 81.578125 C 52.457031 82.601562 51.402344 83.660156 50.761719 85.136719 Z M 34.597656 82.828125 C 34.128906 84.21875 32.78125 84.730469 32.289062 86.101562 C 30.933594 87.339844 30.402344 89.410156 28.828125 90.429688 C 28.722656 91.289062 28.417969 91.910156 27.671875 92.066406 C 27.894531 92.539062 27.75 92.804688 27.960938 93.316406 C 28.722656 93.113281 28.914062 92.34375 29.210938 91.679688 C 30.46875 90.625 31.179688 89.28125 32.386719 88.023438 C 32.992188 86.972656 33.742188 86.023438 34.695312 84.945312 C 35.667969 83.84375 36.914062 82.769531 36.523438 81.097656 C 36.398438 81.09375 36.390625 80.972656 36.234375 81 C 35.746094 81.667969 35.34375 82.417969 34.597656 82.828125 Z M 9.78125 90.71875 C 9.867188 91.152344 9.863281 91.359375 9.78125 91.871094 C 10.386719 91.835938 10.191406 91 10.839844 91.003906 C 12.652344 87.789062 15.484375 85.582031 17.765625 82.828125 C 17.8125 82.238281 18.164062 81.945312 18.4375 81.578125 C 18.230469 81.402344 18.539062 80.710938 18.148438 80.710938 C 15.398438 84.085938 12.367188 87.179688 9.78125 90.71875 Z M 61.726562 89.5625 C 61.792969 90.585938 61.773438 90.980469 61.726562 91.679688 C 62.089844 91.84375 62.316406 91.144531 62.496094 90.816406 C 63.609375 90.058594 64.226562 88.488281 65.09375 88.023438 C 64.976562 87.425781 65.46875 87.378906 65.671875 87.15625 C 66.535156 86.21875 67.574219 84.578125 68.460938 83.597656 C 69.410156 82.554688 71.535156 81.152344 70.769531 79.269531 C 67.21875 82.164062 64.613281 86.003906 61.726562 89.5625 Z M 51.144531 82.15625 C 49.777344 83.351562 48.683594 84.824219 47.683594 86.386719 C 46.738281 86.886719 46.160156 87.753906 45.757812 88.792969 C 45.589844 88.785156 45.457031 88.8125 45.375 88.890625 C 45.027344 89.839844 45.082031 90.339844 44.988281 91.296875 C 47.097656 89.617188 48.398438 87.136719 49.992188 84.945312 C 51.390625 83.589844 52.375 81.8125 53.644531 80.328125 C 53.519531 80.164062 53.730469 79.519531 53.644531 79.078125 C 53.625 79.003906 53.566406 78.964844 53.453125 78.980469 C 52.550781 79.90625 51.664062 80.847656 51.144531 82.15625 Z M 29.019531 89.660156 C 29.53125 88.453125 30.539062 87.617188 31.230469 86.582031 C 32.230469 85.082031 33.722656 83.402344 34.886719 81.867188 C 35.230469 81.417969 35.351562 80.902344 35.65625 80.519531 C 36.175781 79.867188 37.105469 79.039062 36.332031 78.308594 C 36.160156 78.679688 35.640625 78.707031 35.367188 78.980469 C 34.058594 81.808594 31.589844 83.476562 30.269531 86.292969 C 29.21875 86.84375 28.835938 88.066406 27.867188 88.695312 C 27.757812 89.339844 27.644531 90.324219 27.769531 90.910156 C 28.128906 90.4375 28.425781 89.902344 29.019531 89.660156 Z M 17.957031 77.828125 C 16.964844 79.015625 16.0625 80.296875 14.878906 81.289062 C 13.625 83.53125 11.488281 84.894531 10.453125 87.351562 C 10.257812 87.507812 10.058594 87.664062 9.78125 87.734375 C 9.816406 88.460938 9.636719 88.824219 9.875 89.371094 C 10.5 88.648438 11.289062 88.089844 11.703125 87.15625 C 13.222656 86.175781 13.90625 84.359375 15.359375 83.308594 C 15.851562 81.976562 17.183594 81.480469 17.574219 80.039062 C 17.894531 79.976562 18.042969 79.738281 18.339844 79.65625 C 18.523438 79.074219 18.425781 78.320312 18.246094 77.828125 C 18.148438 77.828125 18.050781 77.828125 17.957031 77.828125 Z M 9.105469 76.671875 C 9.058594 77.191406 9.300781 78.195312 9.585938 78.691406 C 10.046875 78.054688 10.894531 77.425781 11.03125 76.769531 C 10.382812 76.480469 9.707031 76.628906 9.105469 76.671875 Z M 16.707031 76.578125 C 15.574219 77.582031 14.96875 78.566406 13.914062 79.847656 C 13.371094 80.511719 12.601562 81.109375 12.089844 81.769531 C 11.75 82.210938 11.425781 82.941406 10.933594 83.597656 C 10.199219 84.582031 9.472656 85.136719 9.78125 86.386719 C 11.53125 84.902344 12.683594 82.8125 14.398438 81.289062 C 15.140625 80.078125 16.125 79.105469 17.089844 78.117188 C 17.183594 77.328125 18 77.246094 17.859375 76.480469 C 17.367188 76.40625 17.160156 76.617188 16.707031 76.578125 Z M 9.492188 79.65625 C 9.5625 80.0625 9.609375 80.496094 9.683594 80.90625 C 10.980469 79.570312 12.144531 78.109375 13.242188 76.578125 C 12.78125 76.710938 12.371094 76.296875 12.089844 76.578125 C 11.449219 77.445312 10.351562 78.6875 9.492188 79.65625 Z M 14.589844 76.480469 C 12.617188 77.972656 11.335938 80.152344 9.683594 81.964844 C 9.820312 82.746094 9.414062 83.488281 9.683594 84.078125 C 11.691406 81.5 13.703125 78.929688 15.839844 76.480469 C 15.609375 76.367188 15.035156 76.738281 14.589844 76.480469 Z M 49.605469 81.480469 C 48.789062 81.660156 48.875 82.742188 47.96875 82.828125 C 47.40625 84.28125 46.429688 84.914062 45.46875 86.195312 C 45.726562 86.996094 45.007812 87.402344 45.085938 88.3125 C 46 87.324219 47.148438 86.058594 48.066406 85.042969 C 49.433594 83.527344 50.863281 81.363281 52.203125 79.65625 C 53.101562 78.511719 54.175781 77.824219 53.359375 76.289062 C 51.960938 77.871094 50.503906 79.398438 49.605469 81.480469 Z M 64.902344 82.15625 C 64.902344 82.316406 64.902344 82.476562 64.902344 82.636719 C 64.617188 82.769531 64.539062 83.105469 64.132812 83.117188 C 63.515625 84.644531 62.046875 85.277344 61.535156 86.964844 C 61.976562 87.003906 61.476562 87.984375 61.921875 88.023438 C 64.753906 84.378906 68.132812 81.28125 70.867188 77.539062 C 70.859375 77 70.917969 76.394531 70.671875 76.09375 C 68.632812 78 67.03125 80.34375 64.902344 82.15625 Z M 36.136719 75.230469 C 33.773438 78.25 31.449219 81.316406 28.828125 84.078125 C 28.9375 84.550781 27.96875 85.042969 28.25 85.714844 C 27.945312 85.921875 27.535156 86.027344 27.382812 86.386719 C 27.496094 86.601562 27.390625 87.335938 27.671875 87.640625 C 28.21875 87.480469 28.625 87.183594 28.730469 86.582031 C 29.625 86.292969 29.808594 85.410156 30.269531 84.753906 C 30.820312 83.972656 31.601562 83.320312 32.195312 82.539062 C 33.6875 80.570312 35.082031 78.621094 36.523438 76.671875 C 36.523438 76.191406 36.523438 75.710938 36.523438 75.230469 C 36.394531 75.230469 36.265625 75.230469 36.136719 75.230469 Z M 70.480469 73.882812 C 69.167969 74.71875 68.664062 76.363281 67.210938 77.058594 C 67.050781 77.890625 66.160156 77.996094 65.960938 78.789062 C 65.640625 78.851562 65.488281 79.089844 65.191406 79.171875 C 65.230469 79.40625 65.015625 79.382812 65.09375 79.65625 C 63.660156 80.820312 62.832031 82.585938 61.535156 83.886719 C 61.605469 84.542969 61.355469 84.957031 61.632812 85.332031 C 64.71875 82.066406 67.601562 78.601562 70.578125 75.230469 C 70.738281 74.585938 70.726562 74.355469 70.769531 73.59375 C 70.671875 73.59375 70.578125 73.59375 70.480469 73.59375 C 70.480469 73.691406 70.480469 73.785156 70.480469 73.882812 Z M 36.136719 72.824219 C 33.886719 74.742188 32.613281 77.636719 30.367188 79.558594 C 29.796875 80.914062 28.34375 81.382812 28.058594 83.023438 C 27.910156 83.226562 27.496094 83.167969 27.382812 83.40625 C 27.25 83.859375 27.375 84.332031 27.382812 85.042969 C 28.449219 84.214844 28.855469 82.726562 30.078125 82.0625 C 31.339844 79.9375 32.921875 78.507812 34.40625 76.578125 C 35.289062 75.429688 36.21875 74.21875 36.332031 72.921875 C 36.308594 72.847656 36.25 72.808594 36.136719 72.824219 Z M 52.492188 73.304688 C 52.554688 73.65625 52.285156 73.675781 52.300781 73.976562 C 50.191406 76.199219 48.671875 79.007812 46.71875 81.386719 C 46.65625 81.960938 46.445312 82.394531 45.949219 82.539062 C 45.757812 83.554688 44.902344 84.339844 45.085938 85.8125 C 48.246094 82.464844 50.820312 78.527344 53.550781 74.75 C 53.441406 74.019531 53.777344 72.855469 53.359375 72.441406 C 53.042969 72.703125 52.949219 73.1875 52.492188 73.304688 Z M 62.785156 81.289062 C 64.285156 79.492188 66.234375 77.890625 67.789062 76.09375 C 69.128906 74.542969 70.691406 72.949219 70.578125 71.1875 C 70.554688 71.113281 70.496094 71.078125 70.382812 71.09375 C 69.28125 71.976562 68.714844 73.398438 67.402344 74.074219 C 67.570312 74.414062 67.339844 74.3125 67.304688 74.652344 C 66.242188 75.261719 65.867188 76.636719 65 76.960938 C 64.90625 77.671875 64.5 78.066406 63.941406 78.308594 C 63.21875 79.953125 60.949219 80.722656 61.535156 82.828125 C 62.257812 82.507812 62.304688 81.867188 62.785156 81.289062 Z M 45.085938 81.578125 C 45.039062 81.9375 44.96875 82.292969 44.988281 82.925781 C 45.964844 82.558594 46.117188 81.359375 46.914062 80.808594 C 48.152344 78.007812 50.40625 76.222656 51.722656 73.496094 C 52.25 73.03125 52.644531 72.433594 52.878906 71.671875 C 53.023438 71.402344 53.527344 71.484375 53.550781 71.09375 C 53.335938 70.667969 53.671875 69.6875 53.261719 69.457031 C 50.273438 73.148438 47.027344 77.40625 45.085938 81.578125 Z M 31.617188 72.921875 C 31.046875 73.625 30.28125 74.171875 29.691406 74.84375 C 29.199219 75.40625 28.90625 76.160156 28.441406 76.671875 C 28.023438 77.136719 27.277344 77.703125 27.671875 78.308594 C 26.800781 79.179688 27.089844 81.28125 27.574219 82.15625 C 27.929688 81.3125 28.769531 80.804688 29.308594 80.230469 C 30.378906 79.09375 31.566406 77.449219 32.484375 76.191406 C 32.816406 75.730469 33.105469 75.089844 33.445312 74.75 C 33.582031 74.609375 33.820312 74.6875 33.925781 74.554688 C 33.992188 74.46875 33.933594 74.21875 34.023438 74.074219 C 34.691406 73.019531 36.757812 71.65625 36.042969 70.707031 C 33.5625 73.746094 31.066406 76.761719 28.636719 79.847656 C 28.699219 80.234375 28.542969 80.398438 28.539062 80.710938 C 28.15625 80.71875 27.980469 80.925781 27.671875 81 C 27.246094 80.410156 28.164062 79.199219 28.636719 78.597656 C 29.335938 77.695312 30.570312 76.609375 31.230469 76 C 31.730469 74.761719 32.839844 73.890625 33.828125 72.632812 C 34.195312 72.171875 34.5625 71.539062 34.984375 70.996094 C 35.910156 69.804688 36.5 69.027344 35.847656 67.726562 C 34.277344 69.226562 32.992188 71.226562 31.617188 72.921875 Z M 52.972656 66.378906 C 52.761719 66.613281 52.5625 66.867188 52.492188 67.246094 C 51.0625 68.378906 50.320312 70.207031 49.027344 71.476562 C 49.101562 71.871094 48.71875 71.808594 48.835938 72.246094 C 47.707031 73.363281 46.671875 74.570312 46.046875 76.191406 C 45.148438 76.835938 44.382812 78.625 45.179688 79.847656 C 47.238281 76.699219 49.5 73.671875 51.722656 70.515625 C 52.65625 69.1875 53.761719 68.109375 53.261719 66.378906 C 53.222656 66.542969 53.136719 66.359375 52.972656 66.378906 Z M 70.097656 64.742188 C 68.511719 65.917969 67.632812 67.796875 66.152344 69.074219 C 66.152344 69.199219 66.152344 69.328125 66.152344 69.457031 C 65.914062 69.441406 65.855469 69.609375 65.671875 69.648438 C 65.179688 70.722656 64.210938 71.59375 63.363281 72.632812 C 62.773438 73.355469 61.328125 74.945312 61.152344 75.808594 C 60.878906 77.113281 61.59375 78.847656 61.4375 80.328125 C 64.339844 77.808594 66.332031 74.378906 69.132812 71.765625 C 69.5625 70.695312 70.84375 70.046875 70.382812 68.398438 C 68.761719 69.394531 68.121094 71.375 66.824219 72.246094 C 66.945312 72.835938 66.265625 73.15625 65.960938 73.59375 C 65.460938 74.3125 65.148438 75.261719 64.421875 75.710938 C 64.347656 76.214844 63.679688 76.957031 63.171875 77.347656 C 62.792969 77.929688 62.757812 78.859375 61.921875 78.980469 C 61.640625 78.261719 62.460938 77.460938 63.074219 76.671875 C 65.511719 73.542969 68.257812 70.039062 70.289062 66.957031 C 70.34375 66.085938 70.382812 65.472656 70.382812 64.742188 C 70.289062 64.742188 70.191406 64.742188 70.097656 64.742188 Z M 27.960938 74.75 C 27.773438 74.917969 27.472656 74.964844 27.289062 75.132812 C 27.1875 75.648438 27.15625 76.167969 27.382812 76.578125 C 28.128906 76.136719 28.554688 75.363281 29.117188 74.75 C 31.601562 72.019531 33.878906 69.101562 36.042969 66.089844 C 35.832031 65.152344 36.261719 64.574219 35.847656 63.972656 C 33.265625 67.613281 30.027344 70.59375 27.960938 74.75 Z M 50.761719 66.285156 C 50.675781 66.421875 50.757812 66.648438 50.664062 66.765625 C 50.53125 66.925781 50.210938 66.945312 50.085938 67.148438 C 49.96875 67.335938 50.042969 67.636719 49.894531 67.824219 C 49.851562 67.875 49.566406 67.871094 49.511719 67.917969 C 49.039062 68.335938 49.011719 69.066406 48.644531 69.554688 C 48.546875 69.679688 48.273438 69.632812 48.164062 69.746094 C 47.992188 69.921875 48.003906 70.339844 47.875 70.515625 C 47.625 70.851562 47.238281 70.921875 47.105469 71.1875 C 47.03125 71.335938 47.105469 71.605469 47.007812 71.765625 C 46.984375 71.808594 46.742188 71.726562 46.71875 71.765625 C 46.578125 72.042969 46.707031 72.351562 46.527344 72.535156 C 46.445312 72.621094 46.039062 72.261719 46.238281 72.632812 C 46.058594 73.910156 44.34375 74.929688 44.796875 76.578125 C 45.269531 76.3125 45.53125 75.835938 45.855469 75.421875 C 46.394531 74.449219 46.96875 73.683594 47.683594 72.726562 C 48.9375 71.050781 50.089844 69.484375 51.335938 67.824219 C 52.371094 66.441406 53.675781 65.207031 53.167969 63.300781 C 53.070312 63.300781 52.972656 63.300781 52.878906 63.300781 C 52.421875 64.523438 51.367188 65.308594 50.761719 66.285156 Z M 35.367188 61.859375 C 32.324219 64.941406 29.71875 68.457031 27.09375 71.960938 C 27.363281 72.71875 27.015625 73.097656 27.289062 73.785156 C 28.933594 72.355469 29.761719 70.101562 31.519531 68.785156 C 31.6875 68.230469 32.148438 67.511719 32.578125 67.535156 C 32.410156 67.195312 32.644531 67.296875 32.675781 66.957031 C 33.878906 65.402344 35.355469 64.121094 35.945312 61.953125 C 35.832031 61.84375 35.605469 61.84375 35.367188 61.859375 Z M 27.09375 62.050781 C 27.035156 62.90625 26.871094 63.617188 27.191406 64.261719 C 27.667969 63.394531 28.457031 62.835938 28.921875 61.953125 C 28.53125 61.902344 27.613281 61.773438 27.09375 62.050781 Z M 32.097656 62.242188 C 31.257812 63.34375 30.269531 64.734375 29.40625 65.800781 C 29.183594 66.078125 28.722656 66.25 28.539062 66.570312 C 28.484375 66.664062 28.601562 66.871094 28.539062 66.957031 C 27.707031 68.109375 26.765625 68.96875 27.289062 70.417969 C 28.386719 69.625 28.988281 68.335938 29.789062 67.246094 C 31.367188 65.519531 33.1875 63.527344 34.3125 61.664062 C 33.320312 61.339844 32.703125 61.894531 32.097656 62.242188 Z M 27.09375 65.222656 C 26.882812 66.046875 27.234375 66.484375 27.191406 67.339844 C 28.757812 65.507812 30.308594 63.660156 31.714844 61.664062 C 28.984375 61.289062 28.695312 64.15625 27.09375 65.222656 Z M 61.632812 71.960938 C 61.613281 72.871094 60.890625 73.074219 61.152344 74.269531 C 62.890625 72.769531 63.972656 70.609375 65.769531 69.167969 C 66.851562 67.175781 68.429688 65.675781 69.617188 63.78125 C 69.917969 63.828125 69.957031 63.609375 70.289062 63.6875 C 70.285156 62.789062 70.25 61.929688 70.097656 61.183594 C 67.238281 64.738281 64.25 68.164062 61.632812 71.960938 Z M 52.878906 59.839844 C 52.125 60.574219 51.597656 61.492188 50.953125 62.433594 C 50.730469 62.761719 50.445312 63.039062 50.183594 63.398438 C 49.933594 63.738281 49.835938 64.25 49.605469 64.550781 C 49.523438 64.660156 49.222656 64.636719 49.125 64.742188 C 48.925781 64.964844 49 65.261719 48.835938 65.515625 C 48.246094 66.429688 47.195312 67.28125 47.007812 68.398438 C 45.746094 68.996094 46 71.109375 44.507812 71.476562 C 44.664062 72.273438 44.652344 72.851562 44.699219 73.59375 C 45.804688 72.980469 46.199219 71.675781 46.914062 70.707031 C 47.625 69.742188 48.574219 68.890625 49.027344 67.726562 C 49.558594 67.292969 49.984375 66.757812 50.28125 66.089844 C 50.699219 65.726562 51.238281 65.238281 51.625 64.648438 C 52.515625 63.300781 53.542969 61.871094 53.167969 59.839844 C 53.070312 59.839844 52.972656 59.839844 52.878906 59.839844 Z M 63.652344 66.089844 C 63.019531 67.546875 61.960938 68.570312 61.152344 69.84375 C 61.3125 70.1875 61.015625 71.078125 61.152344 71.382812 C 63.710938 68.492188 65.78125 65.109375 68.558594 62.433594 C 68.949219 61.003906 70.707031 59.933594 70.097656 58.394531 C 67.871094 60.882812 66.171875 63.898438 63.652344 66.089844 Z M 50.183594 60.414062 C 49.644531 60.972656 49.039062 61.625 48.933594 62.433594 C 48.339844 62.78125 47.746094 63.605469 47.777344 64.261719 C 46.363281 65.15625 45.785156 66.957031 44.796875 68.011719 C 44.820312 68.554688 44.785156 68.78125 44.890625 69.074219 C 44.492188 69.34375 44.355469 69.882812 44.410156 70.613281 C 45.847656 69.742188 46.230469 67.816406 47.488281 66.765625 C 49.226562 63.882812 51.277344 61.316406 53.167969 58.585938 C 53.09375 57.925781 53.164062 57.390625 53.070312 56.855469 C 53.050781 56.746094 52.960938 56.707031 52.878906 56.664062 C 52.011719 57.945312 50.589844 58.675781 50.183594 60.414062 Z M 65.769531 60.703125 C 64.722656 62.480469 63.269531 64.683594 61.726562 66.285156 C 61.59375 66.574219 61.773438 66.625 61.726562 67.054688 C 61.367188 67.046875 61.117188 67.148438 60.863281 67.246094 C 60.886719 67.765625 61.015625 68.183594 60.957031 68.785156 C 61.71875 68.566406 61.652344 67.953125 62.015625 67.4375 C 62.898438 66.183594 64.25 65.058594 65.382812 63.589844 C 66.21875 62.503906 67.015625 61.414062 67.882812 60.320312 C 68.917969 59.007812 70.785156 56.890625 69.902344 55.507812 C 68.550781 57.269531 67.394531 59.21875 65.769531 60.703125 Z M 46.71875 61.859375 C 46.652344 62.15625 46.652344 62.042969 46.71875 62.335938 C 46.253906 62.613281 46.011719 63.105469 45.949219 63.78125 C 45.71875 63.539062 45.738281 63.976562 45.660156 64.164062 C 45.550781 64.246094 45.402344 64.292969 45.179688 64.261719 C 45.199219 65.679688 43.941406 66.332031 44.410156 67.628906 C 47.558594 63.785156 50.085938 59.324219 52.972656 55.21875 C 52.636719 54.722656 52.949219 53.625 52.589844 53.390625 C 50.480469 56.0625 48.894531 59.253906 46.71875 61.859375 Z M 68.558594 53.875 C 68.25 54.605469 67.621094 55.160156 67.210938 55.703125 C 67.109375 55.832031 66.988281 56.214844 66.921875 56.277344 C 66.878906 56.320312 66.667969 56.230469 66.632812 56.277344 C 66.453125 56.53125 66.414062 56.914062 66.25 57.144531 C 65.480469 58.21875 64.570312 59.175781 63.84375 60.222656 C 62.945312 61.519531 61.851562 62.59375 61.246094 64.070312 C 61.023438 64.171875 60.804688 64.269531 60.667969 64.457031 C 60.875 64.921875 60.566406 65.90625 60.957031 66.1875 C 62.257812 65.097656 63.039062 63.597656 64.035156 62.242188 C 66.007812 59.5625 68.261719 57.109375 70 54.257812 C 70 53.746094 70 53.230469 70 52.71875 C 69.832031 52.773438 69.433594 52.601562 69.421875 52.816406 C 69.589844 53.238281 68.949219 53.6875 68.558594 53.875 Z M 44.410156 62.433594 C 44.390625 63.339844 44.191406 63.789062 44.316406 64.648438 C 45.460938 63.546875 46.285156 62.125 47.007812 60.609375 C 47.761719 60.175781 47.898438 59.339844 48.453125 58.585938 C 48.757812 58.167969 49.128906 57.839844 49.414062 57.433594 C 49.734375 56.976562 49.875 56.523438 50.183594 55.992188 C 50.980469 54.621094 53.007812 52.640625 52.394531 51.085938 C 49.25 54.367188 46.835938 58.726562 44.410156 62.433594 Z M 50.664062 50.507812 C 48.605469 53.386719 46.015625 55.734375 44.796875 59.453125 C 44.492188 59.628906 44.289062 59.910156 44.121094 60.222656 C 44.121094 60.640625 44.121094 61.054688 44.121094 61.472656 C 44.851562 61.453125 45.167969 60.21875 45.757812 59.742188 C 47.429688 56.25 50.132812 53.789062 51.820312 50.3125 C 51.300781 50.246094 51.03125 50.421875 50.664062 50.507812 Z M 48.546875 50.121094 C 47.464844 51.25 46.09375 52.089844 45.757812 53.96875 C 44.835938 54.246094 45.226562 55.636719 44.121094 55.894531 C 44.425781 56.550781 43.941406 57.636719 44.121094 58.585938 C 44.914062 58.394531 44.988281 57.410156 45.375 56.855469 C 45.871094 56.132812 46.355469 55.570312 46.914062 54.738281 C 47.253906 54.230469 47.523438 53.574219 47.875 53.199219 C 47.917969 53.15625 48.046875 53.324219 48.066406 53.296875 C 48.75 52.34375 49.253906 51.277344 49.992188 50.3125 C 49.527344 49.929688 48.886719 50.296875 48.546875 50.121094 Z M 46.433594 49.929688 C 45.769531 51.675781 43.460938 52.785156 44.121094 55.21875 C 45.203125 53.542969 46.519531 51.589844 47.394531 50.023438 C 46.964844 50.101562 46.816406 49.898438 46.433594 49.929688 Z M 44.121094 49.929688 C 44.007812 50.792969 43.785156 51.925781 44.121094 52.527344 C 44.605469 51.570312 45.425781 50.945312 45.855469 49.929688 C 45.414062 49.921875 44.863281 50.035156 44.121094 49.929688 Z M 65.191406 55.410156 C 63.824219 57.394531 62.25 59.265625 61.152344 61.183594 C 61.082031 61.304688 61.207031 61.535156 61.152344 61.664062 C 60.984375 62.046875 60.714844 62.085938 60.667969 62.335938 C 60.621094 62.601562 60.851562 62.992188 60.667969 63.203125 C 63.921875 59.4375 66.726562 55.21875 70 51.46875 C 69.8125 50.890625 70.117188 50.136719 69.710938 49.640625 C 68.335938 51.457031 66.679688 53.253906 65.191406 55.410156 Z M 63.265625 57.335938 C 63.328125 57.25 63.210938 57.042969 63.265625 56.949219 C 63.394531 56.738281 63.691406 56.679688 63.84375 56.46875 C 64.582031 55.449219 65.289062 54.140625 66.054688 53.101562 C 66.90625 51.957031 68.011719 51.027344 68.75 50.023438 C 69.40625 49.136719 70.363281 47.933594 69.710938 46.945312 C 68.613281 47.804688 68.089844 49.234375 66.921875 50.023438 C 66.507812 51.183594 65.78125 52.023438 65 52.816406 C 64.425781 54.230469 63.285156 55.078125 62.785156 56.566406 C 62.472656 56.601562 62.453125 57.246094 62.113281 56.949219 C 61.71875 58.304688 60.085938 59.464844 60.574219 60.800781 C 61.363281 59.652344 62.382812 58.550781 63.265625 57.335938 Z M 69.328125 44.253906 C 66.472656 47.363281 64.214844 51.070312 61.535156 54.355469 C 61.652344 54.886719 61.261719 54.914062 61.246094 55.316406 C 61.042969 55.464844 60.816406 55.59375 60.574219 55.703125 C 60.640625 56.433594 60.402344 57.472656 60.765625 57.914062 C 63.269531 55.253906 64.824219 51.648438 67.402344 49.0625 C 67.835938 47.320312 70.488281 46.164062 69.519531 44.253906 C 69.457031 44.253906 69.390625 44.253906 69.328125 44.253906 Z M 69.328125 41.078125 C 69.3125 41.191406 69.175781 41.183594 69.039062 41.175781 C 68.027344 42.632812 66.742188 44.328125 65.769531 45.984375 C 64.917969 47.433594 63.515625 48.324219 62.6875 49.546875 C 62.386719 49.988281 62.175781 50.734375 61.726562 51.371094 C 60.992188 52.417969 60.078125 52.976562 60.574219 54.449219 C 61.429688 54.152344 61.464844 53.03125 62.304688 52.71875 C 63.066406 50.59375 64.953125 49.59375 65.769531 47.523438 C 67.175781 46.046875 68.359375 44.34375 69.617188 42.714844 C 69.644531 42.300781 69.480469 41.550781 69.617188 41.078125 C 69.519531 41.078125 69.421875 41.078125 69.328125 41.078125 Z M 63.457031 39.636719 C 62.34375 41.277344 61.046875 42.738281 60.1875 44.636719 C 60.546875 44.855469 60.152344 45.828125 60.574219 45.984375 C 61.851562 44.183594 62.921875 42.179688 64.515625 40.695312 C 64.457031 40.214844 64.808594 40.152344 64.804688 39.730469 C 64.472656 39.582031 63.929688 39.648438 63.457031 39.636719 Z M 60.574219 39.828125 C 60.359375 40.832031 60.15625 41.550781 60.382812 42.714844 C 61.292969 41.796875 62.015625 40.691406 62.882812 39.730469 C 62.019531 39.707031 61.335938 39.480469 60.574219 39.828125 Z M 67.59375 39.925781 C 67.679688 40.457031 67.242188 40.472656 67.210938 40.886719 C 64.792969 43.117188 63.375 46.351562 61.34375 48.964844 C 61.378906 49.3125 61.601562 49.320312 61.4375 49.640625 C 61.207031 49.792969 61.027344 50 60.574219 49.929688 C 60.34375 50.402344 60.375 51.097656 60.476562 51.5625 C 60.820312 51.457031 60.855469 51.046875 61.246094 50.988281 C 63.808594 47.039062 66.972656 43.691406 69.328125 39.539062 C 68.675781 38.953125 68.25 39.910156 67.59375 39.925781 Z M 66.34375 39.25 C 64.300781 41.574219 62.304688 43.917969 60.957031 47.140625 C 60.445312 47.300781 60.316406 47.84375 60.1875 48.390625 C 60.316406 48.453125 60.367188 48.59375 60.382812 48.773438 C 62.933594 45.910156 64.890625 42.445312 67.304688 39.441406 C 66.835938 39.527344 66.667969 39.3125 66.34375 39.25 Z M 9.585938 110.535156 C 9.292969 110.441406 9.285156 110.066406 8.914062 110.054688 C 7.96875 110.113281 7.082031 109.980469 6.21875 109.957031 C 3.40625 109.882812 0.640625 110.195312 -1.859375 109.667969 C -1.570312 109.503906 -0.980469 109.417969 -0.609375 109.09375 C 2.867188 109.300781 5.410156 109.394531 9.011719 109.285156 C 9.632812 107.84375 9.179688 106.335938 9.394531 104.667969 C 9.289062 104.421875 9.214844 104.140625 9.011719 103.992188 C 9.402344 103.378906 9.542969 102.253906 9.011719 101.683594 C 8.921875 101.179688 9.335938 101.175781 9.394531 100.820312 C 9.457031 98.203125 9.015625 95.257812 9.011719 92.835938 C 9.003906 90.335938 9.269531 87.484375 8.722656 84.945312 C 9.003906 82.742188 9.128906 80.601562 8.816406 78.597656 C 8.679688 77.710938 8 76.601562 9.011719 75.808594 C 10.6875 75.523438 13.433594 75.777344 15.648438 75.613281 C 16.644531 75.542969 17.835938 75.109375 18.628906 75.519531 C 19.105469 78.289062 19.121094 81.5 19.015625 83.789062 C 19.273438 84.015625 19.316406 84.453125 19.6875 84.5625 C 19.589844 84.878906 19.421875 85.128906 19.015625 85.136719 C 19.382812 87.078125 19.363281 89.015625 19.304688 91.390625 C 19.265625 92.871094 19.636719 94.378906 19.589844 95.625 C 19.578125 96.023438 19.316406 96.382812 19.304688 96.777344 C 19.289062 97.214844 19.476562 98.082031 19.496094 98.507812 C 19.511719 98.84375 19.351562 99.875 19.398438 100.433594 C 19.421875 100.699219 19.582031 100.941406 19.589844 101.203125 C 19.710938 104.039062 19.273438 107.273438 19.976562 109.574219 C 22.304688 109.773438 24.898438 109.46875 27.09375 109.378906 C 27.367188 107.917969 27.394531 105.671875 27 104.570312 C 27.46875 103.515625 27.285156 102.441406 27.289062 101.203125 C 27.296875 97.613281 27.109375 93.742188 27.09375 90.046875 C 27.171875 89.648438 26.636719 89.863281 26.710938 89.464844 C 27.191406 87.777344 26.546875 85.445312 26.710938 83.214844 C 26.75 82.660156 26.570312 82.035156 26.519531 81.386719 C 26.40625 80.039062 26.894531 79.175781 26.230469 78.402344 C 26.375 78.097656 26.539062 77.816406 26.710938 77.539062 C 26.46875 75.136719 26.632812 72.257812 26.613281 69.457031 C 26.53125 69.125 26.175781 69.066406 26.132812 68.6875 C 26.289062 68.523438 26.324219 68.234375 26.519531 68.109375 C 26.429688 65.363281 26.304688 63.582031 26.324219 61.183594 C 28.671875 60.964844 31.238281 60.691406 33.636719 60.703125 C 34.691406 60.707031 35.945312 60.839844 36.8125 61.089844 C 36.996094 61.488281 36.578125 62.125 37.101562 62.433594 C 36.429688 63.996094 36.769531 66.457031 36.714844 68.398438 C 36.757812 68.804688 37.308594 68.703125 37.390625 69.074219 C 37.324219 69.488281 36.9375 69.582031 36.8125 69.9375 C 36.75 71.121094 37.222656 72.351562 36.90625 73.496094 C 37.074219 73.589844 37.101562 73.816406 37.292969 73.882812 C 37.339844 77.140625 36.839844 79.644531 37.582031 82.445312 C 37.617188 82.800781 37.191406 82.695312 37.292969 83.117188 C 37.558594 86.140625 37.589844 87.511719 37.871094 90.046875 C 37.296875 92.335938 37.65625 95.820312 37.582031 98.414062 C 37.46875 102.359375 37.09375 105.859375 37.582031 109.574219 C 40.28125 109.859375 41.472656 109.617188 44.316406 109.765625 C 44.761719 106.34375 44.734375 103.542969 44.507812 99.953125 C 44.609375 99.59375 44.148438 99.800781 44.21875 99.472656 C 44.367188 98.488281 44.488281 96.707031 44.121094 95.914062 C 44.5 95.039062 44.570312 93.527344 44.027344 92.929688 C 44.242188 92.277344 44.472656 91.976562 44.410156 91.199219 C 44.378906 90.757812 44.011719 90.171875 44.027344 89.949219 C 44.039062 89.78125 44.359375 89.542969 44.410156 89.371094 C 44.550781 88.902344 44.363281 88.035156 44.316406 87.15625 C 44.253906 86.089844 44.554688 85.332031 44.121094 84.65625 C 44.789062 79.699219 43.554688 73.429688 43.835938 68.59375 C 43.773438 63.535156 42.917969 57.894531 43.257812 51.46875 C 43.289062 50.835938 43.515625 50.140625 43.160156 49.546875 C 43.941406 49.058594 45.011719 49.042969 45.949219 49.0625 C 48.019531 49.109375 49.8125 49.277344 51.722656 49.546875 C 52.179688 49.398438 52.648438 49.175781 53.167969 49.351562 C 53.804688 49.824219 53.273438 50.621094 53.261719 51.371094 C 53.257812 51.589844 53.515625 51.71875 53.550781 51.949219 C 53.726562 53.113281 53.195312 54.542969 53.839844 55.410156 C 53.875 55.738281 53.671875 55.820312 53.550781 55.992188 C 54.011719 57.054688 53.730469 59.386719 53.839844 60.992188 C 53.882812 61.238281 54.027344 61.382812 54.222656 61.472656 C 54.164062 61.765625 54.019531 61.972656 53.933594 62.242188 C 54.089844 63.390625 53.6875 64.363281 54.128906 65.128906 C 54.171875 70.050781 54.269531 74.941406 54.320312 80.039062 C 54.324219 80.582031 54.574219 81.09375 54.609375 81.675781 C 54.667969 82.65625 54.589844 83.875 54.609375 84.65625 C 54.636719 85.773438 54.457031 86.925781 54.511719 88.023438 C 54.53125 88.4375 54.792969 88.785156 54.800781 89.179688 C 54.816406 89.78125 54.601562 90.375 54.609375 91.003906 C 54.640625 94.183594 54.613281 97.296875 54.703125 100.339844 C 54.722656 100.949219 54.878906 101.613281 54.800781 102.164062 C 54.769531 102.378906 54.613281 102.550781 54.609375 102.359375 C 54.621094 103.007812 54.945312 103.652344 54.992188 104.28125 C 55.140625 106.253906 54.644531 108.171875 55.089844 110.148438 C 57.203125 110.121094 59.898438 110.433594 61.4375 110.148438 C 61.953125 102.773438 61.074219 96.179688 60.957031 89.179688 C 60.945312 88.554688 61.269531 88.125 61.054688 87.542969 C 60.953125 87.355469 60.5 87.519531 60.476562 87.253906 C 60.734375 86.53125 61.019531 86.417969 60.863281 85.332031 C 60.871094 85.003906 60.277344 85.273438 60.285156 84.945312 C 60.46875 84.007812 61.289062 83.039062 60.574219 81.964844 C 60.984375 80.128906 60.496094 78.386719 60.574219 76.382812 C 60.675781 75.960938 60.246094 76.066406 60.285156 75.710938 C 60.769531 74.175781 60.140625 72.363281 60.382812 70.996094 C 60.453125 70.636719 60.128906 70.671875 59.996094 70.515625 C 60.136719 70.238281 60.125 69.8125 60.382812 69.648438 C 60.003906 66.757812 60.058594 63.941406 59.898438 61.089844 C 59.742188 58.230469 60.277344 55.257812 59.609375 53.007812 C 60.011719 50.507812 59.488281 47.90625 59.707031 45.3125 C 59.664062 44.9375 59.277344 44.910156 59.035156 44.734375 C 59.027344 44.085938 59.527344 43.945312 59.707031 43.484375 C 59.578125 42.183594 59.847656 40.777344 59.609375 39.441406 C 60.496094 38.824219 61.628906 39.015625 62.785156 38.960938 C 65.308594 38.847656 68.113281 38.296875 70.382812 38.671875 C 69.839844 43.125 71.0625 49.453125 70.480469 53.585938 C 71.289062 57.859375 70.550781 62.964844 71.152344 67.054688 C 70.71875 67.542969 71.355469 68.582031 70.867188 69.074219 C 71.238281 69.828125 71.324219 70.941406 71.25 72.054688 C 71.273438 72.222656 71.417969 72.273438 71.636719 72.246094 C 71.007812 74.566406 71.765625 76.769531 71.441406 79.75 C 71.628906 79.949219 71.675781 80.285156 71.828125 80.519531 C 71.660156 82.679688 71.980469 84.957031 72.019531 87.734375 C 72.03125 88.4375 71.800781 89.167969 71.828125 89.851562 C 71.855469 90.601562 72.117188 91.324219 72.117188 92.066406 C 72.117188 92.722656 71.980469 93.535156 72.019531 94.277344 C 72.046875 94.75 72.265625 95.230469 72.214844 95.625 C 72.207031 95.660156 71.925781 95.941406 71.921875 96.007812 C 71.921875 96.1875 72.195312 96.445312 72.214844 96.585938 C 72.246094 96.863281 72.023438 97.25 72.019531 97.546875 C 72.019531 98.183594 72.234375 98.777344 72.214844 99.277344 C 72.050781 102.941406 71.972656 106.203125 72.019531 109.863281 C 75.960938 110.445312 80.371094 110.125 83.949219 110.054688 C 84.613281 110.039062 84.925781 109.738281 85.390625 110.148438 C 85.125 111.097656 84.230469 110.726562 83.082031 110.726562 C 82.003906 110.726562 80.699219 111.058594 79.8125 111.015625 C 78.941406 110.972656 78.191406 110.734375 77.3125 110.632812 C 75.667969 110.894531 73.875 110.585938 72.214844 110.632812 C 71.773438 110.820312 72.160156 111.261719 71.730469 111.402344 C 71.328125 111.355469 71.121094 111.113281 71.152344 110.632812 C 68.335938 110.578125 65.5 110.675781 62.402344 110.726562 C 62.117188 110.765625 62.210938 111.179688 62.015625 111.304688 C 61.664062 111.304688 61.648438 110.96875 61.4375 110.824219 C 58.789062 110.925781 54.847656 110.953125 52.011719 110.632812 C 51.734375 110.644531 51.84375 111.042969 51.53125 111.015625 C 51.347656 110.378906 50.03125 110.753906 49.703125 110.535156 C 49.328125 110.574219 49.519531 111.183594 49.027344 111.113281 C 48.5 111.011719 49.214844 110.804688 49.222656 110.632812 C 47.882812 110.558594 46.050781 110.007812 44.796875 110.726562 C 43.25 110.09375 41.984375 110.367188 40.371094 110.34375 C 39.234375 110.324219 37.9375 110.160156 37.195312 110.535156 C 36.140625 109.804688 34.65625 110.34375 33.539062 110.148438 C 33.425781 110.128906 33.199219 109.875 33.058594 109.863281 C 32.488281 109.804688 31.769531 110.144531 31.039062 110.054688 C 30.734375 110.015625 30.238281 109.8125 29.40625 109.957031 C 29.011719 110.046875 28.894531 110.410156 28.441406 110.4375 C 28.273438 110.242188 28.515625 110.25 28.34375 110.054688 C 27.34375 110.074219 26.324219 110.164062 25.269531 110.246094 C 23.507812 110.382812 21.039062 110.5625 19.304688 110.34375 C 18.214844 110.203125 17.320312 109.621094 16.226562 110.34375 C 16.226562 110.148438 16.226562 109.957031 16.226562 109.765625 C 15.996094 110.054688 15.6875 109.621094 15.359375 109.667969 C 15.140625 109.703125 15.015625 109.933594 14.78125 109.957031 C 13.742188 110.0625 11.878906 110.265625 10.933594 110.054688 C 10.679688 109.996094 9.789062 110.128906 9.585938 110.535156 "/></g><path style=" stroke:none;fill-rule:nonzero;fill:#ffffff;fill-opacity:1;" d="M 65.476562 20.300781 C 64.035156 22.609375 62.597656 24.921875 61.4375 27.515625 C 61.207031 27.703125 61.066406 27.976562 60.765625 28.09375 C 60.082031 30.070312 58.523438 31.171875 57.78125 33.09375 C 57.542969 33.078125 57.484375 33.246094 57.300781 33.285156 C 57.292969 33.855469 56.941406 34.082031 56.917969 34.632812 C 56.523438 34.59375 56.527344 34.949219 56.050781 34.824219 C 55.945312 33.605469 55.78125 32.683594 55.761719 31.171875 C 54.117188 32.527344 52.792969 34.25 51.242188 35.789062 C 50.273438 36.746094 49.21875 37.613281 48.257812 38.578125 C 44.417969 42.441406 40.304688 46.511719 35.945312 49.738281 C 34.863281 51.125 33.414062 52.144531 32.289062 53.488281 C 32.089844 53.542969 31.980469 53.761719 31.808594 53.585938 C 30.941406 54.730469 29.71875 55.542969 28.632812 56.472656 C 27.542969 57.40625 26.605469 58.488281 25.554688 59.453125 C 24.664062 60.273438 23.484375 60.816406 22.476562 61.570312 C 21.519531 62.285156 20.777344 63.320312 19.878906 64.070312 C 18.171875 65.496094 16.292969 66.761719 14.589844 68.207031 C 14.488281 67.988281 14.371094 67.785156 14.203125 67.628906 C 16.5 65.882812 18.648438 64.195312 20.746094 62.242188 C 23.359375 59.816406 26.441406 58.1875 28.730469 55.414062 C 31.910156 53.148438 34.648438 50.324219 37.582031 47.71875 C 38.0625 47.289062 38.636719 46.988281 39.121094 46.5625 C 39.886719 45.890625 40.449219 44.992188 41.238281 44.351562 C 42.183594 43.574219 43.203125 42.898438 44.121094 42.039062 C 46.679688 39.652344 49.214844 36.9375 51.816406 34.441406 C 53.117188 33.195312 54.347656 31.867188 55.378906 30.402344 C 54.320312 29.804688 53.359375 30.886719 52.585938 30.207031 C 52.417969 29.289062 53.34375 29.210938 53.839844 28.957031 C 54.429688 28.65625 54.933594 28.117188 55.570312 27.996094 C 55.640625 27.617188 56.136719 27.664062 56.148438 27.226562 C 58.351562 26.269531 60.671875 23.835938 62.496094 21.9375 C 63.222656 21.179688 64.578125 18.972656 65.476562 20.300781 "/><path style=" stroke:none;fill-rule:nonzero;fill:#ffffff;fill-opacity:1;" d="M 14.011719 67.726562 C 14.289062 67.769531 14.238281 68.140625 14.492188 68.207031 C 13.089844 69.753906 10.777344 70.390625 9.394531 71.960938 C 6.675781 73.152344 4.648438 75.035156 1.410156 75.710938 C 1.503906 74.9375 2.265625 74.832031 2.949219 74.652344 C 6.261719 72.769531 9.703125 71.015625 12.570312 68.6875 C 13.277344 68.59375 13.617188 68.132812 14.011719 67.726562 "/><g style="fill:#ffffff;fill-opacity:1;"><g transform="translate(80.548854, 69.730523)"><path style="stroke:none" d="M 29.078125 0 L 5.4375 0 L 5.4375 -30.75 L 17.40625 -30.75 C 19.96875 -30.75 22.0625 -30.296875 23.6875 -29.390625 C 25.28125 -28.503906 26.515625 -27.296875 27.390625 -25.765625 C 28.273438 -24.234375 28.71875 -22.539062 28.71875 -20.6875 C 28.71875 -18.382812 28.007812 -16.328125 26.59375 -14.515625 C 25.1875 -12.703125 23.40625 -11.503906 21.25 -10.921875 Z M 8.21875 -29.125 L 20.234375 -12.328125 C 22.210938 -12.742188 23.847656 -13.726562 25.140625 -15.28125 C 26.441406 -16.84375 27.09375 -18.644531 27.09375 -20.6875 C 27.09375 -22.300781 26.691406 -23.769531 25.890625 -25.09375 C 25.097656 -26.425781 23.976562 -27.441406 22.53125 -28.140625 C 21.238281 -28.796875 19.546875 -29.125 17.453125 -29.125 Z M 7.0625 -28.0625 L 7.0625 -12.203125 L 18.421875 -12.203125 Z M 7.0625 -1.640625 L 25.984375 -1.640625 L 19.53125 -10.609375 L 18.15625 -10.5625 L 7.0625 -10.5625 Z M 7.0625 -1.640625 "/></g></g><g style="fill:#ffffff;fill-opacity:1;"><g transform="translate(111.38649, 69.730523)"><path style="stroke:none" d="M 5.296875 -30.75 L 27.703125 -30.75 L 27.703125 -22.984375 L 13.34375 -22.984375 L 13.34375 -19.09375 L 25.28125 -19.09375 L 25.28125 -11.703125 L 13.34375 -11.703125 L 13.34375 -7.78125 L 27.703125 -7.78125 L 27.703125 0 L 5.296875 0 Z M 5.296875 -30.75 "/></g></g><g style="fill:#ffffff;fill-opacity:1;"><g transform="translate(142.224125, 69.730523)"><path style="stroke:none" d="M 16.125 -29.78125 C 14.15625 -29.78125 12.320312 -29.285156 10.625 -28.296875 C 8.9375 -27.316406 7.585938 -25.976562 6.578125 -24.28125 C 5.578125 -22.582031 5.078125 -20.734375 5.078125 -18.734375 L 5.078125 -12.90625 C 5.078125 -10.8125 5.375 -9.085938 5.96875 -7.734375 C 6.789062 -5.816406 8.039062 -4.253906 9.71875 -3.046875 C 11.394531 -1.835938 13.28125 -1.160156 15.375 -1.015625 L 15.375 -15.375 L 28.859375 -15.375 L 28.859375 -12.453125 C 28.859375 -10.578125 28.578125 -8.898438 28.015625 -7.421875 C 27.097656 -4.972656 25.5625 -3.015625 23.40625 -1.546875 C 21.257812 -0.078125 18.832031 0.65625 16.125 0.65625 C 13.5625 0.65625 11.226562 -0.0390625 9.125 -1.4375 C 7.019531 -2.832031 5.476562 -4.695312 4.5 -7.03125 C 3.800781 -8.675781 3.453125 -10.632812 3.453125 -12.90625 L 3.453125 -18.734375 C 3.453125 -21.035156 4.015625 -23.15625 5.140625 -25.09375 C 6.273438 -27.039062 7.816406 -28.582031 9.765625 -29.71875 C 11.710938 -30.851562 13.832031 -31.421875 16.125 -31.421875 C 18.039062 -31.421875 19.789062 -31.101562 21.375 -30.46875 C 22.96875 -29.832031 24.328125 -28.910156 25.453125 -27.703125 C 26.367188 -26.703125 27.113281 -25.582031 27.6875 -24.34375 C 28.257812 -23.101562 28.546875 -21.851562 28.546875 -20.59375 L 26.953125 -20.59375 C 26.921875 -21.675781 26.644531 -22.75 26.125 -23.8125 C 25.613281 -24.875 24.960938 -25.832031 24.171875 -26.6875 C 22.191406 -28.75 19.507812 -29.78125 16.125 -29.78125 Z M 27.21875 -13.78125 L 16.96875 -13.78125 L 16.96875 -1.015625 C 19.09375 -1.160156 21 -1.828125 22.6875 -3.015625 C 24.382812 -4.210938 25.628906 -5.800781 26.421875 -7.78125 C 26.953125 -9.164062 27.21875 -10.722656 27.21875 -12.453125 Z M 27.21875 -13.78125 "/></g></g><g style="fill:#ffffff;fill-opacity:1;"><g transform="translate(173.061761, 69.730523)"><path style="stroke:none" d="M 29.078125 0 L 5.4375 0 L 5.4375 -30.75 L 17.40625 -30.75 C 19.96875 -30.75 22.0625 -30.296875 23.6875 -29.390625 C 25.28125 -28.503906 26.515625 -27.296875 27.390625 -25.765625 C 28.273438 -24.234375 28.71875 -22.539062 28.71875 -20.6875 C 28.71875 -18.382812 28.007812 -16.328125 26.59375 -14.515625 C 25.1875 -12.703125 23.40625 -11.503906 21.25 -10.921875 Z M 8.21875 -29.125 L 20.234375 -12.328125 C 22.210938 -12.742188 23.847656 -13.726562 25.140625 -15.28125 C 26.441406 -16.84375 27.09375 -18.644531 27.09375 -20.6875 C 27.09375 -22.300781 26.691406 -23.769531 25.890625 -25.09375 C 25.097656 -26.425781 23.976562 -27.441406 22.53125 -28.140625 C 21.238281 -28.796875 19.546875 -29.125 17.453125 -29.125 Z M 7.0625 -28.0625 L 7.0625 -12.203125 L 18.421875 -12.203125 Z M 7.0625 -1.640625 L 25.984375 -1.640625 L 19.53125 -10.609375 L 18.15625 -10.5625 L 7.0625 -10.5625 Z M 7.0625 -1.640625 "/></g></g><g style="fill:#ffffff;fill-opacity:1;"><g transform="translate(203.899396, 69.730523)"><path style="stroke:none" d="M 30.84375 0 L 1.859375 0 L 16.34375 -31.421875 Z M 4.421875 -1.640625 L 28.28125 -1.640625 L 16.34375 -27.53125 Z M 4.421875 -1.640625 "/></g></g><g style="fill:#ffffff;fill-opacity:1;"><g transform="translate(234.737031, 69.730523)"><path style="stroke:none" d="M 6.140625 0 L 6.140625 -30.75 L 19 -30.75 C 21.144531 -30.75 23 -30.351562 24.5625 -29.5625 C 26.363281 -28.644531 27.789062 -27.335938 28.84375 -25.640625 C 29.90625 -23.953125 30.4375 -22.09375 30.4375 -20.0625 C 30.4375 -18.03125 29.914062 -16.160156 28.875 -14.453125 C 27.832031 -12.742188 26.410156 -11.429688 24.609375 -10.515625 C 23.078125 -9.722656 21.207031 -9.328125 19 -9.328125 L 14.1875 -9.328125 L 14.1875 0 Z M 6.140625 0 "/></g></g><g style="fill:#ffffff;fill-opacity:1;"><g transform="translate(265.574667, 69.730523)"><path style="stroke:none" d="M 4.5 0 L 4.5 -30.75 L 6.140625 -30.75 L 6.140625 -22.046875 C 9.171875 -22.046875 12.039062 -21.460938 14.75 -20.296875 C 17.46875 -19.140625 19.84375 -17.519531 21.875 -15.4375 C 23.90625 -13.363281 25.46875 -10.988281 26.5625 -8.3125 L 26.5625 -30.75 L 28.1875 -30.75 L 28.1875 0 L 26.5625 0 C 26.5625 -3.6875 25.644531 -7.097656 23.8125 -10.234375 C 21.988281 -13.367188 19.507812 -15.847656 16.375 -17.671875 C 13.238281 -19.503906 9.828125 -20.421875 6.140625 -20.421875 L 6.140625 0 Z M 4.5 0 "/></g></g><g style="fill:#ffffff;fill-opacity:1;"><g transform="translate(190.593299, 107.506204)"><path style="stroke:none" d="M 2.140625 -4.953125 L 4.46875 -4.953125 C 5.050781 -4.953125 5.53125 -5.148438 5.90625 -5.546875 C 6.28125 -5.953125 6.46875 -6.445312 6.46875 -7.03125 C 6.46875 -7.613281 6.285156 -8.097656 5.921875 -8.484375 C 5.566406 -8.859375 5.082031 -9.046875 4.46875 -9.046875 L 2.140625 -9.046875 Z M 7.5 -7 C 7.5 -6.125 7.191406 -5.398438 6.578125 -4.828125 C 6.023438 -4.316406 5.363281 -4.035156 4.59375 -3.984375 L 7.671875 0 L 6.28125 0 L 3.34375 -3.96875 L 2.140625 -3.96875 L 2.140625 0 L 1.109375 0 L 1.109375 -10.03125 L 4.328125 -10.03125 C 5.210938 -10.03125 5.960938 -9.75 6.578125 -9.1875 C 7.191406 -8.59375 7.5 -7.863281 7.5 -7 Z M 7.5 -7 "/></g></g><g style="fill:#ffffff;fill-opacity:1;"><g transform="translate(198.612053, 107.506204)"><path style="stroke:none" d="M 7.453125 -3.390625 L 7.453125 -2.84375 L 1.734375 -2.84375 C 1.835938 -2.28125 2.109375 -1.820312 2.546875 -1.46875 C 3.003906 -1.101562 3.507812 -0.921875 4.0625 -0.921875 C 4.425781 -0.921875 4.785156 -1.007812 5.140625 -1.1875 C 5.472656 -1.363281 5.75 -1.601562 5.96875 -1.90625 L 7.15625 -1.90625 C 6.875 -1.28125 6.460938 -0.789062 5.921875 -0.4375 C 5.359375 -0.0703125 4.789062 0.109375 4.21875 0.109375 C 3.632812 0.109375 3.144531 0.0195312 2.75 -0.15625 C 2.332031 -0.332031 1.972656 -0.578125 1.671875 -0.890625 C 0.992188 -1.535156 0.65625 -2.332031 0.65625 -3.28125 C 0.65625 -4.207031 0.992188 -5.003906 1.671875 -5.671875 C 2.328125 -6.335938 3.125 -6.671875 4.0625 -6.671875 C 4.957031 -6.671875 5.75 -6.347656 6.4375 -5.703125 C 7.113281 -5.054688 7.453125 -4.285156 7.453125 -3.390625 Z M 6.359375 -3.734375 C 6.242188 -4.285156 5.96875 -4.742188 5.53125 -5.109375 C 5.09375 -5.460938 4.601562 -5.640625 4.0625 -5.640625 C 3.207031 -5.640625 2.539062 -5.257812 2.0625 -4.5 C 1.914062 -4.257812 1.8125 -4.003906 1.75 -3.734375 Z M 6.359375 -3.734375 "/></g></g><g style="fill:#ffffff;fill-opacity:1;"><g transform="translate(206.645539, 107.506204)"><path style="stroke:none" d="M 2.140625 3.6875 L 1.109375 3.6875 L 1.109375 -6.484375 L 2.140625 -6.484375 L 2.140625 -5.390625 C 2.203125 -5.460938 2.265625 -5.535156 2.328125 -5.609375 C 2.941406 -6.296875 3.695312 -6.640625 4.59375 -6.640625 C 5.476562 -6.640625 6.234375 -6.296875 6.859375 -5.609375 C 7.453125 -4.941406 7.75 -4.15625 7.75 -3.25 C 7.75 -2.34375 7.453125 -1.554688 6.859375 -0.890625 C 6.234375 -0.203125 5.476562 0.140625 4.59375 0.140625 C 3.695312 0.140625 2.941406 -0.203125 2.328125 -0.890625 C 2.265625 -0.953125 2.203125 -1.023438 2.140625 -1.109375 Z M 6.71875 -3.25 C 6.71875 -3.875 6.5 -4.421875 6.0625 -4.890625 C 5.625 -5.367188 5.078125 -5.609375 4.421875 -5.609375 C 3.773438 -5.609375 3.234375 -5.367188 2.796875 -4.890625 C 2.359375 -4.421875 2.140625 -3.875 2.140625 -3.25 C 2.140625 -2.613281 2.359375 -2.0625 2.796875 -1.59375 C 3.234375 -1.125 3.773438 -0.890625 4.421875 -0.890625 C 5.078125 -0.890625 5.625 -1.125 6.0625 -1.59375 C 6.5 -2.0625 6.71875 -2.613281 6.71875 -3.25 Z M 6.71875 -3.25 "/></g></g><g style="fill:#ffffff;fill-opacity:1;"><g transform="translate(215.047541, 107.506204)"><path style="stroke:none" d="M 6.421875 -3.28125 C 6.421875 -3.925781 6.1875 -4.476562 5.71875 -4.9375 C 5.257812 -5.40625 4.707031 -5.640625 4.0625 -5.640625 C 3.40625 -5.640625 2.847656 -5.40625 2.390625 -4.9375 C 1.929688 -4.476562 1.703125 -3.925781 1.703125 -3.28125 C 1.703125 -2.632812 1.929688 -2.082031 2.390625 -1.625 C 2.847656 -1.15625 3.40625 -0.921875 4.0625 -0.921875 C 4.707031 -0.921875 5.257812 -1.15625 5.71875 -1.625 C 6.1875 -2.082031 6.421875 -2.632812 6.421875 -3.28125 Z M 7.453125 -3.28125 C 7.453125 -2.332031 7.117188 -1.535156 6.453125 -0.890625 C 5.773438 -0.222656 4.976562 0.109375 4.0625 0.109375 C 3.132812 0.109375 2.335938 -0.222656 1.671875 -0.890625 C 0.992188 -1.535156 0.65625 -2.332031 0.65625 -3.28125 C 0.65625 -4.207031 0.992188 -5.003906 1.671875 -5.671875 C 2.328125 -6.335938 3.125 -6.671875 4.0625 -6.671875 C 4.988281 -6.671875 5.785156 -6.335938 6.453125 -5.671875 C 7.117188 -5.003906 7.453125 -4.207031 7.453125 -3.28125 Z M 7.453125 -3.28125 "/></g></g><g style="fill:#ffffff;fill-opacity:1;"><g transform="translate(223.154732, 107.506204)"><path style="stroke:none" d="M 4.4375 -5.140625 C 4.195312 -5.359375 3.941406 -5.46875 3.671875 -5.46875 C 3.410156 -5.46875 3.1875 -5.394531 3 -5.25 C 2.800781 -5.09375 2.632812 -4.90625 2.5 -4.6875 C 2.257812 -4.257812 2.140625 -3.78125 2.140625 -3.25 L 2.140625 0 L 1.109375 0 L 1.109375 -6.484375 L 2.140625 -6.484375 L 2.140625 -5.140625 L 2.1875 -5.40625 C 2.53125 -6.21875 3.066406 -6.625 3.796875 -6.625 C 4.015625 -6.625 4.226562 -6.578125 4.4375 -6.484375 Z M 4.4375 -5.140625 "/></g></g><g style="fill:#ffffff;fill-opacity:1;"><g transform="translate(227.738975, 107.506204)"><path style="stroke:none" d="M 0.296875 -5.53125 L 0.296875 -6.484375 L 1.921875 -6.484375 L 1.921875 -9.015625 L 2.953125 -9.015625 L 2.953125 -6.484375 L 4.5625 -6.484375 L 4.5625 -5.53125 L 2.953125 -5.53125 L 2.953125 0 L 1.921875 0 L 1.921875 -5.53125 Z M 0.296875 -5.53125 "/></g></g><g style="fill:#ffffff;fill-opacity:1;"><g transform="translate(232.588553, 107.506204)"><path style="stroke:none" d="M 2.15625 -8.734375 C 2.28125 -8.609375 2.34375 -8.457031 2.34375 -8.28125 C 2.34375 -8.09375 2.28125 -7.929688 2.15625 -7.796875 C 2.03125 -7.671875 1.878906 -7.609375 1.703125 -7.609375 C 1.515625 -7.609375 1.351562 -7.671875 1.21875 -7.796875 C 1.09375 -7.929688 1.03125 -8.09375 1.03125 -8.28125 C 1.03125 -8.457031 1.09375 -8.609375 1.21875 -8.734375 C 1.351562 -8.859375 1.515625 -8.921875 1.703125 -8.921875 C 1.878906 -8.921875 2.03125 -8.859375 2.15625 -8.734375 Z M 2.21875 0 L 1.1875 0 L 1.1875 -6.484375 L 2.21875 -6.484375 Z M 2.21875 0 "/></g></g><g style="fill:#ffffff;fill-opacity:1;"><g transform="translate(235.964091, 107.506204)"><path style="stroke:none" d="M 5.59375 0 L 5.59375 -4.0625 C 5.59375 -4.476562 5.5 -4.835938 5.3125 -5.140625 C 5.113281 -5.441406 4.789062 -5.59375 4.34375 -5.59375 C 3.90625 -5.59375 3.550781 -5.507812 3.28125 -5.34375 C 3 -5.175781 2.773438 -4.957031 2.609375 -4.6875 C 2.296875 -4.195312 2.140625 -3.539062 2.140625 -2.71875 L 2.140625 0 L 1.109375 0 L 1.109375 -6.484375 L 2.140625 -6.484375 L 2.140625 -5.375 C 2.359375 -5.738281 2.632812 -6.035156 2.96875 -6.265625 C 3.320312 -6.503906 3.726562 -6.625 4.1875 -6.625 C 4.644531 -6.625 5.019531 -6.5625 5.3125 -6.4375 C 5.59375 -6.289062 5.832031 -6.109375 6.03125 -5.890625 C 6.425781 -5.421875 6.625 -4.8125 6.625 -4.0625 L 6.625 0 Z M 5.59375 0 "/></g></g><g style="fill:#ffffff;fill-opacity:1;"><g transform="translate(243.466929, 107.506204)"><path style="stroke:none" d="M 6.359375 -3.25 C 6.359375 -3.875 6.140625 -4.421875 5.703125 -4.890625 C 5.265625 -5.367188 4.722656 -5.609375 4.078125 -5.609375 C 3.441406 -5.609375 2.898438 -5.367188 2.453125 -4.890625 C 2.003906 -4.429688 1.78125 -3.882812 1.78125 -3.25 C 1.78125 -2.601562 2.003906 -2.050781 2.453125 -1.59375 C 2.898438 -1.125 3.441406 -0.890625 4.078125 -0.890625 C 4.722656 -0.890625 5.265625 -1.125 5.703125 -1.59375 C 6.140625 -2.0625 6.359375 -2.613281 6.359375 -3.25 Z M 1.75 0.890625 C 1.851562 1.285156 2.066406 1.644531 2.390625 1.96875 C 2.835938 2.425781 3.382812 2.65625 4.03125 2.65625 C 4.664062 2.65625 5.210938 2.425781 5.671875 1.96875 C 6.128906 1.507812 6.359375 0.960938 6.359375 0.328125 L 6.359375 -1.09375 C 6.304688 -1.019531 6.25 -0.953125 6.1875 -0.890625 C 5.570312 -0.203125 4.816406 0.140625 3.921875 0.140625 C 3.015625 0.140625 2.257812 -0.203125 1.65625 -0.890625 C 1.050781 -1.554688 0.75 -2.34375 0.75 -3.25 C 0.75 -4.15625 1.050781 -4.941406 1.65625 -5.609375 C 2.257812 -6.296875 3.015625 -6.640625 3.921875 -6.640625 C 4.785156 -6.640625 5.539062 -6.296875 6.1875 -5.609375 C 6.25 -5.535156 6.304688 -5.46875 6.359375 -5.40625 L 6.359375 -6.484375 L 7.390625 -6.484375 L 7.390625 0.328125 C 7.390625 1.253906 7.0625 2.046875 6.40625 2.703125 C 5.738281 3.359375 4.945312 3.6875 4.03125 3.6875 C 3.101562 3.6875 2.3125 3.359375 1.65625 2.703125 C 1.132812 2.179688 0.816406 1.578125 0.703125 0.890625 Z M 1.75 0.890625 "/></g></g><g style="fill:#ffffff;fill-opacity:1;"><g transform="translate(251.957368, 107.506204)"><path style="stroke:none" d="M 1.96875 0.140625 C 1.738281 0.140625 1.539062 0.0546875 1.375 -0.109375 C 1.195312 -0.265625 1.109375 -0.453125 1.109375 -0.671875 C 1.109375 -0.898438 1.191406 -1.097656 1.359375 -1.265625 C 1.523438 -1.429688 1.726562 -1.515625 1.96875 -1.515625 C 2.195312 -1.515625 2.398438 -1.4375 2.578125 -1.28125 C 2.742188 -1.113281 2.828125 -0.914062 2.828125 -0.6875 C 2.828125 -0.457031 2.738281 -0.265625 2.5625 -0.109375 C 2.382812 0.0546875 2.1875 0.140625 1.96875 0.140625 Z M 1.96875 0.140625 "/></g></g><g style="fill:#ffffff;fill-opacity:1;"><g transform="translate(255.893039, 107.506204)"><path style="stroke:none" d=""/></g></g><g style="fill:#ffffff;fill-opacity:1;"><g transform="translate(259.872929, 107.506204)"><path style="stroke:none" d="M 8.890625 -5.015625 C 8.890625 -4.285156 8.757812 -3.617188 8.5 -3.015625 C 8.21875 -2.390625 7.847656 -1.859375 7.390625 -1.421875 C 6.929688 -0.972656 6.382812 -0.628906 5.75 -0.390625 C 5.125 -0.128906 4.453125 0 3.734375 0 L 1.109375 0 L 1.109375 -10.03125 L 3.734375 -10.03125 C 4.453125 -10.03125 5.125 -9.90625 5.75 -9.65625 C 6.382812 -9.40625 6.929688 -9.054688 7.390625 -8.609375 C 7.847656 -8.171875 8.21875 -7.644531 8.5 -7.03125 C 8.757812 -6.414062 8.890625 -5.742188 8.890625 -5.015625 Z M 7.890625 -5.015625 C 7.890625 -6.148438 7.488281 -7.101562 6.6875 -7.875 C 5.894531 -8.625 4.921875 -9 3.765625 -9 L 2.140625 -9 L 2.140625 -1.03125 L 3.765625 -1.03125 C 4.921875 -1.03125 5.894531 -1.40625 6.6875 -2.15625 C 7.488281 -2.914062 7.890625 -3.867188 7.890625 -5.015625 Z M 7.890625 -5.015625 "/></g></g><g style="fill:#ffffff;fill-opacity:1;"><g transform="translate(269.424675, 107.506204)"><path style="stroke:none" d="M 6.421875 -3.28125 C 6.421875 -3.925781 6.1875 -4.476562 5.71875 -4.9375 C 5.257812 -5.40625 4.707031 -5.640625 4.0625 -5.640625 C 3.40625 -5.640625 2.847656 -5.40625 2.390625 -4.9375 C 1.929688 -4.476562 1.703125 -3.925781 1.703125 -3.28125 C 1.703125 -2.632812 1.929688 -2.082031 2.390625 -1.625 C 2.847656 -1.15625 3.40625 -0.921875 4.0625 -0.921875 C 4.707031 -0.921875 5.257812 -1.15625 5.71875 -1.625 C 6.1875 -2.082031 6.421875 -2.632812 6.421875 -3.28125 Z M 7.453125 -3.28125 C 7.453125 -2.332031 7.117188 -1.535156 6.453125 -0.890625 C 5.773438 -0.222656 4.976562 0.109375 4.0625 0.109375 C 3.132812 0.109375 2.335938 -0.222656 1.671875 -0.890625 C 0.992188 -1.535156 0.65625 -2.332031 0.65625 -3.28125 C 0.65625 -4.207031 0.992188 -5.003906 1.671875 -5.671875 C 2.328125 -6.335938 3.125 -6.671875 4.0625 -6.671875 C 4.988281 -6.671875 5.785156 -6.335938 6.453125 -5.671875 C 7.117188 -5.003906 7.453125 -4.207031 7.453125 -3.28125 Z M 7.453125 -3.28125 "/></g></g><g style="fill:#ffffff;fill-opacity:1;"><g transform="translate(277.531866, 107.506204)"><path style="stroke:none" d="M 5.59375 0 L 5.59375 -4.0625 C 5.59375 -4.476562 5.5 -4.835938 5.3125 -5.140625 C 5.113281 -5.441406 4.789062 -5.59375 4.34375 -5.59375 C 3.90625 -5.59375 3.550781 -5.507812 3.28125 -5.34375 C 3 -5.175781 2.773438 -4.957031 2.609375 -4.6875 C 2.296875 -4.195312 2.140625 -3.539062 2.140625 -2.71875 L 2.140625 0 L 1.109375 0 L 1.109375 -6.484375 L 2.140625 -6.484375 L 2.140625 -5.375 C 2.359375 -5.738281 2.632812 -6.035156 2.96875 -6.265625 C 3.320312 -6.503906 3.726562 -6.625 4.1875 -6.625 C 4.644531 -6.625 5.019531 -6.5625 5.3125 -6.4375 C 5.59375 -6.289062 5.832031 -6.109375 6.03125 -5.890625 C 6.425781 -5.421875 6.625 -4.8125 6.625 -4.0625 L 6.625 0 Z M 5.59375 0 "/></g></g><g style="fill:#ffffff;fill-opacity:1;"><g transform="translate(285.034705, 107.506204)"><path style="stroke:none" d="M 7.453125 -3.390625 L 7.453125 -2.84375 L 1.734375 -2.84375 C 1.835938 -2.28125 2.109375 -1.820312 2.546875 -1.46875 C 3.003906 -1.101562 3.507812 -0.921875 4.0625 -0.921875 C 4.425781 -0.921875 4.785156 -1.007812 5.140625 -1.1875 C 5.472656 -1.363281 5.75 -1.601562 5.96875 -1.90625 L 7.15625 -1.90625 C 6.875 -1.28125 6.460938 -0.789062 5.921875 -0.4375 C 5.359375 -0.0703125 4.789062 0.109375 4.21875 0.109375 C 3.632812 0.109375 3.144531 0.0195312 2.75 -0.15625 C 2.332031 -0.332031 1.972656 -0.578125 1.671875 -0.890625 C 0.992188 -1.535156 0.65625 -2.332031 0.65625 -3.28125 C 0.65625 -4.207031 0.992188 -5.003906 1.671875 -5.671875 C 2.328125 -6.335938 3.125 -6.671875 4.0625 -6.671875 C 4.957031 -6.671875 5.75 -6.347656 6.4375 -5.703125 C 7.113281 -5.054688 7.453125 -4.285156 7.453125 -3.390625 Z M 6.359375 -3.734375 C 6.242188 -4.285156 5.96875 -4.742188 5.53125 -5.109375 C 5.09375 -5.460938 4.601562 -5.640625 4.0625 -5.640625 C 3.207031 -5.640625 2.539062 -5.257812 2.0625 -4.5 C 1.914062 -4.257812 1.8125 -4.003906 1.75 -3.734375 Z M 6.359375 -3.734375 "/></g></g><g style="fill:#ffffff;fill-opacity:1;"><g transform="translate(293.06819, 107.506204)"><path style="stroke:none" d="M 1.96875 0.140625 C 1.738281 0.140625 1.539062 0.0546875 1.375 -0.109375 C 1.195312 -0.265625 1.109375 -0.453125 1.109375 -0.671875 C 1.109375 -0.898438 1.191406 -1.097656 1.359375 -1.265625 C 1.523438 -1.429688 1.726562 -1.515625 1.96875 -1.515625 C 2.195312 -1.515625 2.398438 -1.4375 2.578125 -1.28125 C 2.742188 -1.113281 2.828125 -0.914062 2.828125 -0.6875 C 2.828125 -0.457031 2.738281 -0.265625 2.5625 -0.109375 C 2.382812 0.0546875 2.1875 0.140625 1.96875 0.140625 Z M 1.96875 0.140625 "/></g></g></g></svg>