<svg xmlns="http://www.w3.org/2000/svg" xmlns:xlink="http://www.w3.org/1999/xlink" width="200" zoomAndPan="magnify" viewBox="0 0 150 149.999998" height="200" preserveAspectRatio="xMidYMid meet" version="1.2"><defs><clipPath id="1b6ca79d99"><path d="M 5.632812 34 L 144.382812 34 L 144.382812 149.988281 L 5.632812 149.988281 Z M 5.632812 34 "/></clipPath></defs><g id="14064d5925"><g clip-rule="nonzero" clip-path="url(#1b6ca79d99)"><path style=" stroke:none;fill-rule:nonzero;fill:#5e17eb;fill-opacity:1;" d="M 92.65625 147.816406 C 93.53125 147.957031 93.726562 147.9375 94.796875 147.96875 C 95.09375 147.351562 94.65625 146.734375 94.796875 145.828125 C 93.683594 146.339844 92.988281 146.816406 92.65625 147.816406 Z M 64.363281 146.898438 C 65.222656 146.714844 65.839844 146.976562 66.960938 146.898438 C 66.960938 146.390625 66.960938 145.878906 66.960938 145.367188 C 66.023438 145.40625 65.417969 146.527344 64.363281 146.898438 Z M 36.988281 146.59375 C 37.546875 146.695312 38.097656 146.804688 38.824219 146.746094 C 38.695312 146.257812 38.722656 145.621094 38.515625 145.214844 C 37.859375 145.527344 37.300781 145.9375 36.988281 146.59375 Z M 90.363281 146.4375 C 89.953125 146.261719 89.097656 146.746094 89.292969 147.664062 C 89.820312 147.917969 90.304688 147.539062 91.128906 147.664062 C 92.089844 145.554688 96.148438 145.140625 94.492188 142.15625 C 92.917969 143.386719 91.410156 144.679688 90.363281 146.4375 Z M 38.058594 141.699219 C 36.921875 143.570312 34.9375 144.59375 33.621094 146.285156 C 36.160156 147.464844 36.9375 144.152344 38.667969 143.992188 C 37.992188 143.945312 38.972656 142.457031 38.667969 141.699219 C 38.464844 141.699219 38.261719 141.699219 38.058594 141.699219 Z M 58.855469 146.285156 C 60.179688 147.300781 61.949219 146.511719 63.445312 146.898438 C 64.027344 145.269531 67.328125 144.789062 66.503906 142.769531 C 65.34375 144.460938 63.996094 145.121094 62.375 146.4375 C 62.28125 146.128906 61.601562 146.394531 61.761719 145.828125 C 63.585938 144.339844 65.21875 142.65625 66.808594 140.933594 C 66.652344 140.105469 66.984375 139.558594 66.503906 139.25 C 64.03125 141.671875 61.167969 143.703125 58.855469 146.285156 Z M 114.222656 146.132812 C 114.136719 146.917969 113.394531 147.042969 113.304688 147.816406 C 116.765625 147.816406 118.492188 147.734375 121.871094 147.664062 C 121.960938 146.921875 122.410156 145.339844 121.714844 144.453125 C 121.085938 145.074219 120.003906 147.828125 118.503906 147.050781 C 119.824219 145.71875 120.597656 144.527344 122.019531 143.535156 C 122.019531 143.074219 122.019531 142.617188 122.019531 142.15625 C 120.191406 144.199219 118.210938 146.09375 115.75 147.511719 C 115.53125 147.425781 115.378906 147.269531 115.292969 147.050781 C 117.675781 145.457031 119.636719 143.441406 121.410156 141.238281 C 121.804688 141.253906 121.628906 141.835938 122.019531 141.851562 C 122.039062 141.210938 122.414062 139.511719 121.5625 139.097656 C 119.378906 141.65625 116.867188 144.980469 114.222656 146.132812 Z M 92.960938 139.707031 C 91.121094 142.273438 87.878906 144.566406 85.929688 147.511719 C 86.492188 147.714844 87.089844 147.425781 87.761719 147.664062 C 90.015625 145.125 92.492188 142.808594 94.796875 140.324219 C 94.699219 139.574219 94.773438 139.601562 94.796875 138.792969 C 93.867188 138.859375 93.734375 139.910156 92.960938 139.707031 Z M 30.105469 146.4375 C 30.5625 146.746094 31.546875 146.523438 32.246094 146.59375 C 34.039062 144.054688 36.472656 142.152344 38.667969 140.015625 C 38.210938 139.496094 39.074219 138.597656 38.363281 138.332031 C 35.640625 141.066406 32.753906 143.636719 30.105469 146.4375 Z M 113.914062 145.828125 C 117.292969 143.800781 118.988281 140.089844 122.019531 137.722656 C 121.925781 137.15625 122.21875 136.199219 121.871094 135.886719 C 118.007812 139.675781 114.03125 143.34375 110.855469 147.816406 C 111.355469 147.726562 111.570312 147.917969 111.929688 147.96875 C 112.488281 147.203125 114.015625 146.296875 113.914062 145.828125 Z M 38.058594 135.121094 C 34.632812 139.242188 31.328125 142.550781 27.808594 146.59375 C 30.507812 145.820312 32.179688 141.890625 34.691406 140.933594 C 35.550781 139.070312 37.324219 137.546875 38.667969 136.648438 C 38.542969 136.324219 38.613281 135.808594 38.515625 135.121094 C 38.363281 135.121094 38.210938 135.121094 38.058594 135.121094 Z M 91.433594 137.722656 C 91.480469 138.078125 91.410156 138.308594 91.28125 138.484375 C 89.707031 139.101562 89.480469 141.070312 87.761719 141.546875 C 86.628906 143.605469 84.117188 144.570312 83.328125 147.355469 C 83.582031 147.613281 84.226562 147.480469 84.703125 147.511719 C 87.207031 144.160156 91.164062 140.984375 94.03125 137.722656 C 94.457031 137.238281 94.597656 136.148438 94.644531 135.425781 C 94.277344 135.488281 94.730469 134.730469 94.1875 134.96875 C 93.210938 135.828125 92.808594 137.261719 91.433594 137.722656 Z M 120.644531 133.289062 C 115.921875 137.902344 111.589844 142.839844 107.644531 147.816406 C 108.429688 148.164062 109.023438 147.957031 109.941406 147.96875 C 110.113281 147.789062 110.113281 147.425781 110.09375 147.050781 C 113.402344 143.75 116.738281 139.53125 120.1875 136.496094 C 120.398438 135.640625 121.039062 135.207031 122.019531 135.121094 C 121.988281 133.695312 122.285156 133.464844 122.175781 132.371094 C 121.152344 132.3125 121.25 133.378906 120.492188 133.59375 C 120.492188 133.4375 120.617188 133.410156 120.644531 133.289062 Z M 62.375 135.578125 C 62.050781 135.992188 62.722656 135.960938 62.375 136.496094 C 60.960938 136.855469 60.820312 139.105469 59.46875 138.640625 C 59.363281 139.109375 59.363281 138.933594 59.46875 139.402344 C 57.0625 141.707031 55.226562 143.632812 53.351562 146.4375 C 53.371094 146.777344 54 146.503906 54.269531 146.59375 C 56.945312 144.375 58.925781 141.738281 61.152344 139.097656 C 61.609375 138.558594 62.367188 138.246094 62.832031 137.722656 C 63.679688 136.761719 63.976562 135.085938 65.28125 134.816406 C 65.203125 134.246094 65.820312 133.957031 66.503906 133.746094 C 66.394531 134.214844 66.765625 134.195312 66.65625 134.664062 C 65.476562 135.675781 64.894531 137.28125 63.445312 138.027344 C 63.617188 138.902344 61.746094 139.96875 61.304688 140.472656 C 60.082031 141.867188 58.882812 144.238281 57.632812 144.296875 C 57.515625 145.453125 56.195312 145.410156 55.949219 146.4375 C 56.15625 147.019531 57.132812 146.261719 57.632812 146.746094 C 60.183594 143.230469 64.222656 140.828125 66.808594 136.957031 C 66.644531 135.214844 67.527344 133.558594 66.808594 131.757812 C 65.082031 132.6875 64.203125 135.257812 62.375 135.578125 Z M 90.820312 134.816406 C 90.585938 136.292969 88.917969 137.578125 87.761719 138.640625 C 87.761719 138.84375 87.761719 139.046875 87.761719 139.25 C 86.601562 140.542969 85.160156 141.304688 83.9375 142.769531 C 83.074219 143.804688 82.8125 145.359375 81.492188 145.367188 C 82.101562 146.046875 80.871094 146.65625 80.574219 147.355469 C 80.933594 147.355469 81.289062 147.355469 81.644531 147.355469 C 83.035156 145.078125 84.773438 143.144531 87 141.699219 C 89.371094 138.71875 91.9375 135.929688 94.492188 133.132812 C 94.296875 132.3125 94.753906 131.683594 94.1875 131.144531 C 93.023438 132.328125 92.296875 133.945312 90.820312 134.816406 Z M 35.152344 134.050781 C 32.730469 137.488281 29.707031 140.382812 27.046875 143.382812 C 26.152344 144.386719 24.855469 145.378906 24.75 146.898438 C 26.554688 146.523438 27.875 144.84375 29.1875 143.535156 C 30.558594 142.164062 31.953125 140.636719 33.011719 139.097656 C 34.761719 137.894531 35.753906 135.929688 37.140625 134.355469 C 37.738281 134.191406 38.132812 133.820312 38.515625 133.4375 C 38.328125 132.378906 38.511719 131.445312 38.363281 130.992188 C 37.382812 132.101562 36.347656 133.160156 35.152344 134.050781 Z M 57.328125 137.570312 C 57.519531 138.507812 56.179688 139.8125 55.644531 140.015625 C 55.058594 141.261719 54.675781 142.714844 53.199219 143.074219 C 53.199219 143.535156 53.199219 143.992188 53.199219 144.453125 C 57.195312 140.390625 60.875 136.535156 64.667969 132.0625 C 65.832031 131.695312 65.835938 130.167969 67.117188 129.921875 C 67.023438 128.933594 67.398438 128.425781 66.960938 127.777344 C 64.957031 128.78125 64.453125 131.289062 62.222656 132.0625 C 62.460938 132.84375 62.097656 133.578125 61.152344 133.59375 C 61.171875 134.277344 60.429688 135.496094 59.621094 135.273438 C 59.996094 135.953125 58.964844 136.453125 58.398438 136.191406 C 58.332031 137.507812 58.03125 136.890625 57.328125 137.570312 Z M 25.667969 139.707031 C 25.761719 140.21875 26.117188 140.230469 25.820312 140.78125 C 25.617188 141.136719 24.9375 141.015625 24.597656 141.238281 C 24.738281 142.453125 24.851562 143.328125 24.597656 144.453125 C 29.671875 139.5 33.480469 134.167969 38.515625 129.308594 C 38.191406 128.714844 38.5625 127.425781 37.90625 127.167969 C 33.859375 131.378906 30.003906 135.789062 25.667969 139.707031 Z M 83.328125 142.308594 C 83.320312 142.402344 83.304688 142.492188 83.175781 142.464844 C 87.449219 138.425781 90.804688 133.472656 94.644531 129.003906 C 94.535156 128.289062 94.453125 127.589844 94.492188 126.402344 C 91.082031 129.339844 89.03125 133.839844 85.621094 136.34375 C 85.132812 138.488281 82.148438 139.371094 81.644531 142.003906 C 80.597656 142.179688 80.226562 144.492188 80.726562 145.214844 C 81.425781 144.175781 82.796875 143.003906 83.328125 142.308594 Z M 112.082031 138.332031 C 113.5625 135.890625 115.5625 133.960938 117.433594 131.910156 C 117.433594 131.992188 117.558594 132.082031 117.585938 131.910156 C 118.257812 130.234375 120.140625 128.449219 121.257812 126.710938 C 121.578125 126.441406 121.710938 126.363281 122.175781 126.554688 C 122.523438 125.300781 122.125 124.121094 122.175781 122.734375 C 119.476562 125.210938 117.5 128.230469 115.140625 130.839844 C 114.9375 130.839844 115 130.570312 114.832031 130.535156 C 114.707031 131.023438 114.703125 130.851562 114.988281 131.144531 C 112.597656 134.039062 110.652344 136.976562 108.410156 139.707031 C 107.835938 139.871094 107.972656 139.328125 107.492188 139.402344 C 107.773438 140.570312 107.484375 141.421875 107.644531 142.769531 C 109.335938 142.105469 110.179688 139.292969 112.082031 138.332031 Z M 113.761719 137.109375 C 112.410156 137.882812 112.164062 139.265625 111.164062 139.558594 C 110.558594 141.792969 107.625 142.71875 107.644531 146.132812 C 110.625 143.425781 113.972656 139.269531 116.667969 136.191406 C 117.105469 135.691406 118.277344 134.503906 118.503906 134.816406 C 119.464844 132.105469 122.964844 131.9375 122.175781 127.476562 C 119.304688 129.863281 117.167969 133.78125 114.375 135.730469 C 114.550781 135.757812 114.539062 135.972656 114.527344 136.191406 C 114.351562 136.320312 114.117188 136.394531 113.761719 136.34375 C 113.476562 136.636719 113.855469 136.621094 113.761719 137.109375 Z M 38.058594 122.425781 C 36.488281 123.867188 35.109375 125.683594 33.316406 127.628906 C 31.710938 129.363281 30.15625 131.160156 28.878906 132.828125 C 27.433594 134.722656 24.355469 136.417969 24.597656 139.25 C 27.25 137.476562 29.339844 134.609375 31.632812 132.0625 C 33.796875 129.664062 36.738281 127.800781 38.210938 124.875 C 38.21875 124.78125 38.234375 124.695312 38.363281 124.722656 C 38.339844 123.882812 38.347656 123.074219 38.515625 122.425781 C 38.363281 122.425781 38.210938 122.425781 38.058594 122.425781 Z M 59.316406 131.144531 C 58.058594 134.78125 52.316406 136.378906 53.046875 141.546875 C 55.324219 139.441406 57.191406 136.921875 59.164062 134.511719 C 62.269531 132.261719 63.808594 128.449219 66.960938 126.25 C 67.351562 124.726562 67.554688 123.65625 67.117188 122.273438 C 64.613281 125.421875 62.203125 128.796875 59.316406 131.144531 Z M 63.140625 122.273438 C 62.316406 124.773438 60.148438 125.628906 59.164062 127.628906 C 58.960938 127.628906 58.753906 127.628906 58.550781 127.628906 C 58.089844 129.246094 56.992188 129.578125 56.410156 130.839844 C 56.410156 130.753906 56.285156 130.664062 56.257812 130.839844 C 56.679688 131.375 55.835938 131.359375 55.492188 131.757812 C 54.644531 132.738281 54.308594 134.839844 53.046875 134.96875 C 53.367188 136.050781 52.582031 136.632812 53.351562 136.957031 C 57.414062 131.792969 62.351562 127.503906 66.046875 121.96875 C 66.523438 121.785156 66.710938 121.308594 67.269531 121.203125 C 67.15625 120.296875 67.542969 118.890625 66.960938 118.453125 C 65.511719 119.550781 64.8125 121.394531 63.140625 122.273438 Z M 111.164062 129.460938 C 111.03125 129.664062 111.167969 130.035156 111.011719 130.226562 C 110.523438 130.820312 109.113281 131.46875 109.480469 132.214844 C 108.199219 132.632812 108.089844 134.277344 107.492188 134.96875 C 107.464844 136.027344 107.609375 137.390625 107.644531 138.792969 C 109.441406 138.550781 109.339844 136.410156 111.011719 136.039062 C 110.636719 135.394531 112.226562 133.4375 112.84375 133.289062 C 113.113281 132.230469 113.773438 131.5625 114.527344 130.992188 C 114.265625 130.929688 114.558594 130.792969 114.527344 130.535156 C 116.457031 128.414062 118.289062 126.359375 119.574219 123.957031 C 121.160156 122.609375 122.804688 121.28125 122.019531 118.296875 C 119.5625 120.628906 117.308594 123.167969 114.988281 125.640625 C 115.007812 125.457031 115.257812 125.292969 114.988281 125.179688 C 114.722656 125.375 114.984375 126.09375 114.527344 126.097656 C 114.550781 125.917969 114.800781 125.75 114.527344 125.640625 C 114.335938 126.0625 113.617188 125.953125 113.609375 126.554688 C 114.050781 127.011719 113.875 126.175781 114.375 126.25 C 113.871094 127.632812 112.011719 128.171875 111.164062 129.460938 Z M 33.929688 122.425781 C 33.699219 122.671875 33.695312 123.070312 33.46875 123.34375 C 31.359375 125.917969 28.195312 128.742188 26.585938 130.992188 C 26.484375 131.132812 26.578125 131.523438 26.433594 131.757812 C 26.097656 132.300781 25.257812 132.730469 24.90625 133.289062 C 24.863281 133.347656 24.28125 134.835938 24.292969 134.664062 C 24.289062 134.726562 24.953125 135.554688 24.597656 135.730469 C 25.433594 134.6875 26.367188 134.09375 27.351562 133.132812 C 28.242188 132.265625 28.851562 130.933594 29.644531 130.074219 C 29.824219 129.882812 30.324219 129.847656 30.5625 129.617188 C 31.054688 129.128906 31.375 128.238281 31.9375 127.628906 C 33.027344 126.449219 33.84375 125.851562 34.996094 124.414062 C 36.445312 122.613281 39.125 119.632812 37.90625 118.296875 C 36.675781 119.875 35.253906 121 33.929688 122.425781 Z M 93.421875 118.296875 C 90.757812 120.550781 89.496094 123.039062 86.84375 125.792969 C 87.023438 125.816406 87.011719 126.035156 87 126.25 C 86.28125 126.402344 86.066406 127.054688 85.929688 127.777344 C 84.007812 128.4375 84.6875 130.222656 82.714844 130.992188 C 83.175781 132.5625 81.308594 133.59375 80.574219 132.828125 C 80.597656 135.335938 80.664062 137.738281 80.878906 140.167969 C 85.59375 135.707031 89.730469 130.664062 93.421875 125.179688 C 93.902344 125.253906 93.769531 124.710938 94.339844 124.875 C 94.417969 123.679688 94.878906 122.367188 94.1875 121.507812 C 93.9375 122.097656 93.765625 121.96875 93.269531 122.121094 C 92.105469 124.890625 89.582031 126.523438 88.070312 129.308594 C 85.902344 130.6875 85.113281 133.355469 82.867188 134.96875 C 82.84375 135.792969 82.765625 135.609375 82.714844 136.34375 C 82.140625 136.378906 82.066406 136.921875 81.492188 136.957031 C 81.414062 136.730469 81.265625 136.570312 81.1875 136.34375 C 84.855469 130.582031 89.714844 126.011719 93.726562 120.59375 C 93.914062 120.949219 94.910156 118.617188 94.339844 117.53125 C 94.085938 117.53125 93.828125 117.53125 93.574219 117.53125 C 93.636719 117.902344 93.296875 117.867188 93.421875 118.296875 Z M 32.246094 120.4375 C 30.253906 123.988281 27.355469 125.734375 25.363281 129.15625 C 25.09375 129.191406 24.597656 129.003906 24.75 129.460938 C 24.324219 130.074219 24.894531 131.277344 24.597656 131.910156 C 27.363281 128.457031 30.863281 124.933594 34.082031 121.355469 C 35.515625 119.761719 36.992188 117.878906 38.058594 116.15625 C 38.285156 115.789062 38.203125 114.929688 38.210938 114.472656 C 38.175781 114.355469 38.082031 114.296875 37.90625 114.320312 C 35.808594 116.152344 34.5 118.765625 32.246094 120.4375 Z M 66.960938 113.859375 C 64.289062 116.007812 62.195312 119.574219 59.621094 122.273438 C 59.152344 123.335938 57.988281 125.023438 56.5625 125.640625 C 56.070312 127.304688 54.332031 128.84375 53.503906 130.992188 C 53.300781 130.992188 53.097656 130.992188 52.894531 130.992188 C 53.058594 131.78125 52.898438 132.320312 53.046875 133.132812 C 58.125 127.558594 62.542969 122.066406 67.269531 116.003906 C 67.308594 115.332031 67.511719 114.820312 67.421875 114.015625 C 67.226562 114.007812 67.210938 113.820312 66.960938 113.859375 Z M 107.1875 130.535156 C 107.402344 131.257812 107.082031 132.128906 107.339844 133.289062 C 109.972656 130.09375 112.835938 126.929688 115.597656 124.109375 C 116.253906 123.4375 116.742188 122.496094 117.433594 121.816406 C 119.472656 119.804688 122.757812 116.828125 121.714844 113.25 C 116.644531 119.082031 111.320312 123.742188 107.1875 130.535156 Z M 80.726562 129.003906 C 80.886719 129.355469 80.824219 129.925781 81.035156 130.226562 C 80.285156 130.398438 80.40625 131.433594 80.421875 132.371094 C 82.492188 130.664062 84.035156 128.4375 85.46875 126.097656 C 87.472656 123.667969 89.875 121.101562 91.738281 118.605469 C 93.042969 116.855469 95.46875 114.847656 94.03125 112.484375 C 91.394531 114.164062 89.933594 117.597656 87.761719 119.519531 C 86.058594 122.710938 83.007812 125.878906 80.726562 129.003906 Z M 56.5625 121.816406 C 56.265625 122.398438 54.714844 124.199219 54.421875 125.792969 C 53.207031 126.289062 52.628906 127.320312 53.199219 128.851562 C 57.960938 123.113281 62.867188 117.519531 67.269531 111.414062 C 67.167969 111.007812 67.207031 110.460938 66.960938 110.191406 C 62.515625 113.484375 60.34375 117.824219 56.5625 121.816406 Z M 36.679688 110.652344 C 36.40625 110.921875 35.816406 111.035156 35.609375 111.261719 C 35.433594 111.460938 35.609375 111.78125 35.457031 112.027344 C 34.96875 112.816406 33.863281 113.675781 33.011719 114.625 C 31.371094 116.453125 29.988281 118.496094 28.421875 120.285156 C 27.597656 121.230469 26.535156 122.089844 25.976562 122.886719 C 25.703125 123.273438 25.78125 123.765625 25.515625 124.109375 C 25.179688 124.542969 24.617188 124.613281 24.445312 125.027344 C 24.113281 125.828125 24.496094 126.9375 24.445312 127.777344 C 29.570312 123.117188 33.601562 117.359375 38.210938 112.179688 C 38.074219 111.429688 38.230469 110.199219 37.75 109.429688 C 37.246094 109.765625 37.121094 110.222656 36.679688 110.652344 Z M 115.292969 114.78125 C 115.054688 115.117188 114.617188 115.21875 114.375 115.546875 C 114.113281 115.898438 114.160156 116.414062 113.914062 116.769531 C 112.976562 118.140625 111.46875 119.007812 110.398438 120.285156 C 110.210938 120.511719 110.253906 120.980469 110.09375 121.203125 C 109.414062 122.140625 108.222656 122.75 107.953125 123.957031 C 107.492188 124.058594 108.097656 124.285156 107.953125 124.566406 C 107.539062 124.820312 107.222656 125.167969 107.035156 125.640625 C 107.289062 126.464844 107.429688 127.933594 107.1875 128.394531 C 110.457031 125.847656 112.285156 121.867188 115.597656 119.371094 C 117.191406 116.78125 119.324219 114.734375 121.105469 112.335938 C 121.632812 112.125 121.824219 113.019531 122.175781 112.484375 C 121.433594 111.160156 122.289062 108.613281 121.5625 107.589844 C 119.21875 109.8125 117.128906 112.179688 115.292969 114.78125 Z M 89.292969 112.484375 C 89.402344 112.953125 89.136719 113.042969 89.140625 113.402344 C 88.164062 113.550781 88.457031 114.433594 88.070312 114.933594 C 87.785156 115.296875 87.097656 115.445312 86.84375 115.851562 C 86.703125 116.078125 86.84375 116.425781 86.691406 116.613281 C 86.320312 117.082031 85.617188 117.289062 85.316406 117.839844 C 85.28125 117.902344 85.359375 118.390625 85.316406 118.453125 C 85.128906 118.707031 84.59375 118.820312 84.398438 119.0625 C 84.273438 119.214844 84.492188 119.53125 84.398438 119.675781 C 84.273438 119.863281 83.828125 119.902344 83.632812 120.132812 C 83.34375 120.472656 83.285156 121.152344 83.023438 121.507812 C 81.382812 123.75 79.375 125.035156 80.421875 127.933594 C 83.199219 125.359375 85.175781 121.425781 87.609375 118.605469 C 87.898438 118.269531 88.425781 118.167969 88.679688 117.839844 C 88.78125 117.710938 88.59375 117.367188 88.679688 117.230469 C 90.421875 114.378906 94.808594 112.191406 94.1875 107.742188 C 94.15625 107.574219 94.015625 107.507812 93.878906 107.4375 C 92.089844 108.855469 91.113281 111.101562 89.292969 112.484375 Z M 66.351562 106.367188 C 65.367188 107.476562 64.5625 108.757812 63.140625 109.429688 C 63.183594 110.234375 62.890625 110.707031 62.222656 110.804688 C 61.886719 111.996094 60.765625 112.40625 60.234375 113.402344 C 59.234375 116.332031 55.839844 118.183594 54.726562 121.507812 C 53.8125 122.015625 53.097656 123.214844 53.199219 124.261719 C 54.242188 123.828125 54.730469 122.835938 55.1875 121.816406 C 59.433594 117.652344 62.605469 112.410156 66.960938 108.355469 C 66.738281 107.453125 67.25 106.675781 66.351562 106.367188 Z M 25.667969 119.519531 C 25.554688 119.765625 24.917969 119.488281 25.058594 119.980469 C 24.640625 120.277344 24.675781 121.027344 24.140625 121.203125 C 24.320312 122.125 23.949219 122.695312 24.597656 123.191406 C 28.867188 117.777344 33.621094 112.84375 37.90625 107.4375 C 37.921875 106.503906 37.894531 105.613281 37.597656 104.992188 C 33.566406 109.78125 28.742188 113.777344 25.667969 119.519531 Z M 117.128906 107.132812 C 116.507812 108.308594 115.390625 109.105469 114.679688 109.886719 C 113.171875 111.539062 112.25 113.589844 110.855469 115.238281 C 109.722656 116.582031 108.039062 117.707031 107.953125 119.980469 C 107.636719 120.230469 107.324219 120.476562 106.882812 120.59375 C 107.160156 121.28125 106.929688 122.480469 107.1875 123.191406 C 112.394531 117.746094 116.710938 111.410156 121.714844 105.757812 C 121.597656 104.855469 121.820312 103.613281 121.257812 103.15625 C 120.042969 104.644531 118.882812 106.183594 117.128906 107.132812 Z M 89.292969 108.203125 C 88.71875 108.449219 88.191406 108.738281 88.222656 109.578125 C 87.839844 109.558594 87.746094 109.820312 87.457031 109.886719 C 85.867188 112.625 83.949219 115.046875 82.257812 117.6875 C 82.054688 117.6875 81.847656 117.6875 81.644531 117.6875 C 81.144531 119.226562 79.78125 120.039062 80.117188 122.886719 C 81.382812 122.726562 81.28125 121.195312 82.410156 120.898438 C 85.773438 115.902344 89.648438 111.414062 92.960938 106.367188 C 93.160156 106.15625 93.628906 106.214844 94.03125 106.214844 C 93.910156 104.753906 94.453125 103.542969 93.726562 102.546875 C 91.988281 104.171875 90.308594 105.855469 89.292969 108.203125 Z M 63.597656 104.53125 C 62.851562 106.742188 60.707031 107.558594 59.925781 109.734375 C 57.773438 111.707031 56.929688 114.992188 54.421875 116.613281 C 54.253906 117.984375 53.773438 118.972656 52.585938 119.214844 C 52.9375 119.96875 52.710938 120.390625 53.046875 121.203125 C 54.253906 120.882812 54.5625 119.660156 55.03125 118.605469 C 57.03125 116.925781 58.160156 114.789062 60.082031 112.792969 C 61.042969 111.121094 62.238281 109.613281 63.75 107.898438 C 65.296875 106.148438 67.28125 104.4375 66.65625 101.78125 C 66.460938 101.773438 66.445312 101.585938 66.199219 101.628906 C 65.421875 102.683594 64.78125 103.882812 63.597656 104.53125 Z M 24.140625 117.074219 C 24.28125 117.765625 24.273438 118.097656 24.140625 118.910156 C 25.101562 118.851562 24.792969 117.523438 25.820312 117.53125 C 28.710938 112.417969 33.207031 108.910156 36.832031 104.53125 C 36.914062 103.59375 37.46875 103.128906 37.90625 102.546875 C 37.574219 102.261719 38.0625 101.164062 37.445312 101.167969 C 33.070312 106.53125 28.25 111.449219 24.140625 117.074219 Z M 106.726562 115.238281 C 106.832031 116.867188 106.800781 117.492188 106.726562 118.605469 C 107.304688 118.863281 107.664062 117.753906 107.953125 117.230469 C 109.71875 116.027344 110.703125 113.527344 112.082031 112.792969 C 111.894531 111.839844 112.675781 111.765625 112.996094 111.414062 C 114.371094 109.921875 116.019531 107.3125 117.433594 105.757812 C 118.945312 104.09375 122.320312 101.867188 121.105469 98.875 C 115.457031 103.476562 111.316406 109.578125 106.726562 115.238281 Z M 89.902344 103.460938 C 87.730469 105.367188 85.992188 107.707031 84.398438 110.191406 C 82.894531 110.984375 81.976562 112.359375 81.339844 114.015625 C 81.074219 114.003906 80.863281 114.046875 80.726562 114.167969 C 80.175781 115.679688 80.265625 116.476562 80.117188 117.992188 C 83.464844 115.328125 85.539062 111.382812 88.070312 107.898438 C 90.292969 105.738281 91.859375 102.917969 93.878906 100.554688 C 93.679688 100.296875 94.015625 99.269531 93.878906 98.566406 C 93.847656 98.449219 93.75 98.390625 93.574219 98.417969 C 92.136719 99.886719 90.730469 101.378906 89.902344 103.460938 Z M 54.726562 115.390625 C 55.542969 113.472656 57.144531 112.148438 58.246094 110.5 C 59.835938 108.117188 62.203125 105.441406 64.058594 103.003906 C 64.597656 102.289062 64.796875 101.46875 65.28125 100.863281 C 66.109375 99.824219 67.582031 98.507812 66.351562 97.34375 C 66.078125 97.9375 65.253906 97.980469 64.820312 98.417969 C 62.738281 102.90625 58.816406 105.558594 56.714844 110.039062 C 55.042969 110.917969 54.433594 112.855469 52.894531 113.859375 C 52.71875 114.882812 52.539062 116.445312 52.738281 117.378906 C 53.3125 116.628906 53.785156 115.777344 54.726562 115.390625 Z M 37.140625 96.582031 C 35.5625 98.46875 34.128906 100.503906 32.246094 102.085938 C 30.253906 105.652344 26.859375 107.8125 25.210938 111.722656 C 24.898438 111.96875 24.585938 112.21875 24.140625 112.335938 C 24.195312 113.484375 23.914062 114.066406 24.292969 114.933594 C 25.285156 113.785156 26.535156 112.894531 27.199219 111.414062 C 29.613281 109.855469 30.703125 106.964844 33.011719 105.296875 C 33.792969 103.175781 35.910156 102.386719 36.527344 100.097656 C 37.039062 99.996094 37.277344 99.621094 37.75 99.488281 C 38.039062 98.566406 37.886719 97.367188 37.597656 96.582031 C 37.445312 96.582031 37.292969 96.582031 37.140625 96.582031 Z M 23.070312 94.742188 C 22.992188 95.566406 23.382812 97.164062 23.832031 97.957031 C 24.566406 96.941406 25.914062 95.945312 26.128906 94.894531 C 25.097656 94.441406 24.023438 94.671875 23.070312 94.742188 Z M 35.152344 94.59375 C 33.355469 96.1875 32.386719 97.753906 30.714844 99.789062 C 29.851562 100.84375 28.625 101.800781 27.808594 102.851562 C 27.269531 103.550781 26.757812 104.710938 25.976562 105.757812 C 24.804688 107.316406 23.648438 108.199219 24.140625 110.191406 C 26.925781 107.828125 28.753906 104.507812 31.480469 102.085938 C 32.660156 100.15625 34.226562 98.609375 35.761719 97.039062 C 35.914062 95.789062 37.207031 95.65625 36.988281 94.4375 C 36.203125 94.320312 35.875 94.65625 35.152344 94.59375 Z M 23.679688 99.488281 C 23.796875 100.136719 23.871094 100.824219 23.984375 101.472656 C 26.046875 99.355469 27.898438 97.027344 29.644531 94.59375 C 28.914062 94.804688 28.261719 94.148438 27.808594 94.59375 C 26.796875 95.976562 25.050781 97.949219 23.679688 99.488281 Z M 31.785156 94.4375 C 28.652344 96.8125 26.613281 100.277344 23.984375 103.15625 C 24.207031 104.398438 23.558594 105.582031 23.984375 106.519531 C 27.175781 102.421875 30.378906 98.332031 33.773438 94.4375 C 33.410156 94.257812 32.496094 94.851562 31.785156 94.4375 Z M 87.457031 102.390625 C 86.160156 102.675781 86.296875 104.390625 84.855469 104.53125 C 83.957031 106.839844 82.40625 107.851562 80.878906 109.886719 C 81.289062 111.15625 80.148438 111.804688 80.269531 113.25 C 81.722656 111.679688 83.550781 109.667969 85.011719 108.050781 C 87.183594 105.644531 89.453125 102.203125 91.585938 99.488281 C 93.011719 97.667969 94.722656 96.578125 93.421875 94.132812 C 91.199219 96.652344 88.886719 99.078125 87.457031 102.390625 Z M 111.773438 103.460938 C 111.773438 103.71875 111.773438 103.972656 111.773438 104.226562 C 111.324219 104.4375 111.195312 104.972656 110.550781 104.992188 C 109.570312 107.417969 107.234375 108.421875 106.421875 111.109375 C 107.125 111.167969 106.328125 112.730469 107.035156 112.792969 C 111.539062 107 116.910156 102.074219 121.257812 96.121094 C 121.25 95.261719 121.339844 94.304688 120.949219 93.828125 C 117.707031 96.851562 115.160156 100.578125 111.773438 103.460938 Z M 66.046875 92.449219 C 62.289062 97.253906 58.59375 102.128906 54.421875 106.519531 C 54.597656 107.273438 53.054688 108.054688 53.503906 109.121094 C 53.019531 109.449219 52.371094 109.617188 52.128906 110.191406 C 52.304688 110.53125 52.140625 111.699219 52.585938 112.179688 C 53.453125 111.925781 54.101562 111.453125 54.269531 110.5 C 55.691406 110.039062 55.984375 108.632812 56.714844 107.589844 C 57.589844 106.351562 58.832031 105.316406 59.773438 104.074219 C 62.152344 100.941406 64.363281 97.839844 66.65625 94.742188 C 66.65625 93.980469 66.65625 93.214844 66.65625 92.449219 C 66.453125 92.449219 66.25 92.449219 66.046875 92.449219 Z M 120.644531 90.308594 C 118.558594 91.640625 117.757812 94.253906 115.445312 95.359375 C 115.191406 96.683594 113.773438 96.847656 113.457031 98.109375 C 112.945312 98.210938 112.707031 98.585938 112.234375 98.722656 C 112.296875 99.089844 111.953125 99.054688 112.082031 99.488281 C 109.804688 101.335938 108.484375 104.144531 106.421875 106.214844 C 106.535156 107.257812 106.140625 107.917969 106.574219 108.507812 C 111.480469 103.320312 116.066406 97.8125 120.800781 92.449219 C 121.054688 91.425781 121.035156 91.0625 121.105469 89.851562 C 120.949219 89.851562 120.800781 89.851562 120.644531 89.851562 C 120.644531 90.003906 120.644531 90.15625 120.644531 90.308594 Z M 66.046875 88.628906 C 62.464844 91.675781 60.441406 96.28125 56.867188 99.332031 C 55.964844 101.492188 53.652344 102.234375 53.199219 104.839844 C 52.964844 105.164062 52.308594 105.070312 52.128906 105.449219 C 51.910156 106.167969 52.113281 106.925781 52.128906 108.050781 C 53.820312 106.738281 54.464844 104.371094 56.410156 103.3125 C 58.417969 99.933594 60.933594 97.660156 63.292969 94.59375 C 64.691406 92.769531 66.171875 90.84375 66.351562 88.78125 C 66.316406 88.660156 66.222656 88.601562 66.046875 88.628906 Z M 92.042969 89.390625 C 92.144531 89.949219 91.714844 89.980469 91.738281 90.460938 C 88.386719 93.992188 85.96875 98.457031 82.867188 102.238281 C 82.765625 103.15625 82.433594 103.84375 81.644531 104.074219 C 81.339844 105.683594 79.976562 106.933594 80.269531 109.273438 C 85.296875 103.953125 89.386719 97.695312 93.726562 91.6875 C 93.558594 90.53125 94.085938 88.675781 93.421875 88.015625 C 92.921875 88.433594 92.773438 89.203125 92.042969 89.390625 Z M 108.410156 102.085938 C 110.796875 99.226562 113.894531 96.683594 116.363281 93.828125 C 118.496094 91.359375 120.980469 88.824219 120.800781 86.027344 C 120.765625 85.910156 120.667969 85.847656 120.492188 85.875 C 118.734375 87.28125 117.835938 89.539062 115.75 90.617188 C 116.019531 91.15625 115.648438 90.992188 115.597656 91.53125 C 113.902344 92.5 113.308594 94.6875 111.929688 95.203125 C 111.78125 96.332031 111.132812 96.957031 110.246094 97.34375 C 109.097656 99.957031 105.492188 101.183594 106.421875 104.53125 C 107.574219 104.023438 107.644531 103.003906 108.410156 102.085938 Z M 80.269531 102.546875 C 80.195312 103.117188 80.085938 103.675781 80.117188 104.6875 C 81.671875 104.101562 81.90625 102.195312 83.175781 101.320312 C 85.144531 96.867188 88.730469 94.027344 90.820312 89.699219 C 91.660156 88.957031 92.289062 88.003906 92.65625 86.792969 C 92.890625 86.363281 93.6875 86.5 93.726562 85.875 C 93.386719 85.199219 93.921875 83.640625 93.269531 83.273438 C 88.519531 89.144531 83.355469 95.910156 80.269531 102.546875 Z M 58.855469 88.78125 C 57.949219 89.898438 56.734375 90.769531 55.796875 91.839844 C 55.011719 92.734375 54.546875 93.933594 53.808594 94.742188 C 53.144531 95.480469 51.957031 96.382812 52.585938 97.34375 C 51.199219 98.730469 51.660156 102.070312 52.433594 103.460938 C 52.996094 102.121094 54.328125 101.316406 55.1875 100.402344 C 56.890625 98.59375 58.777344 95.980469 60.234375 93.980469 C 60.765625 93.246094 61.222656 92.226562 61.761719 91.6875 C 61.980469 91.46875 62.359375 91.59375 62.527344 91.378906 C 62.636719 91.242188 62.539062 90.839844 62.679688 90.617188 C 63.742188 88.9375 67.03125 86.769531 65.890625 85.261719 C 61.953125 90.089844 57.980469 94.890625 54.117188 99.789062 C 54.222656 100.40625 53.96875 100.667969 53.964844 101.167969 C 53.359375 101.175781 53.074219 101.503906 52.585938 101.628906 C 51.910156 100.6875 53.367188 98.761719 54.117188 97.804688 C 55.234375 96.371094 57.195312 94.640625 58.246094 93.675781 C 59.039062 91.710938 60.800781 90.320312 62.375 88.320312 C 62.953125 87.589844 63.539062 86.585938 64.210938 85.722656 C 65.683594 83.824219 66.617188 82.589844 65.585938 80.519531 C 63.085938 82.90625 61.042969 86.089844 58.855469 88.78125 Z M 92.808594 78.378906 C 92.472656 78.753906 92.15625 79.152344 92.042969 79.757812 C 89.773438 81.5625 88.59375 84.464844 86.539062 86.488281 C 86.652344 87.109375 86.046875 87.011719 86.234375 87.710938 C 84.4375 89.480469 82.792969 91.40625 81.796875 93.980469 C 80.367188 95.003906 79.152344 97.847656 80.421875 99.789062 C 83.691406 94.789062 87.289062 89.976562 90.820312 84.957031 C 92.304688 82.847656 94.0625 81.128906 93.269531 78.378906 C 93.207031 78.640625 93.070312 78.347656 92.808594 78.378906 Z M 120.03125 75.78125 C 117.515625 77.644531 116.117188 80.632812 113.761719 82.664062 C 113.761719 82.867188 113.761719 83.070312 113.761719 83.273438 C 113.382812 83.25 113.289062 83.515625 112.996094 83.578125 C 112.21875 85.285156 110.675781 86.671875 109.328125 88.320312 C 108.390625 89.472656 106.09375 92 105.808594 93.367188 C 105.378906 95.449219 106.519531 98.203125 106.269531 100.554688 C 110.878906 96.550781 114.046875 91.101562 118.503906 86.945312 C 119.183594 85.242188 121.222656 84.210938 120.492188 81.589844 C 117.914062 83.171875 116.894531 86.320312 114.832031 87.710938 C 115.023438 88.644531 113.941406 89.15625 113.457031 89.851562 C 112.664062 90.992188 112.167969 92.5 111.011719 93.214844 C 110.890625 94.015625 109.835938 95.199219 109.019531 95.816406 C 108.421875 96.742188 108.367188 98.21875 107.035156 98.417969 C 106.589844 97.269531 107.894531 95.996094 108.867188 94.742188 C 112.742188 89.765625 117.109375 84.199219 120.339844 79.296875 C 120.429688 77.917969 120.488281 76.941406 120.492188 75.78125 C 120.339844 75.78125 120.1875 75.78125 120.03125 75.78125 Z M 53.046875 91.6875 C 52.75 91.953125 52.269531 92.03125 51.972656 92.296875 C 51.816406 93.117188 51.765625 93.945312 52.128906 94.59375 C 53.308594 93.894531 53.988281 92.664062 54.878906 91.6875 C 58.832031 87.347656 62.453125 82.707031 65.890625 77.917969 C 65.5625 76.433594 66.242188 75.511719 65.585938 74.554688 C 61.480469 80.339844 56.328125 85.078125 53.046875 91.6875 Z M 89.292969 78.226562 C 89.15625 78.449219 89.289062 78.808594 89.140625 78.992188 C 88.925781 79.25 88.421875 79.28125 88.222656 79.601562 C 88.035156 79.902344 88.148438 80.382812 87.914062 80.675781 C 87.847656 80.757812 87.390625 80.75 87.304688 80.828125 C 86.554688 81.492188 86.515625 82.652344 85.929688 83.429688 C 85.773438 83.628906 85.339844 83.550781 85.164062 83.734375 C 84.890625 84.015625 84.910156 84.679688 84.703125 84.957031 C 84.308594 85.492188 83.695312 85.601562 83.480469 86.027344 C 83.363281 86.261719 83.480469 86.6875 83.328125 86.945312 C 83.289062 87.007812 82.902344 86.878906 82.867188 86.945312 C 82.644531 87.382812 82.851562 87.875 82.5625 88.167969 C 82.433594 88.300781 81.785156 87.734375 82.101562 88.320312 C 81.816406 90.351562 79.09375 91.976562 79.808594 94.59375 C 80.566406 94.175781 80.976562 93.414062 81.492188 92.757812 C 82.351562 91.210938 83.265625 89.992188 84.398438 88.472656 C 86.394531 85.808594 88.226562 83.316406 90.210938 80.675781 C 91.855469 78.480469 93.929688 76.519531 93.117188 73.488281 C 92.960938 73.488281 92.808594 73.488281 92.65625 73.488281 C 91.933594 75.429688 90.257812 76.679688 89.292969 78.226562 Z M 64.820312 71.191406 C 59.984375 76.09375 55.839844 81.6875 51.667969 87.25 C 52.09375 88.460938 51.539062 89.0625 51.972656 90.15625 C 54.59375 87.878906 55.90625 84.296875 58.707031 82.203125 C 58.96875 81.320312 59.707031 80.179688 60.386719 80.21875 C 60.117188 79.675781 60.488281 79.839844 60.539062 79.296875 C 62.453125 76.824219 64.800781 74.789062 65.738281 71.34375 C 65.558594 71.167969 65.199219 71.171875 64.820312 71.191406 Z M 51.667969 71.5 C 51.574219 72.859375 51.308594 73.988281 51.820312 75.015625 C 52.582031 73.632812 53.835938 72.746094 54.574219 71.34375 C 53.949219 71.265625 52.492188 71.058594 51.667969 71.5 Z M 59.621094 71.804688 C 58.285156 73.554688 56.714844 75.761719 55.339844 77.460938 C 54.988281 77.898438 54.253906 78.171875 53.964844 78.683594 C 53.878906 78.832031 54.0625 79.160156 53.964844 79.296875 C 52.644531 81.128906 51.144531 82.496094 51.972656 84.804688 C 53.722656 83.542969 54.679688 81.492188 55.949219 79.757812 C 58.457031 77.011719 61.355469 73.847656 63.140625 70.886719 C 61.5625 70.371094 60.582031 71.253906 59.621094 71.804688 Z M 51.667969 76.542969 C 51.332031 77.851562 51.890625 78.550781 51.820312 79.910156 C 54.3125 76.996094 56.773438 74.054688 59.011719 70.886719 C 54.671875 70.289062 54.214844 74.847656 51.667969 76.542969 Z M 106.574219 87.25 C 106.546875 88.703125 105.394531 89.027344 105.808594 90.921875 C 108.578125 88.539062 110.296875 85.109375 113.152344 82.8125 C 114.878906 79.648438 117.382812 77.257812 119.269531 74.25 C 119.75 74.324219 119.808594 73.976562 120.339844 74.097656 C 120.335938 72.671875 120.277344 71.304688 120.03125 70.121094 C 115.492188 75.773438 110.738281 81.21875 106.574219 87.25 Z M 92.65625 67.980469 C 91.460938 69.152344 90.621094 70.613281 89.597656 72.109375 C 89.246094 72.625 88.789062 73.070312 88.375 73.640625 C 87.976562 74.179688 87.824219 74.996094 87.457031 75.472656 C 87.324219 75.648438 86.84375 75.609375 86.691406 75.78125 C 86.378906 76.132812 86.492188 76.605469 86.234375 77.003906 C 85.296875 78.457031 83.625 79.8125 83.328125 81.589844 C 81.320312 82.542969 81.726562 85.902344 79.351562 86.488281 C 79.601562 87.75 79.582031 88.667969 79.65625 89.851562 C 81.410156 88.875 82.042969 86.800781 83.175781 85.261719 C 84.308594 83.726562 85.820312 82.371094 86.539062 80.519531 C 87.382812 79.832031 88.058594 78.980469 88.527344 77.917969 C 89.191406 77.339844 90.050781 76.5625 90.667969 75.625 C 92.082031 73.488281 93.714844 71.214844 93.117188 67.980469 C 92.960938 67.980469 92.808594 67.980469 92.65625 67.980469 Z M 109.785156 77.917969 C 108.785156 80.234375 107.101562 81.867188 105.808594 83.886719 C 106.066406 84.433594 105.59375 85.851562 105.808594 86.335938 C 109.882812 81.742188 113.171875 76.363281 117.585938 72.109375 C 118.207031 69.835938 121.003906 68.132812 120.03125 65.683594 C 116.496094 69.644531 113.792969 74.4375 109.785156 77.917969 Z M 88.375 68.898438 C 87.519531 69.785156 86.550781 70.824219 86.386719 72.109375 C 85.445312 72.664062 84.5 73.972656 84.550781 75.015625 C 82.300781 76.4375 81.382812 79.300781 79.808594 80.980469 C 79.847656 81.839844 79.789062 82.199219 79.960938 82.664062 C 79.324219 83.09375 79.109375 83.949219 79.199219 85.113281 C 81.484375 83.726562 82.09375 80.664062 84.089844 78.992188 C 86.855469 74.414062 90.113281 70.332031 93.117188 65.992188 C 93.003906 64.941406 93.113281 64.089844 92.960938 63.238281 C 92.929688 63.066406 92.792969 63 92.65625 62.933594 C 91.28125 64.972656 89.023438 66.128906 88.375 68.898438 Z M 113.152344 69.355469 C 111.488281 72.179688 109.175781 75.683594 106.726562 78.226562 C 106.515625 78.6875 106.800781 78.773438 106.726562 79.453125 C 106.15625 79.441406 105.757812 79.605469 105.351562 79.757812 C 105.386719 80.585938 105.597656 81.246094 105.503906 82.203125 C 106.710938 81.859375 106.609375 80.882812 107.1875 80.0625 C 108.59375 78.066406 110.738281 76.277344 112.539062 73.945312 C 113.871094 72.222656 115.136719 70.488281 116.515625 68.746094 C 118.164062 66.660156 121.128906 63.292969 119.726562 61.097656 C 117.578125 63.894531 115.734375 66.996094 113.152344 69.355469 Z M 82.867188 71.191406 C 82.761719 71.664062 82.761719 71.488281 82.867188 71.957031 C 82.128906 72.390625 81.746094 73.175781 81.644531 74.25 C 81.273438 73.867188 81.304688 74.558594 81.1875 74.859375 C 81.007812 74.992188 80.777344 75.0625 80.421875 75.015625 C 80.449219 77.265625 78.449219 78.308594 79.199219 80.367188 C 84.203125 74.257812 88.222656 67.164062 92.808594 60.640625 C 92.277344 59.851562 92.769531 58.101562 92.199219 57.734375 C 88.84375 61.976562 86.328125 67.054688 82.867188 71.191406 Z M 117.585938 58.5 C 117.09375 59.664062 116.101562 60.546875 115.445312 61.402344 C 115.285156 61.613281 115.089844 62.21875 114.988281 62.320312 C 114.921875 62.386719 114.582031 62.246094 114.527344 62.320312 C 114.242188 62.71875 114.175781 63.332031 113.914062 63.699219 C 112.695312 65.40625 111.246094 66.925781 110.09375 68.59375 C 108.664062 70.652344 106.925781 72.363281 105.960938 74.710938 C 105.609375 74.867188 105.257812 75.027344 105.046875 75.324219 C 105.375 76.0625 104.882812 77.625 105.503906 78.074219 C 107.570312 76.339844 108.8125 73.957031 110.398438 71.804688 C 113.53125 67.542969 117.117188 63.640625 119.882812 59.109375 C 119.882812 58.296875 119.882812 57.476562 119.882812 56.660156 C 119.613281 56.75 118.984375 56.476562 118.960938 56.816406 C 119.226562 57.492188 118.207031 58.199219 117.585938 58.5 Z M 79.199219 72.109375 C 79.164062 73.546875 78.847656 74.265625 79.042969 75.625 C 80.863281 73.878906 82.175781 71.617188 83.328125 69.203125 C 84.527344 68.519531 84.742188 67.191406 85.621094 65.992188 C 86.109375 65.328125 86.703125 64.800781 87.152344 64.15625 C 87.65625 63.429688 87.882812 62.707031 88.375 61.863281 C 89.644531 59.683594 92.867188 56.539062 91.890625 54.066406 C 86.886719 59.285156 83.050781 66.214844 79.199219 72.109375 Z M 89.140625 53.144531 C 85.867188 57.722656 81.75 61.457031 79.808594 67.371094 C 79.328125 67.648438 79.003906 68.09375 78.738281 68.59375 C 78.738281 69.257812 78.738281 69.917969 78.738281 70.582031 C 79.898438 70.550781 80.398438 68.582031 81.339844 67.828125 C 83.996094 62.277344 88.292969 58.363281 90.972656 52.839844 C 90.152344 52.730469 89.722656 53.011719 89.140625 53.144531 Z M 85.773438 52.53125 C 84.050781 54.324219 81.871094 55.664062 81.339844 58.652344 C 79.871094 59.089844 80.496094 61.300781 78.738281 61.710938 C 79.222656 62.753906 78.453125 64.480469 78.738281 65.992188 C 79.996094 65.6875 80.117188 64.125 80.726562 63.238281 C 81.519531 62.089844 82.289062 61.191406 83.175781 59.875 C 83.714844 59.066406 84.148438 58.023438 84.703125 57.425781 C 84.769531 57.359375 84.980469 57.625 85.011719 57.582031 C 86.097656 56.0625 86.898438 54.371094 88.070312 52.839844 C 87.332031 52.226562 86.3125 52.808594 85.773438 52.53125 Z M 82.410156 52.226562 C 81.355469 55.003906 77.6875 56.769531 78.738281 60.640625 C 80.460938 57.976562 82.550781 54.871094 83.9375 52.378906 C 83.257812 52.5 83.023438 52.175781 82.410156 52.226562 Z M 78.738281 52.226562 C 78.558594 53.601562 78.199219 55.402344 78.738281 56.355469 C 79.507812 54.832031 80.808594 53.839844 81.492188 52.226562 C 80.792969 52.214844 79.917969 52.394531 78.738281 52.226562 Z M 112.234375 60.945312 C 110.058594 64.09375 107.558594 67.066406 105.808594 70.121094 C 105.699219 70.316406 105.898438 70.679688 105.808594 70.886719 C 105.550781 71.496094 105.117188 71.554688 105.046875 71.957031 C 104.972656 72.375 105.335938 72.996094 105.046875 73.332031 C 110.21875 67.339844 114.675781 60.632812 119.882812 54.675781 C 119.582031 53.753906 120.066406 52.558594 119.421875 51.769531 C 117.234375 54.652344 114.605469 57.511719 112.234375 60.945312 Z M 109.175781 64.003906 C 109.273438 63.867188 109.085938 63.539062 109.175781 63.390625 C 109.378906 63.050781 109.851562 62.960938 110.09375 62.625 C 111.265625 61.007812 112.386719 58.925781 113.609375 57.273438 C 114.960938 55.449219 116.714844 53.976562 117.890625 52.378906 C 118.933594 50.964844 120.453125 49.054688 119.421875 47.484375 C 117.679688 48.851562 116.839844 51.125 114.988281 52.378906 C 114.328125 54.222656 113.171875 55.558594 111.929688 56.816406 C 111.019531 59.066406 109.203125 60.414062 108.410156 62.777344 C 107.914062 62.835938 107.882812 63.859375 107.339844 63.390625 C 106.710938 65.542969 104.121094 67.386719 104.890625 69.507812 C 106.148438 67.6875 107.769531 65.9375 109.175781 64.003906 Z M 118.8125 43.203125 C 114.273438 48.148438 110.683594 54.042969 106.421875 59.261719 C 106.605469 60.109375 105.984375 60.152344 105.960938 60.792969 C 105.636719 61.027344 105.28125 61.234375 104.890625 61.402344 C 105 62.570312 104.625 64.222656 105.199219 64.921875 C 109.179688 60.695312 111.652344 54.960938 115.75 50.851562 C 116.4375 48.082031 120.660156 46.242188 119.113281 43.203125 C 119.015625 43.203125 118.910156 43.203125 118.8125 43.203125 Z M 118.8125 38.15625 C 118.785156 38.335938 118.566406 38.324219 118.351562 38.308594 C 116.742188 40.628906 114.699219 43.320312 113.152344 45.957031 C 111.796875 48.261719 109.570312 49.679688 108.257812 51.617188 C 107.777344 52.320312 107.4375 53.507812 106.726562 54.523438 C 105.558594 56.183594 104.105469 57.070312 104.890625 59.414062 C 106.25 58.941406 106.308594 57.160156 107.644531 56.660156 C 108.859375 53.285156 111.855469 51.695312 113.152344 48.40625 C 115.390625 46.054688 117.269531 43.34375 119.269531 40.757812 C 119.316406 40.097656 119.054688 38.90625 119.269531 38.15625 C 119.113281 38.15625 118.960938 38.15625 118.8125 38.15625 Z M 109.480469 35.863281 C 107.707031 38.472656 105.644531 40.796875 104.28125 43.816406 C 104.855469 44.160156 104.226562 45.707031 104.890625 45.957031 C 106.921875 43.09375 108.628906 39.90625 111.164062 37.546875 C 111.066406 36.785156 111.628906 36.683594 111.621094 36.015625 C 111.09375 35.78125 110.226562 35.878906 109.480469 35.863281 Z M 104.890625 36.167969 C 104.554688 37.765625 104.226562 38.90625 104.585938 40.757812 C 106.035156 39.300781 107.183594 37.542969 108.5625 36.015625 C 107.195312 35.976562 106.105469 35.617188 104.890625 36.167969 Z M 116.058594 36.324219 C 116.191406 37.167969 115.496094 37.191406 115.445312 37.847656 C 111.601562 41.398438 109.347656 46.539062 106.117188 50.695312 C 106.171875 51.246094 106.527344 51.257812 106.269531 51.769531 C 105.898438 52.007812 105.617188 52.339844 104.890625 52.226562 C 104.527344 52.980469 104.582031 54.085938 104.738281 54.828125 C 105.285156 54.660156 105.34375 54.003906 105.960938 53.910156 C 110.039062 47.632812 115.0625 42.3125 118.8125 35.710938 C 117.773438 34.777344 117.097656 36.296875 116.058594 36.324219 Z M 114.070312 35.253906 C 110.816406 38.941406 107.648438 42.671875 105.503906 47.792969 C 104.691406 48.050781 104.484375 48.914062 104.28125 49.78125 C 104.484375 49.878906 104.566406 50.105469 104.585938 50.394531 C 108.648438 45.835938 111.753906 40.328125 115.597656 35.554688 C 114.851562 35.691406 114.582031 35.347656 114.070312 35.253906 Z M 23.832031 148.578125 C 23.367188 148.433594 23.355469 147.835938 22.761719 147.816406 C 21.257812 147.90625 19.851562 147.699219 18.480469 147.664062 C 14.007812 147.546875 9.613281 148.042969 5.632812 147.203125 C 6.09375 146.945312 7.035156 146.808594 7.621094 146.285156 C 13.148438 146.617188 17.195312 146.765625 22.914062 146.59375 C 23.90625 144.304688 23.183594 141.90625 23.527344 139.25 C 23.359375 138.859375 23.242188 138.414062 22.914062 138.179688 C 23.539062 137.203125 23.761719 135.414062 22.914062 134.511719 C 22.773438 133.703125 23.433594 133.699219 23.527344 133.132812 C 23.625 128.976562 22.925781 124.289062 22.914062 120.4375 C 22.90625 116.46875 23.332031 111.9375 22.457031 107.898438 C 22.90625 104.394531 23.105469 100.992188 22.609375 97.804688 C 22.390625 96.394531 21.3125 94.632812 22.914062 93.367188 C 25.585938 92.921875 29.949219 93.320312 33.46875 93.0625 C 35.054688 92.945312 36.949219 92.261719 38.210938 92.910156 C 38.964844 97.3125 38.988281 102.417969 38.824219 106.0625 C 39.230469 106.417969 39.300781 107.113281 39.890625 107.285156 C 39.734375 107.792969 39.46875 108.1875 38.824219 108.203125 C 39.40625 111.289062 39.378906 114.371094 39.28125 118.144531 C 39.21875 120.496094 39.8125 122.894531 39.738281 124.875 C 39.714844 125.507812 39.300781 126.078125 39.28125 126.710938 C 39.257812 127.402344 39.554688 128.78125 39.585938 129.460938 C 39.613281 129.992188 39.355469 131.628906 39.433594 132.523438 C 39.472656 132.945312 39.722656 133.328125 39.738281 133.746094 C 39.929688 138.25 39.230469 143.398438 40.351562 147.050781 C 44.054688 147.371094 48.175781 146.882812 51.667969 146.746094 C 52.101562 144.417969 52.140625 140.851562 51.515625 139.097656 C 52.261719 137.421875 51.972656 135.710938 51.972656 133.746094 C 51.984375 128.039062 51.691406 121.882812 51.667969 116.003906 C 51.789062 115.371094 50.9375 115.71875 51.058594 115.085938 C 51.820312 112.398438 50.792969 108.691406 51.058594 105.148438 C 51.121094 104.261719 50.835938 103.273438 50.75 102.238281 C 50.574219 100.097656 51.347656 98.722656 50.292969 97.496094 C 50.523438 97.011719 50.785156 96.5625 51.058594 96.121094 C 50.671875 92.304688 50.933594 87.722656 50.90625 83.273438 C 50.773438 82.742188 50.203125 82.648438 50.140625 82.050781 C 50.386719 81.785156 50.441406 81.332031 50.75 81.132812 C 50.613281 76.765625 50.410156 73.933594 50.445312 70.121094 C 54.171875 69.773438 58.253906 69.339844 62.070312 69.355469 C 63.746094 69.363281 65.742188 69.574219 67.117188 69.96875 C 67.410156 70.605469 66.742188 71.617188 67.574219 72.109375 C 66.507812 74.59375 67.046875 78.503906 66.960938 81.589844 C 67.03125 82.234375 67.90625 82.078125 68.035156 82.664062 C 67.929688 83.320312 67.316406 83.472656 67.117188 84.039062 C 67.015625 85.921875 67.765625 87.875 67.269531 89.699219 C 67.53125 89.84375 67.578125 90.207031 67.878906 90.308594 C 67.957031 95.488281 67.164062 99.472656 68.339844 103.921875 C 68.398438 104.492188 67.722656 104.320312 67.878906 104.992188 C 68.304688 109.800781 68.355469 111.980469 68.796875 116.003906 C 67.886719 119.644531 68.457031 125.183594 68.339844 129.308594 C 68.160156 135.578125 67.5625 141.148438 68.339844 147.050781 C 72.628906 147.507812 74.523438 147.121094 79.042969 147.355469 C 79.753906 141.914062 79.714844 137.464844 79.351562 131.757812 C 79.511719 131.183594 78.777344 131.515625 78.890625 130.992188 C 79.128906 129.429688 79.320312 126.59375 78.738281 125.332031 C 79.335938 123.945312 79.453125 121.542969 78.585938 120.59375 C 78.933594 119.550781 79.292969 119.078125 79.199219 117.839844 C 79.144531 117.136719 78.5625 116.203125 78.585938 115.851562 C 78.605469 115.585938 79.117188 115.210938 79.199219 114.933594 C 79.417969 114.1875 79.125 112.808594 79.042969 111.414062 C 78.949219 109.71875 79.425781 108.507812 78.738281 107.4375 C 79.796875 99.554688 77.835938 89.589844 78.28125 81.898438 C 78.183594 73.855469 76.824219 64.894531 77.363281 54.675781 C 77.414062 53.667969 77.773438 52.5625 77.210938 51.617188 C 78.449219 50.84375 80.15625 50.816406 81.644531 50.851562 C 84.9375 50.921875 87.78125 51.191406 90.820312 51.617188 C 91.550781 51.382812 92.292969 51.03125 93.117188 51.308594 C 94.128906 52.058594 93.289062 53.328125 93.269531 54.523438 C 93.261719 54.871094 93.671875 55.074219 93.726562 55.441406 C 94.011719 57.289062 93.164062 59.5625 94.1875 60.945312 C 94.246094 61.460938 93.921875 61.597656 93.726562 61.863281 C 94.460938 63.554688 94.011719 67.265625 94.1875 69.816406 C 94.257812 70.203125 94.484375 70.4375 94.796875 70.582031 C 94.707031 71.046875 94.472656 71.375 94.339844 71.804688 C 94.585938 73.628906 93.949219 75.171875 94.644531 76.394531 C 94.714844 84.21875 94.871094 91.992188 94.953125 100.097656 C 94.960938 100.960938 95.351562 101.773438 95.410156 102.699219 C 95.507812 104.257812 95.378906 106.199219 95.410156 107.4375 C 95.453125 109.214844 95.171875 111.046875 95.257812 112.792969 C 95.289062 113.449219 95.703125 114.003906 95.714844 114.625 C 95.738281 115.585938 95.398438 116.527344 95.410156 117.53125 C 95.464844 122.585938 95.414062 127.539062 95.5625 132.371094 C 95.59375 133.339844 95.839844 134.398438 95.714844 135.273438 C 95.667969 135.613281 95.414062 135.886719 95.410156 135.578125 C 95.429688 136.617188 95.949219 137.636719 96.019531 138.640625 C 96.253906 141.777344 95.46875 144.824219 96.171875 147.96875 C 99.539062 147.925781 103.820312 148.421875 106.269531 147.96875 C 107.082031 136.238281 105.6875 125.757812 105.503906 114.625 C 105.488281 113.636719 106 112.949219 105.65625 112.027344 C 105.496094 111.730469 104.777344 111.988281 104.738281 111.570312 C 105.152344 110.417969 105.601562 110.238281 105.351562 108.507812 C 105.363281 107.988281 104.421875 108.421875 104.433594 107.898438 C 104.726562 106.40625 106.03125 104.867188 104.890625 103.15625 C 105.546875 100.238281 104.769531 97.472656 104.890625 94.285156 C 105.054688 93.617188 104.375 93.78125 104.433594 93.214844 C 105.203125 90.773438 104.203125 87.894531 104.585938 85.722656 C 104.703125 85.148438 104.1875 85.203125 103.972656 84.957031 C 104.199219 84.519531 104.183594 83.835938 104.585938 83.578125 C 103.988281 78.980469 104.074219 74.503906 103.820312 69.96875 C 103.570312 65.425781 104.421875 60.699219 103.363281 57.121094 C 104 53.148438 103.167969 49.015625 103.515625 44.886719 C 103.445312 44.292969 102.828125 44.246094 102.445312 43.96875 C 102.433594 42.9375 103.230469 42.714844 103.515625 41.980469 C 103.3125 39.914062 103.738281 37.679688 103.363281 35.554688 C 104.765625 34.570312 106.570312 34.875 108.410156 34.792969 C 112.421875 34.609375 116.878906 33.734375 120.492188 34.332031 C 119.625 41.40625 121.566406 51.46875 120.644531 58.039062 C 121.933594 64.835938 120.757812 72.949219 121.714844 79.453125 C 121.019531 80.230469 122.039062 81.878906 121.257812 82.664062 C 121.851562 83.863281 121.984375 85.636719 121.871094 87.402344 C 121.90625 87.671875 122.132812 87.753906 122.480469 87.710938 C 121.480469 91.398438 122.683594 94.894531 122.175781 99.640625 C 122.46875 99.957031 122.546875 100.492188 122.785156 100.863281 C 122.519531 104.296875 123.027344 107.914062 123.09375 112.335938 C 123.109375 113.453125 122.746094 114.609375 122.785156 115.699219 C 122.832031 116.890625 123.246094 118.039062 123.246094 119.214844 C 123.246094 120.261719 123.027344 121.554688 123.09375 122.734375 C 123.132812 123.484375 123.484375 124.25 123.398438 124.875 C 123.386719 124.933594 122.941406 125.382812 122.9375 125.484375 C 122.9375 125.769531 123.371094 126.179688 123.398438 126.402344 C 123.453125 126.84375 123.09375 127.457031 123.09375 127.933594 C 123.085938 128.941406 123.433594 129.886719 123.398438 130.6875 C 123.140625 136.503906 123.019531 141.695312 123.09375 147.511719 C 129.355469 148.441406 136.367188 147.933594 142.058594 147.816406 C 143.113281 147.792969 143.609375 147.316406 144.351562 147.96875 C 143.925781 149.476562 142.503906 148.886719 140.679688 148.886719 C 138.960938 148.886719 136.890625 149.414062 135.480469 149.34375 C 134.097656 149.28125 132.90625 148.894531 131.503906 148.734375 C 128.890625 149.15625 126.042969 148.660156 123.398438 148.734375 C 122.695312 149.035156 123.316406 149.738281 122.632812 149.957031 C 121.992188 149.882812 121.660156 149.503906 121.714844 148.734375 C 117.230469 148.648438 112.730469 148.808594 107.796875 148.886719 C 107.347656 148.945312 107.5 149.605469 107.1875 149.804688 C 106.625 149.804688 106.601562 149.269531 106.269531 149.039062 C 102.058594 149.203125 95.789062 149.246094 91.28125 148.734375 C 90.839844 148.753906 91.015625 149.386719 90.515625 149.34375 C 90.226562 148.332031 88.132812 148.929688 87.609375 148.578125 C 87.011719 148.644531 87.316406 149.613281 86.539062 149.496094 C 85.699219 149.339844 86.839844 149.011719 86.84375 148.734375 C 84.71875 148.617188 81.808594 147.742188 79.808594 148.886719 C 77.351562 147.875 75.34375 148.3125 72.773438 148.273438 C 70.964844 148.246094 68.902344 147.988281 67.726562 148.578125 C 66.046875 147.421875 63.691406 148.273438 61.914062 147.96875 C 61.730469 147.9375 61.375 147.53125 61.152344 147.511719 C 60.238281 147.421875 59.097656 147.957031 57.941406 147.816406 C 57.449219 147.753906 56.664062 147.433594 55.339844 147.664062 C 54.714844 147.804688 54.53125 148.382812 53.808594 148.425781 C 53.542969 148.117188 53.925781 148.128906 53.65625 147.816406 C 52.066406 147.84375 50.445312 147.988281 48.761719 148.121094 C 45.960938 148.339844 42.039062 148.625 39.28125 148.273438 C 37.550781 148.054688 36.128906 147.125 34.386719 148.273438 C 34.386719 147.96875 34.386719 147.664062 34.386719 147.355469 C 34.019531 147.816406 33.535156 147.128906 33.011719 147.203125 C 32.660156 147.253906 32.464844 147.625 32.09375 147.664062 C 30.441406 147.832031 27.480469 148.148438 25.976562 147.816406 C 25.570312 147.726562 24.15625 147.933594 23.832031 148.578125 "/></g><path style=" stroke:none;fill-rule:nonzero;fill:#5e17eb;fill-opacity:1;" d="M 112.691406 5.121094 C 110.398438 8.792969 108.113281 12.472656 106.269531 16.589844 C 105.902344 16.890625 105.675781 17.328125 105.195312 17.511719 C 104.109375 20.652344 101.632812 22.410156 100.457031 25.464844 C 100.074219 25.4375 99.984375 25.703125 99.691406 25.769531 C 99.679688 26.675781 99.121094 27.035156 99.082031 27.910156 C 98.457031 27.84375 98.460938 28.414062 97.703125 28.214844 C 97.535156 26.277344 97.273438 24.808594 97.242188 22.40625 C 94.632812 24.5625 92.523438 27.300781 90.054688 29.746094 C 88.519531 31.269531 86.84375 32.644531 85.3125 34.183594 C 79.207031 40.324219 72.671875 46.792969 65.738281 51.921875 C 64.019531 54.128906 61.71875 55.75 59.925781 57.886719 C 59.609375 57.972656 59.433594 58.324219 59.160156 58.039062 C 57.785156 59.863281 55.835938 61.152344 54.117188 62.628906 C 52.378906 64.117188 50.890625 65.835938 49.222656 67.371094 C 47.804688 68.671875 45.929688 69.535156 44.328125 70.734375 C 42.804688 71.875 41.625 73.515625 40.199219 74.710938 C 37.480469 76.980469 34.492188 78.988281 31.785156 81.289062 C 31.621094 80.941406 31.4375 80.613281 31.175781 80.367188 C 34.820312 77.589844 38.238281 74.90625 41.574219 71.804688 C 45.726562 67.945312 50.628906 65.359375 54.269531 60.945312 C 59.324219 57.34375 63.675781 52.851562 68.339844 48.710938 C 69.105469 48.027344 70.019531 47.550781 70.785156 46.875 C 72.003906 45.804688 72.902344 44.378906 74.152344 43.355469 C 75.652344 42.125 77.277344 41.050781 78.738281 39.6875 C 82.800781 35.890625 86.835938 31.574219 90.972656 27.605469 C 93.039062 25.625 94.992188 23.507812 96.632812 21.179688 C 94.953125 20.234375 93.421875 21.949219 92.195312 20.875 C 91.925781 19.414062 93.402344 19.289062 94.1875 18.886719 C 95.128906 18.40625 95.929688 17.550781 96.9375 17.355469 C 97.050781 16.757812 97.839844 16.832031 97.855469 16.132812 C 101.359375 14.613281 105.050781 10.742188 107.949219 7.722656 C 109.105469 6.515625 111.261719 3.011719 112.691406 5.121094 "/><path style=" stroke:none;fill-rule:nonzero;fill:#5e17eb;fill-opacity:1;" d="M 30.867188 80.523438 C 31.308594 80.589844 31.230469 81.179688 31.632812 81.289062 C 29.402344 83.746094 25.726562 84.761719 23.527344 87.25 C 19.207031 89.148438 15.980469 92.140625 10.832031 93.214844 C 10.980469 91.988281 12.191406 91.820312 13.28125 91.535156 C 18.546875 88.539062 24.015625 85.753906 28.574219 82.050781 C 29.699219 81.902344 30.238281 81.164062 30.867188 80.523438 "/></g></svg>